<?xml version="1.0" encoding="UTF-8"?>
<svg id="Layer_1" data-name="Layer 1" xmlns="http://www.w3.org/2000/svg" viewBox="0 0 1080 1080">
  <defs>
    <style>
      .cls-1 {
        fill: #fff;
      }

      .cls-2 {
        fill: #3d3b40;
      }
    </style>
  </defs>
  <rect class="cls-2" width="1080" height="1080"/>
  <g>
    <rect class="cls-1" x="353.83" y="355.52" width="64.28" height="363.64"/>
    <path class="cls-1" d="m604.9,724.48c-27.34,0-50.93-5.71-70.76-17.13-19.83-11.42-35.07-27.64-45.72-48.65-10.65-21.01-15.98-45.78-15.98-74.31s5.35-52.7,16.07-73.95c10.71-21.25,25.72-37.82,45.01-49.72,19.29-11.9,41.96-17.84,68-17.84,16.81,0,32.7,2.69,47.67,8.08,14.97,5.39,28.23,13.7,39.77,24.95,11.54,11.25,20.62,25.54,27.26,42.88,6.63,17.34,9.94,37.97,9.94,61.88v19.71h-223.54v-43.32h161.93c-.12-12.31-2.78-23.29-7.99-32.94-5.21-9.65-12.46-17.25-21.75-22.82-9.29-5.56-20.09-8.35-32.4-8.35-13.14,0-24.68,3.17-34.62,9.5-9.94,6.33-17.67,14.62-23.17,24.86-5.5,10.24-8.32,21.46-8.43,33.65v37.82c0,15.86,2.9,29.45,8.7,40.75,5.8,11.3,13.91,19.95,24.33,25.92,10.42,5.98,22.61,8.97,36.58,8.97,9.35,0,17.81-1.33,25.39-4,7.57-2.66,14.14-6.6,19.71-11.81,5.56-5.21,9.77-11.66,12.61-19.35l60.01,6.75c-3.79,15.86-10.98,29.68-21.57,41.46-10.59,11.78-24.12,20.89-40.57,27.34-16.46,6.45-35.28,9.68-56.46,9.68Z"/>
  </g>
</svg>