<svg xmlns="http://www.w3.org/2000/svg" xmlns:xlink="http://www.w3.org/1999/xlink" viewBox="0 0 1080 1920">
  <defs>
    <style>
      .cls-1, .cls-2, .cls-3, .cls-4 {
        fill: #fff;
      }

      .cls-5 {
        fill: #f6f6f6;
      }

      .cls-6 {
        fill: #e5e5d6;
      }

      .cls-6, .cls-2, .cls-7, .cls-8 {
        fill-rule: evenodd;
      }

      .cls-9 {
        letter-spacing: 0em;
      }

      .cls-3 {
        font-size: 72px;
      }

      .cls-3, .cls-10 {
        font-family: Inter-Bold, Inter;
        font-weight: 700;
      }

      .cls-11 {
        letter-spacing: -.11em;
      }

      .cls-12 {
        fill: #575756;
      }

      .cls-13 {
        fill: #e6332a;
      }

      .cls-4 {
        stroke: #212020;
        stroke-miterlimit: 9.82;
      }

      .cls-14 {
        letter-spacing: .01em;
      }

      .cls-7 {
        fill: #212020;
      }

      .cls-15 {
        fill: #dadada;
      }

      .cls-10 {
        font-size: 62.44px;
      }

      .cls-16 {
        clip-path: url(#clippath);
      }

      .cls-17, .cls-8 {
        fill: #f5f5f0;
      }

      .cls-18 {
        fill: none;
      }

      .cls-19 {
        fill: #525ceb;
      }

      .cls-20 {
        letter-spacing: 0em;
      }

      .cls-21 {
        letter-spacing: .03em;
      }
    </style>
    <clipPath id="clippath">
      <rect class="cls-18" x="83.01" y="40.8" width="1080" height="887.67"/>
    </clipPath>
  </defs>
  <g id="STORY_4" data-name="STORY 4">
    <g id="OBJECTS-2" data-name="OBJECTS">
      <g>
        <path class="cls-8" d="m1028.82,40.08h.05c3.18,0,5.75,2.59,5.75,5.76s-2.58,5.75-5.75,5.75h-.05c.03-.24.05-.49.05-.75v-10c0-.25-.02-.51-.05-.76Z"/>
        <path class="cls-17" d="m1028.86,39.67c0-2.77-2.24-5-5-5h-41.89c-2.76,0-5,2.23-5,5v12.35c0,2.76,2.24,5,5,5h41.89c2.76,0,5-2.24,5-5v-12.35Z"/>
        <path class="cls-8" d="m884.41,50.35c0-1.99-1.61-3.6-3.6-3.6h0c-1.99,0-3.6,1.61-3.6,3.6v3.61c0,1.99,1.61,3.6,3.6,3.6h0c1.99,0,3.6-1.61,3.6-3.6v-3.61Z"/>
        <path class="cls-8" d="m896.17,46.12c0-.95-.38-1.87-1.05-2.53-.67-.68-1.59-1.05-2.54-1.05h0c-.95,0-1.87.37-2.54,1.05-.67.67-1.05,1.59-1.05,2.53v7.84c0,.96.38,1.88,1.05,2.55.67.68,1.59,1.05,2.54,1.05h0c.95,0,1.87-.37,2.54-1.05.67-.67,1.05-1.59,1.05-2.55v-7.84Z"/>
        <path class="cls-8" d="m907.07,41.09c0-.96-.38-1.87-1.05-2.55-.67-.68-1.59-1.05-2.54-1.05s-1.87.37-2.54,1.05c-.67.68-1.05,1.59-1.05,2.55v12.87c0,.96.38,1.88,1.05,2.55.67.68,1.59,1.05,2.54,1.05s1.87-.37,2.54-1.05c.67-.67,1.05-1.59,1.05-2.55v-12.87Z"/>
        <path class="cls-8" d="m961.41,42.73c.74-.75,1.12-1.77,1.05-2.81-.08-1.04-.61-2-1.45-2.63-4.13-2.84-9.04-4.41-14.11-4.41s-9.98,1.57-14.07,4.47c-.83.61-1.35,1.55-1.42,2.57-.08,1.03.3,2.04,1.03,2.77-.02.07,0,.09.03.11.84.84,2.18.91,3.09.15,3.2-2.57,7.2-3.97,11.35-3.97s8.09,1.39,11.29,3.91c.95.77,2.33.71,3.2-.16.02.01.02.01.02.01Z"/>
        <path class="cls-8" d="m954.31,49.83c.77-.77,1.12-1.85.96-2.93-.16-1.07-.82-2-1.79-2.51-2.06-.93-4.3-1.49-6.6-1.49s-4.54.56-6.55,1.59c-.93.49-1.57,1.4-1.73,2.44-.16,1.04.19,2.09.93,2.83-.06.09-.04.12-.02.13.53.53,1.38.59,1.98.12,1.54-1.16,3.43-1.8,5.39-1.8s3.8.61,5.34,1.75c.62.48,1.5.41,2.06-.13t.02.01Z"/>
        <path class="cls-8" d="m949.74,56.01c.67-.67.91-1.65.64-2.56-.28-.91-1.03-1.59-1.96-1.76-.5-.04-1.01-.11-1.51-.11s-1.01.07-1.5.16c-.91.17-1.65.84-1.92,1.72-.27.88-.03,1.85.62,2.51-.04.04-.04.04-.04.04,1.57,1.57,4.11,1.57,5.68,0h0Z"/>
        <path class="cls-8" d="m1025.08,39.67v12.35c0,.68-.55,1.23-1.22,1.23h-41.89c-.67,0-1.22-.55-1.22-1.23v-12.35c0-.68.55-1.23,1.22-1.23h41.89c.67,0,1.22.55,1.22,1.23Z"/>
        <path class="cls-8" d="m917.96,36.17c0-1.99-1.61-3.59-3.6-3.59h0c-1.99,0-3.6,1.6-3.6,3.59v17.79c0,1.99,1.61,3.6,3.6,3.6h0c1.99,0,3.6-1.61,3.6-3.6v-17.79Z"/>
      </g>
      <g>
        <path class="cls-7" d="m909.64,1670.11c0-42.42-34.44-76.86-76.86-76.86H247.22c-42.42,0-76.86,34.44-76.86,76.86s34.44,76.86,76.86,76.86h585.56c42.42,0,76.86-34.44,76.86-76.86Z"/>
        <circle class="cls-17" cx="274.51" cy="1670.11" r="51.37" transform="translate(-1414 1553.56) rotate(-76.72)"/>
        <path class="cls-7" d="m292.71,1665.28c1.69,1.03,2.72,2.86,2.72,4.84s-1.03,3.81-2.72,4.84c-7.57,4.61-18.93,11.55-26.72,16.3-1.75,1.07-3.94,1.11-5.72.1-1.79-1-2.89-2.89-2.89-4.94v-32.59c0-2.05,1.11-3.94,2.89-4.94,1.79-1,3.97-.96,5.72.1,7.79,4.75,19.15,11.68,26.72,16.3Z"/>
      </g>
      <text class="cls-3" transform="translate(366.51 1694.74)"><tspan x="0" y="0">Get Sta</tspan><tspan class="cls-21" x="259.36" y="0">r</tspan><tspan class="cls-20" x="290.76" y="0">t</tspan><tspan x="318.32" y="0">ed</tspan></text>
      <path class="cls-1" d="m731.11,543.59l1.01,6.3c.2,1.28,1.44,2.12,2.7,1.85h0c1.15-.25,1.91-1.34,1.75-2.51l-1.06-7.75-4.4,2.11Z"/>
      <rect class="cls-19" width="1080" height="1018.52"/>
      <g>
        <polyline class="cls-5" points="748.77 266.23 728.49 266.23 728.49 288.48 750.56 266.32"/>
        <path class="cls-5" d="m708.85,788.13h-347.09v-495.73c0-14.45,11.71-26.16,26.16-26.16h340.57v502.25c0,10.85-8.79,19.64-19.64,19.64Z"/>
        <path class="cls-15" d="m769.05,358.01h-40.56v-71.5c0-11.2,9.08-20.28,20.28-20.28h0c11.2,0,20.28,9.08,20.28,20.28v71.5Z"/>
        <path class="cls-1" d="m341.48,696.35h40.56v71.5c0,11.2-9.08,20.28-20.28,20.28h0c-11.2,0-20.28-9.08-20.28-20.28v-71.5Z"/>
        <rect class="cls-1" x="361.76" y="696.35" width="346.45" height="91.77"/>
        <path class="cls-15" d="m687.93,696.35h40.56v71.5c0,11.2-9.08,20.28-20.28,20.28h0c-11.2,0-20.28-9.08-20.28-20.28v-71.5Z"/>
        <path class="cls-13" d="m644.45,346.26h-17.15c-3.72,0-6.75-3.03-6.75-6.75v-17.15c0-3.72,3.03-6.75,6.75-6.75h17.15c3.72,0,6.75,3.03,6.75,6.75v17.15c0,3.72-3.03,6.75-6.75,6.75Zm-17.15-28.18c-2.36,0-4.28,1.92-4.28,4.28v17.15c0,2.36,1.92,4.28,4.28,4.28h17.15c2.36,0,4.28-1.92,4.28-4.28v-17.15c0-2.36-1.92-4.28-4.28-4.28h-17.15Z"/>
        <path class="cls-13" d="m644.45,400.56h-17.15c-3.72,0-6.75-3.03-6.75-6.75v-17.15c0-3.72,3.03-6.75,6.75-6.75h17.15c3.72,0,6.75,3.03,6.75,6.75v17.15c0,3.72-3.03,6.75-6.75,6.75Zm-17.15-28.18c-2.36,0-4.28,1.92-4.28,4.28v17.15c0,2.36,1.92,4.28,4.28,4.28h17.15c2.36,0,4.28-1.92,4.28-4.28v-17.15c0-2.36-1.92-4.28-4.28-4.28h-17.15Z"/>
        <path class="cls-13" d="m644.45,454.86h-17.15c-3.72,0-6.75-3.03-6.75-6.75v-17.15c0-3.72,3.03-6.75,6.75-6.75h17.15c3.72,0,6.75,3.03,6.75,6.75v17.15c0,3.72-3.03,6.75-6.75,6.75Zm-17.15-28.18c-2.36,0-4.28,1.92-4.28,4.28v17.15c0,2.36,1.92,4.28,4.28,4.28h17.15c2.36,0,4.28-1.92,4.28-4.28v-17.15c0-2.36-1.92-4.28-4.28-4.28h-17.15Z"/>
        <path class="cls-13" d="m644.45,509.16h-17.15c-3.72,0-6.75-3.03-6.75-6.75v-17.15c0-3.72,3.03-6.75,6.75-6.75h17.15c3.72,0,6.75,3.03,6.75,6.75v17.15c0,3.72-3.03,6.75-6.75,6.75Zm-17.15-28.18c-2.36,0-4.28,1.92-4.28,4.28v17.15c0,2.36,1.92,4.28,4.28,4.28h17.15c2.36,0,4.28-1.92,4.28-4.28v-17.15c0-2.36-1.92-4.28-4.28-4.28h-17.15Z"/>
        <path class="cls-13" d="m644.45,563.46h-17.15c-3.72,0-6.75-3.03-6.75-6.75v-17.15c0-3.72,3.03-6.75,6.75-6.75h17.15c3.72,0,6.75,3.03,6.75,6.75v17.15c0,3.72-3.03,6.75-6.75,6.75Zm-17.15-28.18c-2.36,0-4.28,1.92-4.28,4.28v17.15c0,2.36,1.92,4.28,4.28,4.28h17.15c2.36,0,4.28-1.92,4.28-4.28v-17.15c0-2.36-1.92-4.28-4.28-4.28h-17.15Z"/>
        <path class="cls-13" d="m644.45,617.76h-17.15c-3.72,0-6.75-3.03-6.75-6.75v-17.15c0-3.72,3.03-6.75,6.75-6.75h17.15c3.72,0,6.75,3.03,6.75,6.75v17.15c0,3.72-3.03,6.75-6.75,6.75Zm-17.15-28.18c-2.36,0-4.28,1.92-4.28,4.28v17.15c0,2.36,1.92,4.28,4.28,4.28h17.15c2.36,0,4.28-1.92,4.28-4.28v-17.15c0-2.36-1.92-4.28-4.28-4.28h-17.15Z"/>
        <path class="cls-13" d="m644.45,672.06h-17.15c-3.72,0-6.75-3.03-6.75-6.75v-17.15c0-3.72,3.03-6.75,6.75-6.75h17.15c3.72,0,6.75,3.03,6.75,6.75v17.15c0,3.72-3.03,6.75-6.75,6.75Zm-17.15-28.18c-2.36,0-4.28,1.92-4.28,4.28v17.15c0,2.36,1.92,4.28,4.28,4.28h17.15c2.36,0,4.28-1.92,4.28-4.28v-17.15c0-2.36-1.92-4.28-4.28-4.28h-17.15Z"/>
        <rect class="cls-15" x="407.05" y="316.85" width="189.23" height="14.09"/>
        <rect class="cls-15" x="407.05" y="371.97" width="189.23" height="14.09"/>
        <rect class="cls-15" x="407.05" y="394.8" width="76.51" height="14.09"/>
        <rect class="cls-15" x="407.05" y="431.21" width="189.23" height="14.09"/>
        <rect class="cls-15" x="407.05" y="477.59" width="189.23" height="14.09"/>
        <rect class="cls-15" x="407.05" y="534.05" width="189.23" height="14.09"/>
        <rect class="cls-15" x="407.05" y="555.18" width="189.23" height="14.09"/>
        <rect class="cls-15" x="407.05" y="588.35" width="189.23" height="14.09"/>
        <rect class="cls-15" x="407.05" y="609.48" width="101.61" height="14.09"/>
        <rect class="cls-15" x="407.05" y="639.13" width="189.23" height="14.09"/>
        <rect class="cls-15" x="407.05" y="660.26" width="101.61" height="14.09"/>
        <rect class="cls-15" x="407.05" y="500.42" width="76.51" height="14.09"/>
        <path class="cls-12" d="m636.07,339.74c-.1,0-.21,0-.32-.01-1.25-.11-2.36-.84-2.95-1.95-1.34-2.5-3.02-4.79-5-6.81-1.43-1.46-1.41-3.8.04-5.24,1.46-1.43,3.8-1.42,5.24.04,1.2,1.22,2.31,2.51,3.32,3.88,6.31-7.81,13.07-15.34,20.15-22.44,1.45-1.45,3.79-1.45,5.24,0,1.45,1.44,1.45,3.79,0,5.24-8.1,8.11-15.77,16.81-22.79,25.86-.7.91-1.79,1.43-2.92,1.43Z"/>
        <path class="cls-12" d="m636.07,395.82c-.1,0-.21,0-.32-.01-1.25-.11-2.36-.84-2.95-1.95-1.34-2.5-3.02-4.79-5-6.81-1.43-1.46-1.41-3.8.04-5.24,1.46-1.43,3.8-1.41,5.24.04,1.2,1.22,2.31,2.51,3.32,3.88,6.31-7.81,13.06-15.34,20.15-22.43,1.45-1.45,3.79-1.45,5.24,0,1.45,1.44,1.45,3.79,0,5.24-8.1,8.12-15.77,16.81-22.79,25.86-.7.91-1.79,1.43-2.92,1.43Z"/>
        <path class="cls-12" d="m636.07,557.08c-.1,0-.21,0-.32-.01-1.25-.11-2.36-.84-2.95-1.95-1.34-2.5-3.02-4.79-5-6.81-1.44-1.46-1.42-3.8.04-5.24,1.46-1.44,3.8-1.41,5.24.04,1.2,1.22,2.31,2.51,3.32,3.88,6.31-7.81,13.06-15.34,20.15-22.43,1.45-1.45,3.79-1.45,5.24,0,1.45,1.45,1.45,3.79,0,5.24-8.1,8.12-15.77,16.81-22.79,25.86-.7.91-1.79,1.43-2.92,1.43Z"/>
        <path class="cls-12" d="m636.07,662.98c-.1,0-.21,0-.32-.01-1.25-.11-2.36-.84-2.95-1.95-1.34-2.5-3.02-4.79-5-6.81-1.43-1.46-1.41-3.8.04-5.24,1.46-1.43,3.8-1.42,5.24.04,1.2,1.22,2.31,2.51,3.32,3.88,6.31-7.81,13.07-15.34,20.15-22.44,1.45-1.45,3.79-1.45,5.24,0,1.45,1.45,1.45,3.79,0,5.24-8.1,8.11-15.77,16.81-22.79,25.86-.7.91-1.79,1.43-2.92,1.43Z"/>
      </g>
    </g>
  </g>
  <g id="STORY_2" data-name="STORY 2">
    <g id="OBJECTS-4" data-name="OBJECTS">
      <g>
        <path class="cls-2" d="m1041.91,40.67h.05c3.17,0,5.75,2.59,5.75,5.76s-2.57,5.75-5.75,5.75h-.05c.04-.24.05-.49.05-.75v-10c0-.25-.01-.51-.05-.76Z"/>
        <path class="cls-4" d="m1041.97,40.25c0-2.77-2.24-5-5-5h-41.89c-2.76,0-5,2.23-5,5v12.35c0,2.76,2.24,5,5,5h41.89c2.76,0,5-2.24,5-5v-12.35Z"/>
        <path class="cls-2" d="m897.51,50.93c0-1.99-1.61-3.6-3.6-3.6s-3.6,1.61-3.6,3.6v3.61c0,1.99,1.61,3.6,3.6,3.6s3.6-1.61,3.6-3.6v-3.61Z"/>
        <path class="cls-2" d="m909.27,46.71c0-.95-.39-1.87-1.05-2.53-.68-.68-1.59-1.05-2.55-1.05s-1.87.37-2.55,1.05c-.67.67-1.05,1.59-1.05,2.53v7.84c0,.96.39,1.88,1.05,2.55s1.59,1.05,2.55,1.05,1.87-.37,2.55-1.05c.67-.67,1.05-1.59,1.05-2.55v-7.84Z"/>
        <path class="cls-2" d="m920.17,41.68c0-.96-.37-1.87-1.05-2.55-.68-.68-1.59-1.05-2.55-1.05s-1.87.37-2.53,1.05c-.68.68-1.05,1.59-1.05,2.55v12.87c0,.96.37,1.88,1.05,2.55.67.68,1.59,1.05,2.53,1.05s1.87-.37,2.55-1.05c.68-.67,1.05-1.59,1.05-2.55v-12.87Z"/>
        <path class="cls-2" d="m974.5,43.32c.75-.75,1.13-1.77,1.05-2.81-.08-1.04-.61-2-1.45-2.63-4.12-2.84-9.04-4.41-14.11-4.41s-9.99,1.57-14.07,4.47c-.83.61-1.35,1.55-1.43,2.57-.08,1.03.29,2.04,1.03,2.77-.03.07,0,.09.03.11.84.84,2.17.91,3.09.15,3.2-2.57,7.2-3.97,11.35-3.97s8.09,1.39,11.29,3.91c.95.77,2.33.71,3.2-.16h.01Z"/>
        <path class="cls-2" d="m967.42,50.41c.76-.77,1.12-1.85.96-2.93-.16-1.07-.83-2-1.79-2.51-2.05-.93-4.31-1.49-6.6-1.49s-4.55.56-6.55,1.59c-.93.49-1.57,1.4-1.73,2.44-.16,1.04.19,2.09.93,2.83-.05.09-.04.12-.01.13.53.53,1.37.59,1.97.12,1.53-1.16,3.43-1.8,5.39-1.8s3.8.61,5.35,1.75c.61.48,1.49.41,2.05-.13h.03Z"/>
        <path class="cls-2" d="m962.83,56.6c.67-.67.92-1.65.64-2.56-.28-.91-1.04-1.59-1.96-1.76-.51-.04-1.01-.11-1.52-.11s-1.01.07-1.51.16c-.91.17-1.64.84-1.92,1.72-.27.88-.03,1.85.63,2.51l-.04.04c1.57,1.57,4.11,1.57,5.68,0Z"/>
        <path class="cls-2" d="m1038.18,40.25v12.35c0,.68-.55,1.23-1.21,1.23h-41.89c-.68,0-1.23-.55-1.23-1.23v-12.35c0-.68.55-1.23,1.23-1.23h41.89c.67,0,1.21.55,1.21,1.23Z"/>
        <path class="cls-2" d="m931.06,36.76c0-1.99-1.6-3.59-3.59-3.59s-3.6,1.6-3.6,3.59v17.79c0,1.99,1.61,3.6,3.6,3.6s3.59-1.61,3.59-3.6v-17.79Z"/>
      </g>
      <g class="cls-16">
        <g>
          <path class="cls-6" d="m1059.15,618.73c-.24-1.84-1.85-3.18-3.71-3.07-1.85.11-3.29,1.65-3.29,3.51v55.78c0,14.37-11.65,26.01-26.01,26.01h-23.17c-1.84,0-3.36,1.41-3.51,3.25-.13,1.83,1.16,3.46,2.97,3.74,2.84.44,5.57.86,8.13,1.25,10.21,1.57,18.49,9.12,20.96,19.16,3.11,12.58,7.45,30.19,11.15,45.15.43,1.73,2.08,2.87,3.85,2.64,1.77-.23,3.09-1.74,3.07-3.52-.09-7.63-.19-15.69-.27-22.86-.15-12.87,9.29-23.84,22.03-25.63,13.31-1.86,29.88-4.19,41.81-5.86,1.63-.23,2.88-1.56,3.01-3.2.13-1.64-.89-3.15-2.47-3.64-4.07-1.25-8.61-2.64-13.2-4.05-19.15-5.87-33.07-22.44-35.56-42.31-1.75-13.92-3.83-30.57-5.8-46.34Z"/>
          <path class="cls-6" d="m175.77,777.52c-.1-.81-.81-1.4-1.63-1.35-.81.05-1.45.73-1.45,1.54v24.53c0,6.32-5.12,11.44-11.44,11.44h-10.19c-.81,0-1.48.62-1.54,1.43-.06.81.51,1.52,1.31,1.64,1.25.19,2.45.38,3.58.55,4.49.69,8.13,4.01,9.22,8.42,1.36,5.53,3.28,13.28,4.9,19.86.19.76.92,1.26,1.69,1.16.78-.1,1.36-.77,1.35-1.55-.04-3.36-.08-6.9-.12-10.05-.07-5.66,4.08-10.48,9.69-11.27,5.85-.82,13.14-1.84,18.39-2.58.72-.1,1.27-.69,1.33-1.41.06-.72-.39-1.39-1.09-1.6-1.79-.55-3.78-1.16-5.8-1.78-8.42-2.58-14.54-9.87-15.64-18.61-.77-6.12-1.68-13.44-2.55-20.38Z"/>
          <path class="cls-6" d="m1058.4,131.89c-.11-.81-.81-1.4-1.63-1.35-.81.05-1.45.73-1.45,1.54v24.53c0,6.32-5.12,11.44-11.44,11.44h-10.19c-.81,0-1.48.62-1.55,1.43-.05.81.51,1.52,1.31,1.64,1.25.19,2.45.38,3.59.55,4.49.69,8.12,4.01,9.21,8.42,1.36,5.53,3.28,13.28,4.89,19.86.2.76.92,1.26,1.71,1.16.77-.1,1.35-.77,1.35-1.55-.04-3.36-.08-6.9-.12-10.05-.07-5.66,4.08-10.48,9.69-11.27,5.84-.82,13.13-1.84,18.37-2.58.72-.1,1.28-.69,1.33-1.41.05-.72-.4-1.39-1.09-1.6-1.79-.55-3.77-1.16-5.8-1.78-8.41-2.58-14.55-9.87-15.64-18.61-.76-6.12-1.68-13.44-2.55-20.38Z"/>
          <path class="cls-6" d="m129.25,70.76c-.18-1.43-1.44-2.47-2.87-2.39-1.43.09-2.55,1.28-2.55,2.72v43.21c0,11.13-9.02,20.15-20.15,20.15h-17.95c-1.42,0-2.6,1.09-2.71,2.51-.11,1.42.89,2.68,2.3,2.9,2.2.34,4.32.66,6.31.97,7.91,1.21,14.31,7.07,16.23,14.84,2.4,9.74,5.77,23.39,8.63,34.97.33,1.34,1.61,2.22,2.98,2.05,1.37-.17,2.39-1.35,2.38-2.73-.07-5.91-.14-12.15-.2-17.71-.11-9.97,7.19-18.47,17.06-19.85,10.31-1.44,23.15-3.24,32.38-4.54,1.26-.18,2.23-1.21,2.33-2.48.1-1.27-.7-2.44-1.91-2.82-3.14-.96-6.66-2.04-10.22-3.13-14.83-4.55-25.61-17.38-27.54-32.77-1.35-10.78-2.97-23.68-4.5-35.89Z"/>
        </g>
      </g>
    </g>
  </g>
  <g id="STORY_1" data-name="STORY 1">
    <g id="TEXTS-4" data-name="TEXTS">
      <text class="cls-10" transform="translate(181.73 1316.7)"><tspan x="0" y="0">Igni</tspan><tspan class="cls-9" x="112.86" y="0">t</tspan><tspan x="136.77" y="0">e </tspan><tspan class="cls-11" x="188.56" y="0">Y</tspan><tspan x="226.73" y="0">our In</tspan><tspan class="cls-9" x="400.21" y="0">t</tspan><tspan x="424.12" y="0">elligence </tspan><tspan x="158.53" y="74.93">wi</tspan><tspan class="cls-14" x="228.6" y="74.93">t</tspan><tspan x="253.57" y="74.93">h Learnify</tspan></text>
    </g>
  </g>
</svg>