<?xml version="1.0" encoding="UTF-8"?>
<svg id="Layer_2" data-name="Layer 2" xmlns="http://www.w3.org/2000/svg" viewBox="0 0 434.12 173.9">
  <defs>
    <style>
      .cls-1 {
        fill: #bbe2f2;
      }

      .cls-2 {
        fill: #fff;
      }

      .cls-3 {
        fill: #264cbe;
      }

      .cls-4 {
        fill: #18315b;
      }

      .cls-5 {
        fill: #ffa681;
      }

      .cls-6 {
        fill: #006bde;
      }

      .cls-7 {
        fill: #1c31b5;
      }

      .cls-8 {
        fill: #ea5143;
      }

      .cls-9 {
        fill: #f97853;
      }

      .cls-10 {
        fill: #009cf8;
      }

      .cls-11 {
        fill: #000b29;
      }

      .cls-12 {
        fill: #e3e3e3;
      }
    </style>
  </defs>
  <g id="Layer_1-2" data-name="Layer 1">
    <g>
      <g>
        <path class="cls-1" d="m403.99,173.82h-228.51c-.22.04-.44.07-.64.08-.29.02-.54,0-.72-.08H38.69c-.98-3.96-1.81-7.93-2.52-11.89-.21-1.16-.4-2.31-.58-3.47-.74-4.6-1.29-9.19-1.67-13.77-.18-2.04-.31-4.08-.41-6.11-.27-5.53-.29-11.02-.04-16.41h0c.19-4.4.55-8.7,1.1-12.96.36-2.94.81-5.85,1.35-8.72.71-3.89,1.58-7.71,2.6-11.43,2.18-8.01,5.04-15.61,8.58-22.65,4.17-8.34,9.29-15.9,15.35-22.47.58-.63,1.16-1.25,1.74-1.85C104.55-.17,174.97,18.05,190.6,74.56c1.33,4.81,2.88,9.66,4.69,14.45v.02c1.33,3.49,2.8,6.93,4.42,10.3,2.56,5.32,5.52,10.42,8.92,15.09h0c1.3,1.79,2.66,3.52,4.1,5.17.13.16.26.31.4.46,4.22,4.77,9.02,8.9,14.49,12.13.45.26.9.52,1.36.78,2.87,1.58,5.92,2.9,9.17,3.95,2.43.79,4.98,1.41,7.64,1.84h.02c.17.04.35.07.52.09t.01,0c4.45.71,9.21.91,14.3.53.85-.06,1.7-.13,2.57-.23.06,0,.12,0,.18-.03,2.45-.26,4.98-.66,7.58-1.2,15.77-3.26,30.5-5.26,44.02-5.95h.01c13.37-.7,25.55-.12,36.36,1.76h.01c.57.09,1.14.2,1.71.31,3.56.67,6.96,1.49,10.2,2.46,7.11,2.11,13.43,4.93,18.91,8.47,5.47,3.53,10.1,7.78,13.8,12.75,3.51,4.72,6.2,10.08,8,16.11Z"/>
        <path class="cls-1" d="m291.05,84.24c-16.16,2.62-20.63,16.89-8.16,27.02,4.12,3.35,10.01,6.13,18.4,7.51,31.95,5.29,48.91-8.81,36.1-27.09-7.91-11.28-30.33-10.05-46.34-7.45Z"/>
        <path class="cls-1" d="m376.63,129.51c7.76,1.62,13.39-4.7,10.51-12.02-.95-2.42-2.82-4.87-6.15-7.09-12.67-8.43-23.73-4.46-22.8,7,.58,7.07,10.74,10.51,18.43,12.11Z"/>
        <path class="cls-1" d="m187.9,46.37c6.15,5,14.06,1.97,14.88-5.85.27-2.58-.26-5.62-2.19-9.11-7.36-13.3-19.01-14.85-23.47-4.25-2.75,6.54,4.68,14.26,10.77,19.21Z"/>
      </g>
      <g>
        <path class="cls-7" d="m48.08,89.12c1.6-14.93.35-29.35-7.1-25.79-7.46,3.56-4.84,28.35,5.3,44.69l2.12,6.38c-7.18-12.04-21.51-22.24-27.39-18.43-5.84,3.79,4.31,9.72,14.49,13.59,7.75,2.95,12.15,6.65,14.19,8.74l9.99,30.15c-11.42-19.04-34.05-35.12-43.36-29.08-9.27,6.01,6.84,15.42,23,21.56,12.21,4.64,19.17,10.47,22.44,13.8l1.99,6.01c1.1-.18,2.2-.37,3.29-.56l-11.88-35.87c.8-3.08,2.38-7.3,5.52-12.2,5.86-9.16,10.48-19.95,3.52-19.52-6.04.37-10.89,12.84-11.2,25.21l-4.11-12.4c-.61-4.05-1.5-9.84-.81-16.28Z"/>
        <g>
          <path class="cls-10" d="m67.45,173.82H25.53c-2.2-3.72-5.6-8.04-10.61-13.44C-6.41,137.37,1.39,107.37,1.39,107.37c0,0,13.65,27.43,32.53,37.32,3.11,1.63,6.36,2.77,9.71,3.25,6.74.96,11.73,3.31,15.35,6.55.16.14.32.28.47.43.95.9,1.8,1.84,2.55,2.86.56.71,1.05,1.47,1.51,2.23,0,0,.01,0,.01.02h0s0,.02,0,.03h0s.01.02.01.03c.12.21.24.42.35.63,2.17,3.98,3.23,8.52,3.56,13.09Z"/>
          <path class="cls-6" d="m46.62,173.82h-2.29c-2.11-5-5.41-9.07-8.16-11.89-2.69-2.75-4.87-4.31-4.93-4.35-.47-.33-.58-.98-.25-1.44.33-.47.97-.59,1.44-.26.18.13,1.43,1.02,3.16,2.57,3.28,2.94,8.29,8.29,11.03,15.36Z"/>
        </g>
      </g>
      <g>
        <g>
          <path class="cls-4" d="m127.18,86.51s5.84-5.61,5.82-11.15c-.02-5.54-3.8-3.9-5.82-9.07s-8.05-8.31-11.35-7.68c-3.3.63-10.28-12.22-19.74-9.95-9.46,2.27-8.64,14.36-12.71,16.12-4.07,1.76-2.94,8.94-.79,10.58,2.15,1.64,3.06,8.22,4.26,8.07,1.21-.15,40.33,3.08,40.33,3.08Z"/>
          <g>
            <path class="cls-9" d="m87.85,86.38s-3.67-4.88-6.4-.85c-2.73,4.04,1.13,15.97,7.82,13.05l-1.41-12.21Z"/>
            <path class="cls-8" d="m87.81,94.9c-.25,0-.47-.16-.54-.41-1.04-3.68-4.86-5.18-4.9-5.19-.29-.11-.44-.44-.33-.73.11-.29.44-.44.73-.33.18.07,4.4,1.7,5.59,5.94.08.3-.09.61-.39.69-.05.01-.1.02-.15.02Z"/>
            <path class="cls-8" d="m83.94,93.04c-.1,0-.21-.03-.31-.09-.26-.17-.34-.52-.17-.78.03-.04.71-1.07,2.12-1.7.28-.13.62,0,.75.28.13.28,0,.62-.28.74-1.09.49-1.63,1.28-1.63,1.29-.11.17-.29.26-.48.26Z"/>
          </g>
          <g>
            <path class="cls-9" d="m125.71,86.38s3.67-4.88,6.4-.85c2.73,4.04-1.13,15.97-7.82,13.05l1.41-12.21Z"/>
            <path class="cls-8" d="m125.76,94.9c.25,0,.47-.16.54-.41,1.04-3.68,4.86-5.18,4.9-5.19.29-.11.44-.44.33-.73-.11-.29-.44-.44-.73-.33-.18.07-4.4,1.7-5.59,5.94-.08.3.09.61.39.69.05.01.1.02.15.02Z"/>
            <path class="cls-8" d="m129.62,93.04c.1,0,.21-.03.31-.09.26-.17.34-.52.17-.78-.03-.04-.71-1.07-2.12-1.7-.28-.13-.62,0-.75.28-.13.28,0,.62.29.74,1.09.49,1.63,1.28,1.63,1.29.11.17.29.26.48.26Z"/>
          </g>
          <path class="cls-5" d="m115.82,108.7v11.86s-3.55,6.04-8.35,6.45c-4.79.42-9.05-5.2-9.05-5.2v-12.28l17.4-.83Z"/>
          <path class="cls-9" d="m115.82,108.7v5.26c-3.22,3.56-8.94,4.45-17.4,3.21v-7.64l17.4-.83Z"/>
          <path class="cls-5" d="m128.37,78.24c-.22,4.61-.66,10.37-1.54,14.98-.22,1.15-.47,2.23-.75,3.2-2.5,8.74-8.77,23.73-26.3,17.49-7.74-2.76-11.33-11.35-12.93-20.1-1.09-5.94-1.25-11.94-1.17-16.23.08-4.38,2.48-8.38,6.3-10.54,10.35-5.85,21.27-3.67,28.46-.91,4.99,1.91,8.18,6.8,7.93,12.11Z"/>
          <path class="cls-4" d="m126.81,93.22l-1.21-.08-.67-.05-.63-.04s-1.44,2.97-3.56,6.24c-2.13-4.66-12.37-1.27-12.37-1.27l-1.95.63-2.01-.63s-10.36-3.24-12.41,1.64c-1.25-1.9-2.27-4.06-2.74-6.33l-.59.12-.53.1h-.01l-1.12.23-.16.03s.01.04.02.11c.02.11.04.22.06.33.14.81.46,2.64.9,4.74.63,3.06,1.49,6.7,2.33,8.62,1.61,3.68,6,4.38,7.65,7.49.2.37.4.74.62,1.09.22.38.46.75.71,1.1,2.32,3.3,5.62,5.4,10.5,3.63,4.01-1.46,4.59-3.39,6.18-5.12.35-.38.75-.75,1.25-1.1,4.7-3.32,7.04-6.96,7.23-9.99.08-1.3.56-3.58,1.07-5.77.06-.27.13-.53.19-.8.59-2.46,1.18-4.62,1.25-4.88.01-.02.01-.03.01-.03h-.01Zm-20.39,7.01c11.74-2,9.64,4.85,9.57,5.1h-.01c-.79.76-1.6,1.4-2.41,1.83-1.96,1.06-3.16,1.59-4.04,1.84h-.02s-.01,0-.02,0c-1.15.36-1.75.25-2.76.3-.52.03-1.07,0-1.69-.09h-.03c-1.55-.2-3.35-.77-5.18-1.78-.8-.45-1.99-1.31-3.29-2.49,0,0-1.85-6.29,9.88-4.72Z"/>
          <path class="cls-4" d="m99.36,87.92c0,1.27-.65,2.29-1.46,2.29s-1.46-1.03-1.46-2.29.65-2.29,1.46-2.29,1.46,1.03,1.46,2.29Z"/>
          <path class="cls-4" d="m116.74,87.92c0,1.27-.65,2.29-1.46,2.29s-1.46-1.03-1.46-2.29.65-2.29,1.46-2.29,1.46,1.03,1.46,2.29Z"/>
          <path class="cls-4" d="m121.03,80.37s-6.04-2.38-10.69-.38l.47,2.58s6.83-.58,10.27.81c.31-.99.35-2-.04-3.02Z"/>
          <path class="cls-4" d="m92.31,80.39s6.09-2.4,10.77-.38l-.47,2.6s-6.88-.58-10.34.82c-.31-1-.36-2.01.04-3.04Z"/>
          <path class="cls-9" d="m106.98,97.53c.95,0,1.9-.37,2.05-.43.29-.12.43-.45.31-.73-.12-.29-.45-.43-.74-.31-.51.21-1.74.53-2.27.21-.1-.06-.24-.18-.28-.52-.2-1.97.34-8.56.34-8.63.03-.31-.21-.58-.52-.61-.31-.03-.58.21-.61.52-.02.28-.55,6.77-.34,8.84.08.78.49,1.18.82,1.38.36.22.8.29,1.23.29Z"/>
          <path class="cls-2" d="m99.77,101.36c.43,2.15,1.85,6.11,6.66,6.11s6.17-3.62,6.63-6.11h-13.29Z"/>
          <path class="cls-4" d="m128.37,78.24c-.22,4.61-.66,10.37-1.54,14.98l-2.53-.18s.61-3.89.89-6.43c.28-2.54.76-7.28-1.41-7.87-2.16-.59-.89-5.99-3.91-8.34-3.01-2.35-9.7-4.42-14.15-1.69-4.44,2.72-9.49,1.22-11.54,1.69-2.05.47-4.83,3.29-4.08,5.92.76,2.63-1.5,4.23-2.05,6.95-.55,2.72,1.2,10.05,1.2,10.05l-2.41.48c-1.09-5.94-1.25-11.94-1.17-16.23.08-4.38,2.48-8.38,6.3-10.54,10.35-5.85,21.27-3.67,28.46-.91,4.99,1.91,8.18,6.8,7.93,12.11Z"/>
        </g>
        <g>
          <path class="cls-6" d="m155.21,173.82H60.95c.32-5.99.66-11.42,1.05-16.03.05-.63.1-1.24.16-1.83h0c.02-.3.05-.58.08-.86.25-2.69.52-5.05.8-6.99h0c.35-2.4.73-4.18,1.13-5.24.13-.36.27-.64.41-.83,2.74-3.76,11-8.54,18.9-12.84.48-.26.95-.51,1.42-.77,1.78-.96,3.51-1.89,5.14-2.78,3.5-1.89,6.52-3.59,8.39-4.89v1.07s4.25,5.61,9.04,5.2c.31-.03.61-.08.91-.15.14-.03.28-.07.41-.11.14-.04.28-.09.42-.14.14-.05.28-.11.41-.17.12-.05.24-.1.36-.16.19-.09.37-.19.55-.29.22-.13.43-.26.64-.41.36-.24.72-.51,1.05-.8.11-.09.22-.19.33-.29.36-.32.7-.65,1-.98.24-.26.46-.51.67-.76.51-.6.91-1.16,1.18-1.55.06-.1.12-.18.17-.26.07-.11.12-.18.16-.25.01,0,.01,0,.01,0,2.06,1.45,5.76,3.44,10.05,5.7,1.2.63,2.43,1.28,3.69,1.94.47.24.93.49,1.4.74,8.74,4.62,18.16,9.83,20.99,13.7.02.03.05.07.07.11.19.3.36.74.53,1.32,1.22,4.11,2.11,15.15,2.74,29.59Z"/>
          <path class="cls-6" d="m169.98,173.82h-20.26l2.22-30.91.05-.73s9.02,16.48,17.99,31.64Z"/>
          <path class="cls-6" d="m219.83,163.17s-2.45,4.4-6.18,10.65h-17.04c.43-.44.87-.88,1.31-1.33,7.54-7.66,15.53-16.86,15.53-16.86l6.38,7.54Z"/>
          <g>
            <path class="cls-2" d="m125.79,126.41c-.27,1.81-.64,3.96-1.07,6.36-.19,1.07-.39,2.19-.6,3.37-.63,3.56-1.31,7.54-1.95,11.77-.17,1.12-.33,2.25-.48,3.41-.53,3.86-.99,7.89-1.31,11.95-.08,1.15-.16,2.28-.22,3.43-.13,2.37-.2,4.76-.2,7.12h-25.37c.09-1.36.13-2.79.14-4.3.01-1.1-.01-2.22-.04-3.39-.12-3.83-.44-7.96-.86-12.11-.11-1.13-.23-2.26-.36-3.39-.48-4.19-1.04-8.34-1.58-12.15-.17-1.17-.33-2.3-.49-3.4-.54-3.69-1.03-6.94-1.36-9.44,3.5-1.89,6.52-3.59,8.39-4.89v1.07s4.25,5.61,9.04,5.2c.31-.03.61-.08.91-.15.14-.03.28-.07.41-.11.14-.04.28-.09.42-.14.14-.05.28-.11.41-.17.12-.05.24-.1.36-.16.19-.09.37-.19.55-.29.22-.13.43-.26.64-.41.36-.24.72-.51,1.05-.8.11-.09.22-.19.33-.29.36-.32.7-.65,1-.98.24-.26.46-.51.67-.76.51-.6.91-1.16,1.18-1.55.06-.1.12-.18.17-.26.07-.11.12-.18.16-.25.01,0,.01,0,.01,0,2.06,1.45,5.76,3.44,10.05,5.7Z"/>
            <g>
              <path class="cls-12" d="m91.4,135.08c.16,1.1.33,2.23.49,3.4,4.3.1,9.35-.54,15.44-1.95,6.52-1.5,12.26-1.24,16.8-.4.21-1.17.41-2.3.6-3.37-4.91-.9-11.11-1.16-18.16.46-6.01,1.38-11.01,2.01-15.16,1.85Z"/>
              <path class="cls-12" d="m93.47,150.64c.13,1.13.25,2.26.36,3.38,3.86-.1,8.3-.74,13.49-1.94,5.39-1.24,10.26-1.27,14.36-.76.16-1.15.32-2.29.48-3.4-4.44-.55-9.73-.5-15.61.85-5.04,1.16-9.37,1.79-13.09,1.87Z"/>
              <path class="cls-12" d="m94.69,166.13c.04,1.16.05,2.29.05,3.39,3.65-.17,7.8-.8,12.59-1.91,4.74-1.09,9.07-1.24,12.83-.92.06-1.14.14-2.28.22-3.42-4.05-.33-8.71-.14-13.82,1.03-4.5,1.04-8.43,1.65-11.87,1.83Z"/>
            </g>
          </g>
          <g>
            <path class="cls-3" d="m125.48,169.23c.08,1.42.18,2.95.29,4.59h-1.51c-.12-1.6-.22-3.11-.3-4.5-.6-11.11,3.39-31.21,5.52-40.96.47.24.93.49,1.4.74-2.12,9.85-5.98,29.51-5.4,40.13Z"/>
            <path class="cls-3" d="m89.62,173.82h-1.52c.28-3.01.39-6,.2-8.81-.51-7.5-3.55-27.58-4.82-35.82.48-.26.95-.51,1.42-.77,1.21,7.88,4.38,28.77,4.91,36.47.2,2.86.09,5.89-.19,8.92Z"/>
          </g>
        </g>
        <g>
          <path class="cls-5" d="m72.57,173.82h-18.7c3-10.3,5.33-18.08,5.58-18.9.01-.05.02-.07.02-.07.82-.18,1.61-.13,2.36.1.14.04.27.09.41.14,1.7.68,3.22,2.28,4.54,4.28,3.61,5.48,5.66,13.94,5.79,14.45Z"/>
          <path class="cls-6" d="m74.46,172.59c-.06.38-.14.79-.23,1.23h-22.46c2.59-7.47,5.13-14.1,7.21-19.32.24-.6.47-1.17.7-1.73,1.07-2.65,2-4.87,2.73-6.57.33-.77.61-1.43.85-1.97.25-.59.45-1.05.59-1.37h2.76c5.42,3.44,9.26,20.85,7.85,29.73Z"/>
        </g>
      </g>
      <g>
        <g>
          <path class="cls-6" d="m384.75,173.82h-87.47c.79-15.91,1.8-27.62,3.12-30.45.05-.09.09-.16.12-.22l.07-.12c2.19-3.25,8.13-7.26,14.4-11.08h.01c2.5-1.53,5.06-3.02,7.45-4.43,2.99-1.75,6.56-3.57,8.6-4.93,2.97,2.39,5.13,4.56,9.55,4.41,1.7-.06,2.95-.45,3.95-1.04t.02,0c1.24-.74,2.08-1.79,2.85-2.9.01,0,.02-.03.03-.04.36-.5.7-1.03,1.09-1.54.06-.1.09-.15.09-.15,1.15.75,4.07,3.13,5.59,4.02,1.3.77,2.7,1.58,4.17,2.42,2,1.14,4.1,2.33,6.21,3.56,0,0,.01,0,.01,0,.29.16.56.33.85.5,3.54,2.07,7.03,4.22,9.93,6.27,2.89,2.04,5.19,4,6.32,5.7.16.25.32.63.48,1.14.72,2.41,1.33,7.7,1.82,14.94.28,4.08.52,8.77.74,13.93Z"/>
          <path class="cls-3" d="m328.79,147.78c-.36,0-.67-.25-.74-.61-.08-.41.19-.81.6-.88,19.2-3.63,24.99-15.95,25.05-16.07.17-.38.62-.55,1-.38.38.17.55.62.38,1-.24.54-6.18,13.16-26.14,16.94-.05,0-.1.01-.14.01Z"/>
        </g>
        <g>
          <path class="cls-5" d="m402.12,152.93s24.55-7.87,31.82-23.94c2.1-4.65-15.21-51.9-15.21-51.9l-8.36.4s2.38,16.39,3.83,25.67c1.19,7.63,3.11,16.75,3.75,19.75.14.65.22,1.01.22,1.01-.41.07-.82.15-1.24.23-11.47,2.32-26.12,9.78-26.12,9.78l11.31,18.98Z"/>
          <path class="cls-9" d="m424.34,128.47c.35.25.85.18,1.1-.17.26-.36.18-.85-.17-1.1-1.79-1.29-4.48-2.81-7.31-4.27.14.65.22,1.01.22,1.01-.41.07-.82.15-1.24.23,2.88,1.48,5.64,3.01,7.41,4.3Z"/>
          <path class="cls-6" d="m364.55,131.32s-7.43,17.38,11.48,27.06c13.09,6.7,42.9-10.79,42.9-10.79l-10.63-22.5s-27.27,11.22-43.75,6.23Z"/>
          <path class="cls-5" d="m414.45,50.54c-.74.52-.59,3.71-.26,6.72-.1.02-.21.03-.32.05-.88-4.01-2.63-10.84-4.13-9.53-.98.85.33,6.74,1.23,10.26-.18.06-.37.12-.55.17-1.13-4.18-3.56-12.23-5.17-10.66-1.08,1.04.99,8.13,2.14,11.75-.16.06-.32.12-.47.18-1.1-3.51-3.45-10.14-5.06-8.58-1.46,1.41,2.72,11.44,2.72,11.44h0l1.1,3.94s-1.3.56-3.33-1.73c-2.03-2.29-4.46-2.69-2.77.62,1.91,3.75,4.73,6.43,5.97,9.08,1.24,2.65,5.15,3.53,5.15,3.53l7.85-.38s1.52-13.23-1.41-19.53h0c-.5-3.75-1.39-8.22-2.67-7.32Z"/>
        </g>
        <g>
          <path class="cls-4" d="m317.36,81.04c0,13.33,8.23,22.51,21.59,22.51s22.68-9.87,22.68-23.2c0-3.68-.6-7.11-1.76-10.14-.07-.18-.14-.36-.21-.54-.14-.34-.29-.69-.45-1.02-.23-.51-.49-1.02-.77-1.5-3.48-6.24-9.72-10.21-18.1-10.21-16.03,0-22.99,10.78-22.99,24.11Z"/>
          <g>
            <path class="cls-9" d="m320.36,86.77s-3.71-4.94-6.47-.85c-2.76,4.08,1.14,16.14,7.9,13.2l-1.43-12.34Z"/>
            <path class="cls-8" d="m320.31,95.39c-.25,0-.48-.16-.55-.42-1.05-3.72-4.92-5.23-4.95-5.25-.29-.11-.44-.44-.33-.73.11-.29.44-.44.74-.33.18.07,4.44,1.72,5.65,6,.09.3-.09.62-.4.7-.05.01-.1.02-.15.02Z"/>
            <path class="cls-8" d="m316.41,93.51c-.11,0-.21-.03-.31-.09-.27-.17-.34-.52-.17-.79.03-.04.71-1.08,2.14-1.72.29-.13.63,0,.75.29.13.29,0,.62-.29.75-1.11.49-1.64,1.29-1.65,1.3-.11.17-.29.26-.48.26Z"/>
          </g>
          <g>
            <path class="cls-9" d="m358.63,86.77s3.71-4.94,6.47-.85c2.76,4.08-1.14,16.14-7.9,13.2l1.43-12.34Z"/>
            <path class="cls-8" d="m358.68,95.39c.25,0,.48-.16.55-.42,1.05-3.72,4.91-5.23,4.95-5.25.29-.11.44-.44.33-.73-.11-.29-.44-.44-.74-.33-.18.07-4.44,1.72-5.65,6-.08.3.09.62.4.7.05.01.1.02.15.02Z"/>
            <path class="cls-8" d="m362.58,93.51c.11,0,.21-.03.31-.09.27-.17.34-.52.17-.79-.03-.04-.71-1.08-2.14-1.72-.29-.13-.63,0-.75.29-.13.29,0,.62.29.75,1.11.49,1.64,1.29,1.65,1.3.11.17.29.26.48.26Z"/>
          </g>
          <path class="cls-5" d="m348.64,109.34v11.99s-3.59,6.11-8.44,6.52c-4.84.42-9.15-5.26-9.15-5.26v-12.41l17.59-.84Z"/>
          <path class="cls-9" d="m348.64,109.34v5.32c-3.25,3.6-9.03,4.5-17.59,3.24v-7.72l17.59-.84Z"/>
          <path class="cls-5" d="m361.31,78.55c-.22,4.66-.67,10.49-1.56,15.15-.22,1.16-.47,2.26-.75,3.24-2.53,8.83-8.86,23.99-26.58,17.68-7.83-2.79-11.45-11.48-13.07-20.32-1.1-6-1.26-12.07-1.18-16.41.09-4.43,2.51-8.47,6.37-10.65,10.46-5.91,21.5-3.71,28.76-.92,5.04,1.93,8.27,6.87,8.01,12.24Z"/>
          <path class="cls-4" d="m331.9,88.34c0,1.28-.66,2.32-1.48,2.32s-1.48-1.04-1.48-2.32.66-2.32,1.48-2.32,1.48,1.04,1.48,2.32Z"/>
          <path class="cls-4" d="m349.31,88.29c0,1.28-.66,2.32-1.48,2.32s-1.48-1.04-1.48-2.32.66-2.32,1.48-2.32,1.48,1.04,1.48,2.32Z"/>
          <path class="cls-4" d="m352.65,80.33s-4.66-1.84-8.25-.29l.36,1.99s5.27-.44,7.92.63c.24-.77.27-1.54-.03-2.33Z"/>
          <path class="cls-4" d="m325.49,80.33s4.66-1.84,8.25-.29l-.36,1.99s-5.27-.44-7.92.63c-.24-.77-.27-1.54.03-2.33Z"/>
          <path class="cls-9" d="m339.69,98.05c.96,0,1.92-.37,2.07-.43.29-.12.43-.45.31-.74-.12-.29-.45-.43-.74-.31-.52.21-1.75.54-2.29.22-.1-.06-.24-.18-.28-.53-.21-1.99.34-8.66.35-8.72.03-.31-.21-.59-.52-.61-.32-.03-.59.21-.62.52-.02.28-.56,6.84-.34,8.93.08.79.5,1.19.83,1.39.37.22.8.3,1.24.3Z"/>
          <path class="cls-2" d="m332.02,100.94c.95,3.29,3.65,6.57,7.37,6.61,3.71-.04,6.41-3.32,7.36-6.61h-14.73Z"/>
          <path class="cls-9" d="m339.07,111.12c1.48,0,2.73-.75,2.78-.78.27-.16.36-.51.19-.78-.16-.27-.51-.36-.78-.19,0,0-1.04.61-2.19.61-1.06,0-2.07-.6-2.08-.61-.27-.16-.62-.08-.79.19-.17.27-.08.62.19.78.05.03,1.28.78,2.68.78Z"/>
          <path class="cls-4" d="m360.71,86.87h-2.59c.29-2.59.7-7.16-1.44-7.81-6.75-2.07,2-6.82-1.05-9.19-3.04-2.38-10.62-1.36-15.89-1.53-5.3-.17-13.83-.1-15.89.38-2.07.47-.94,3.91-.18,6.57.77,2.65-2.54,5.59-3.1,8.35-.16.79-.13,1.96,0,3.23h-2.16c-.26-3.35-.29-6.47-.25-8.99.09-4.43,2.51-8.47,6.37-10.65,10.46-5.91,21.5-3.71,28.76-.92,5.04,1.93,8.27,6.87,8.01,12.24-.12,2.55-.31,5.46-.6,8.33Z"/>
          <g>
            <path class="cls-2" d="m336.41,86.99c-.09-.38-.22-.74-.39-1.08-1.02-2.22-3.26-3.76-5.86-3.76-1.85,0-3.52.78-4.69,2.02-.32.32-.59.68-.82,1.07-.19.29-.35.6-.47.92-.32.75-.49,1.58-.49,2.44,0,3.55,2.9,6.45,6.47,6.45,2.94,0,5.42-1.98,6.21-4.67h0c.16-.57.25-1.17.25-1.78,0-.56-.07-1.1-.21-1.62Zm-6.25,7.06c-3.01,0-5.46-2.44-5.46-5.44,0-1.64.73-3.1,1.88-4.1.96-.84,2.21-1.35,3.58-1.35,3.01,0,5.46,2.44,5.46,5.44,0,.31-.03.61-.08.91-.43,2.57-2.68,4.54-5.38,4.54Z"/>
            <path class="cls-2" d="m353.86,86.29c-.12-.32-.27-.63-.44-.92-1.12-1.92-3.2-3.22-5.59-3.22-2.6,0-4.85,1.55-5.87,3.77-.16.34-.29.7-.38,1.07-.14.52-.21,1.06-.21,1.62,0,3.55,2.9,6.45,6.46,6.45s6.47-2.9,6.47-6.45c0-.82-.15-1.6-.44-2.31Zm-6.03,7.76c-3.01,0-5.45-2.44-5.45-5.44s2.44-5.44,5.45-5.44,5.46,2.44,5.46,5.44-2.45,5.44-5.46,5.44Z"/>
            <path class="cls-2" d="m324.78,86.52c-.13,0-.26-.05-.35-.15h0s-2.97-2.87-6.82-1.97c-.27.06-.54-.1-.61-.38-.06-.27.11-.54.38-.6,4.41-1.02,7.63,2.11,7.76,2.24.2.2.2.51,0,.71-.1.1-.23.15-.36.15Z"/>
            <path class="cls-2" d="m353.33,86.52c-.16,0-.33-.08-.42-.23-.15-.23-.09-.54.15-.7.19-.13,4.77-3.07,8.66-2.43.27.05.46.3.42.58-.05.27-.3.46-.58.41-3.5-.58-7.9,2.25-7.95,2.28-.08.06-.18.08-.27.08Z"/>
            <path class="cls-2" d="m341.72,87.15s-1.21-1.63-2.78-1.63-2.64,1.61-2.65,1.63l-.84-.55c.06-.09,1.39-2.08,3.5-2.08s3.54,1.96,3.6,2.05l-.82.59Z"/>
          </g>
        </g>
        <g>
          <path class="cls-5" d="m255.9,173.82h-17.05c-3.72-6.25-6.17-10.65-6.17-10.65l6.38-7.54s6.89,7.93,13.92,15.21c.97,1.02,1.96,2.01,2.92,2.98Z"/>
          <path class="cls-5" d="m302.79,173.82h-20.14c8.19-13.6,16.4-28.08,17.75-30.45.05-.09.09-.16.12-.22l.07-.12,2.2,30.79Z"/>
          <path class="cls-6" d="m304.78,173.82h-23.83l19.57-30.67.07-.12c4.01,10.43,4.4,23.2,4.19,30.79Z"/>
        </g>
      </g>
      <g>
        <g>
          <path class="cls-10" d="m262.27,155.41c-.56,5.31-1.27,11.55-1.95,18.41h-73.23c-.2-1.82-.4-3.6-.6-5.32-1.77-15.34-3.46-26.68-2.46-30.22,0,0,.01-.02.01-.03.08-.3.18-.55.32-.73.01-.03.02-.05.03-.06.01,0,.01,0,.01,0,1.07-1.36,2.87-2.82,5.09-4.33.88-.6,1.81-1.2,2.79-1.79,2.33-1.41,4.91-2.83,7.5-4.22,2.73-1.46,5.47-2.86,7.96-4.16.65-.34,1.29-.67,1.9-1,.36-.19.7-.37,1.04-.55.88-.48,1.7-.93,2.45-1.36.25-.15.49-.29.72-.42.06-.04.11-.07.17-.1.24-.14.46-.28.67-.42.12-.07.24-.15.36-.23.09-.06.18-.11.26-.17.76.33,1.49.63,2.19.89.02,0,.03.02.04.03h.01s.01,0,.01,0c.01,0,.01,0,.01,0,.36.13.71.25,1.05.36.31.1.62.19.92.26.29.09.6.16.88.22.14.02.28.05.41.07.23.05.44.08.66.11.28.04.55.07.83.09.09,0,.18.02.28.02.32.02.63.03.95.03.07,0,.15,0,.23,0,.07,0,.15,0,.22,0,.33,0,.66,0,1-.03.12,0,.24,0,.35-.03h.02c.22-.02.45-.04.69-.08.23-.03.46-.06.7-.11.04,0,.09-.02.14-.03.1-.02.18-.03.28-.06.12-.02.25-.05.38-.09.26-.06.52-.13.79-.21.22-.06.44-.13.67-.2.22-.07.45-.14.68-.23.18-.06.37-.13.55-.2.57-.21,1.15-.45,1.76-.71,0,0,0,0,.01,0,.07-.02.14-.06.22-.09.02,0,.04.03.06.04s.03.02.05.04h.01c.63.41,1.38.87,2.23,1.35.28.16.57.32.87.49.36.2.74.4,1.12.62.52.28,1.07.57,1.63.87,2.43,1.28,5.19,2.68,7.98,4.15,4.1,2.15,8.26,4.44,11.5,6.66,2.11,1.45,3.84,2.86,4.91,4.2h0s.01.03.02.04c.19.25.34.63.44,1.12.01,0,.01.02.01.03.06.25.1.52.14.83.34,2.98-.15,8.7-.94,16.28Z"/>
          <path class="cls-6" d="m220.58,156.59c-.35,0-.67-.25-.74-.61-.08-.41.19-.8.6-.88,19.04-3.6,24.78-15.82,24.84-15.94.17-.38.62-.54.99-.37.38.17.55.61.37.99-.24.53-6.12,13.05-25.93,16.8-.05,0-.09.01-.14.01Z"/>
          <path class="cls-5" d="m246.2,126.25c-3.78,8.6-13.07,17.5-25.16,15.42-11.7-2.02-17.25-8.19-21.26-14.57,6.15-3.28,12.4-6.31,15.53-8.39,3.1,1.35,5.58,2.08,8.24,2.07.07,0,.15,0,.23,0,.07,0,.15,0,.23,0,2.66.01,5.14-.73,8.24-2.07,2.9,1.92,8.37,4.61,13.95,7.54Z"/>
          <path class="cls-2" d="m236.09,119.34c-.33,0-.6.26-.6.59,0,.48-.2,11.85-10.43,12.73-9.49.82-13.42-8.24-14.63-11.99-.07-.22-.28-.37-.51-.37h-.11c-.36,0-.62.35-.51.7,1.29,3.88,5.43,13.24,15.1,12.9.25,0,.51-.02.76-.05,11.32-.97,11.52-13.78,11.52-13.91,0-.33-.26-.6-.59-.6Z"/>
        </g>
        <g>
          <path class="cls-4" d="m243.32,58.94s9.14,14.12,8.14,28.83c-1,14.71,1.35,31.69-11.85,30.94-13.2-.75-36.74,5.28-44.23-6.18-7.48-11.46,47.94-53.59,47.94-53.59Z"/>
          <path class="cls-11" d="m246.71,84.9s2.37,21.32-7.77,27.19c-10.15,5.87-17.49-.68-17.49-.68,0,0,21.39-29.72,25.26-26.51Z"/>
          <g>
            <g>
              <path class="cls-9" d="m204.57,84.8s-3.64-4.84-6.35-.84c-2.71,4.01,1.12,15.83,7.75,12.95l-1.4-12.11Z"/>
              <path class="cls-8" d="m204.52,93.26c-.24,0-.47-.16-.54-.41-1.03-3.65-4.82-5.13-4.86-5.15-.29-.11-.43-.43-.32-.72.11-.29.43-.43.72-.32.18.07,4.36,1.69,5.54,5.89.08.3-.09.61-.39.69-.05.01-.1.02-.15.02Z"/>
              <path class="cls-8" d="m200.69,91.42c-.1,0-.21-.03-.3-.09-.26-.17-.34-.51-.17-.77.03-.04.7-1.06,2.1-1.69.28-.13.61,0,.74.28.13.28,0,.61-.28.74-1.09.48-1.61,1.27-1.62,1.28-.11.17-.29.26-.47.26Z"/>
            </g>
            <g>
              <path class="cls-9" d="m242.11,84.8s3.64-4.84,6.35-.84c2.71,4.01-1.12,15.83-7.75,12.95l1.4-12.11Z"/>
              <path class="cls-8" d="m242.16,93.26c.25,0,.47-.16.54-.41,1.03-3.65,4.82-5.13,4.86-5.15.29-.11.43-.43.32-.72-.11-.29-.43-.43-.72-.32-.18.07-4.36,1.69-5.54,5.89-.08.3.09.61.39.69.05.01.1.02.15.02Z"/>
              <path class="cls-8" d="m245.99,91.42c.1,0,.21-.03.3-.09.26-.17.34-.51.17-.77-.03-.04-.7-1.06-2.1-1.69-.28-.13-.61,0-.74.28-.13.28,0,.61.28.74,1.09.48,1.61,1.27,1.62,1.28.11.17.29.26.47.26Z"/>
            </g>
            <path class="cls-5" d="m232.31,106.95v11.76s-3.52,5.99-8.28,6.4c-4.75.41-8.98-5.16-8.98-5.16v-12.18l17.25-.83Z"/>
            <path class="cls-9" d="m232.31,106.95v5.22c-3.19,3.53-8.86,4.78-17.25,3.55v-7.94s17.25-.83,17.25-.83Z"/>
            <path class="cls-5" d="m244.75,76.73c-.22,4.57-.66,10.29-1.53,14.86-.22,1.14-.47,2.21-.74,3.17-2.48,8.67-8.69,23.53-26.08,17.34-7.68-2.73-11.24-11.26-12.82-19.93-1.08-5.89-1.24-11.84-1.16-16.1.08-4.34,2.46-8.31,6.25-10.45,10.26-5.8,21.09-3.64,28.22-.91,4.95,1.89,8.12,6.74,7.86,12.01Z"/>
            <path class="cls-4" d="m215.68,85.49c0,1.26-.65,2.27-1.45,2.27s-1.45-1.02-1.45-2.27.65-2.27,1.45-2.27,1.45,1.02,1.45,2.27Z"/>
            <path class="cls-4" d="m233.59,85.49c0,1.26-.65,2.27-1.45,2.27s-1.45-1.02-1.45-2.27.65-2.27,1.45-2.27,1.45,1.02,1.45,2.27Z"/>
            <path class="cls-4" d="m211.36,78.73c1.2-.34,3.64-.92,6.2-.93.68,0,1.19.6,1.07,1.26v.02c-.1.53-.57.9-1.11.88-1.75-.08-6.33.16-8.49,1.04-.04-.38.18-.79.49-1.15.48-.55,1.13-.92,1.84-1.12Z"/>
            <path class="cls-4" d="m234.79,78.77c-1.2-.34-3.64-.92-6.2-.93-.67,0-1.19.6-1.07,1.26v.02c.1.53.57.9,1.11.88,1.75-.08,6.33.16,8.49,1.04.04-.38-.18-.79-.49-1.15-.48-.55-1.13-.92-1.84-1.12Z"/>
            <path class="cls-9" d="m223.54,95.87c-.43,0-.86-.08-1.22-.29-.33-.2-.73-.59-.81-1.36-.21-2.05.31-8.49.34-8.77.03-.31.3-.54.6-.51.31.03.54.3.51.6,0,.07-.54,6.61-.34,8.56.04.34.17.46.28.52.53.31,1.74,0,2.25-.21.29-.12.61.02.73.31.12.29-.02.61-.31.73-.15.06-1.08.43-2.03.43Z"/>
            <path class="cls-2" d="m216.42,99.4c.42,2.13,1.83,6.04,6.58,6.04s6.09-3.57,6.55-6.04h-13.12Z"/>
            <path class="cls-9" d="m222.93,108.7c-1.37,0-2.58-.74-2.63-.77-.26-.16-.34-.51-.18-.77.16-.26.51-.34.77-.18h0s1,.6,2.04.6c1.13,0,2.14-.6,2.15-.6.27-.16.61-.07.77.19.16.26.08.61-.19.77-.05.03-1.28.76-2.73.76Z"/>
          </g>
          <path class="cls-4" d="m247,75.82c-.18.51-.68.84-1.35,1.03.05,1.23-.08,2.72-.2,4.14-.69,8.08-2.74,9.5-3.2,7.5-.3-1.33-.29-8.93-.14-11.41-1.6-.1-2.97-.37-2.97-.37l-1.88-7.84-.66,7.74c-2.82.98-9.39-.59-9.39-.59l-2.21-7.73-1.36,7.44c-4.23,2.05-9.51.69-9.51.69l-1.21-8.02-2.8,8.02s-9.02,3.23-9.12,0c-.06-1.88,1.32-7.16,2.48-11.26,1.27-4.47,4.21-8.24,8.19-10.37,11.19-5.99,23.02-2.8,27.07-.39,8.61,5.12,8.25,21.42,8.25,21.42Z"/>
          <path class="cls-4" d="m205.97,59.54s-7.42,8.8-9.87,24.53c-2.44,15.73-5.82,27.34,3.68,32.54,10.29,5.62,9.4-5.91,9.25-9.04-.15-3.13-8.9-11.7-3.06-35.81,1.89-7.79,0-12.22,0-12.22Z"/>
          <path class="cls-11" d="m204.23,92.03v.02c0,.12.01.74.06,1.72.02.61.06,1.35.12,2.18.35,5.3,1.38,14.45,4.42,17.62,1.2,1.26,3.51,1.88,6.23,2.14v-4.16c-2.87-1.36-5.1-3.59-6.84-6.33-1.07-2.31-2.92-5.93-3.78-11.62l-.21-1.57Z"/>
          <path class="cls-2" d="m244.88,97.18c0,.72-.59,1.31-1.31,1.31s-1.31-.59-1.31-1.31.59-1.31,1.31-1.31,1.31.59,1.31,1.31Z"/>
        </g>
        <g>
          <path class="cls-10" d="m272.73,173.82h-15.96c-5.51-22.52.03-30.13,3.87-34.46.75-.84,1.43-1.56,1.96-2.23.01,0,.01.02.02.03.05.12.2.51.44,1.12.01,0,.01.02.01.03.1.23.2.5.32.8,2.02,5.25,7.41,20.16,9.34,34.72Z"/>
          <g>
            <path class="cls-10" d="m193.75,173.82h-18.27c-.22.04-.44.07-.64.08,0-.03,0-.05,0-.08.09-.73.18-1.46.28-2.17,2.35-17.05,7.5-30.05,8.9-33.37,0,0,.01-.02.01-.03.16-.37.27-.62.32-.73.01-.03.02-.05.03-.06,3.99,6.55,8.49,17.98,8.49,17.98l.69,14.64.18,3.75Z"/>
            <path class="cls-5" d="m256.59,173.82h-9.28c1.64-1.45,3.55-2.58,5.67-2.98.89-.16,1.81-.2,2.76-.07l.85,3.05Z"/>
          </g>
          <path class="cls-5" d="m199.56,173.82h-23.32c.38-.22.72-.37.97-.47-.43.15-1.1.35-1.73.47-.22.04-.44.07-.64.08-.29.02-.54,0-.72-.08-.25-.1-.35-.33-.2-.72.14-.38.56-.91,1.21-1.46,1.9-1.61,5.86-3.49,11.36-3.15,1.39.08,2.88.31,4.47.72.92.24,1.79.53,2.61.86,1.65.67,3.1,1.51,4.35,2.42.59.43,1.14.88,1.64,1.33Z"/>
        </g>
      </g>
      <g>
        <g>
          <g>
            <path class="cls-6" d="m301.35,26.99c-3.71,0-6.72,3.01-6.72,6.7s3.01,6.69,6.72,6.69,6.71-3,6.71-6.69-3.01-6.7-6.71-6.7Zm0,11.29c-2.55,0-4.61-2.05-4.61-4.59s2.06-4.6,4.61-4.6,4.6,2.06,4.6,4.6-2.06,4.59-4.6,4.59Z"/>
            <path class="cls-10" d="m359.92,15.63c-3.7,0-6.71,3-6.71,6.69s3.01,6.69,6.71,6.69,6.71-3,6.71-6.69-3.01-6.69-6.71-6.69Zm0,11.29c-2.54,0-4.61-2.06-4.61-4.6s2.07-4.6,4.61-4.6,4.61,2.06,4.61,4.6-2.07,4.6-4.61,4.6Z"/>
            <g>
              <g>
                <path class="cls-6" d="m368.22,50.77c-.58,0-1.05-.47-1.05-1.05v-4.63c0-.58.47-1.05,1.05-1.05s1.05.47,1.05,1.05v4.63c0,.58-.47,1.05-1.05,1.05Z"/>
                <path class="cls-6" d="m368.22,58.87c-.58,0-1.05-.47-1.05-1.05v-4.63c0-.58.47-1.05,1.05-1.05s1.05.47,1.05,1.05v4.63c0,.58-.47,1.05-1.05,1.05Z"/>
              </g>
              <g>
                <path class="cls-6" d="m374.74,52.5h-4.17c-.58,0-1.05-.47-1.05-1.05s.47-1.05,1.05-1.05h4.17c.58,0,1.05.47,1.05,1.05s-.47,1.05-1.05,1.05Z"/>
                <path class="cls-6" d="m365.87,52.5h-4.17c-.58,0-1.05-.47-1.05-1.05s.47-1.05,1.05-1.05h4.17c.58,0,1.05.47,1.05,1.05s-.47,1.05-1.05,1.05Z"/>
              </g>
            </g>
            <g>
              <g>
                <path class="cls-7" d="m332.76,22.71c-.58,0-1.05-.47-1.05-1.05v-4.63c0-.58.47-1.05,1.05-1.05s1.05.47,1.05,1.05v4.63c0,.58-.47,1.05-1.05,1.05Z"/>
                <path class="cls-7" d="m332.76,30.82c-.58,0-1.05-.47-1.05-1.05v-4.63c0-.58.47-1.05,1.05-1.05s1.05.47,1.05,1.05v4.63c0,.58-.47,1.05-1.05,1.05Z"/>
              </g>
              <g>
                <path class="cls-7" d="m339.27,24.45h-4.17c-.58,0-1.05-.47-1.05-1.05s.47-1.05,1.05-1.05h4.17c.58,0,1.05.47,1.05,1.05s-.47,1.05-1.05,1.05Z"/>
                <path class="cls-7" d="m330.41,24.45h-4.17c-.58,0-1.05-.47-1.05-1.05s.47-1.05,1.05-1.05h4.17c.58,0,1.05.47,1.05,1.05s-.47,1.05-1.05,1.05Z"/>
              </g>
            </g>
          </g>
          <g>
            <path class="cls-6" d="m68.09,10.01c-3.7,0-6.71,3-6.71,6.69s3.01,6.7,6.71,6.7,6.72-3.01,6.72-6.7-3.02-6.69-6.72-6.69Zm0,11.29c-2.54,0-4.61-2.06-4.61-4.6s2.07-4.6,4.61-4.6,4.61,2.06,4.61,4.6-2.07,4.6-4.61,4.6Z"/>
            <path class="cls-10" d="m41.13,35.53c-3.7,0-6.71,3-6.71,6.69s3.01,6.7,6.71,6.7,6.71-3.01,6.71-6.7-3.01-6.69-6.71-6.69Zm0,11.29c-2.54,0-4.61-2.06-4.61-4.6s2.07-4.6,4.61-4.6,4.61,2.06,4.61,4.6-2.07,4.6-4.61,4.6Z"/>
            <g>
              <g>
                <path class="cls-6" d="m20.46,51.62c.58,0,1.05-.47,1.05-1.05v-4.63c0-.58-.47-1.05-1.05-1.05s-1.05.47-1.05,1.05v4.63c0,.58.47,1.05,1.05,1.05Z"/>
                <path class="cls-6" d="m20.46,59.72c.58,0,1.05-.47,1.05-1.05v-4.63c0-.58-.47-1.05-1.05-1.05s-1.05.47-1.05,1.05v4.63c0,.58.47,1.05,1.05,1.05Z"/>
              </g>
              <g>
                <path class="cls-6" d="m13.94,53.35h4.17c.58,0,1.05-.47,1.05-1.05s-.47-1.05-1.05-1.05h-4.17c-.58,0-1.05.47-1.05,1.05s.47,1.05,1.05,1.05Z"/>
                <path class="cls-6" d="m22.81,53.35h4.17c.58,0,1.05-.47,1.05-1.05s-.47-1.05-1.05-1.05h-4.17c-.58,0-1.05.47-1.05,1.05s.47,1.05,1.05,1.05Z"/>
              </g>
            </g>
            <g>
              <g>
                <path class="cls-7" d="m44.73,16.02c.58,0,1.05-.47,1.05-1.05v-4.63c0-.58-.47-1.05-1.05-1.05s-1.05.47-1.05,1.05v4.63c0,.58.47,1.05,1.05,1.05Z"/>
                <path class="cls-7" d="m44.73,24.12c.58,0,1.05-.47,1.05-1.05v-4.63c0-.58-.47-1.05-1.05-1.05s-1.05.47-1.05,1.05v4.63c0,.58.47,1.05,1.05,1.05Z"/>
              </g>
              <g>
                <path class="cls-7" d="m38.21,17.76h4.17c.58,0,1.05-.47,1.05-1.05s-.47-1.05-1.05-1.05h-4.17c-.58,0-1.05.47-1.05,1.05s.47,1.05,1.05,1.05Z"/>
                <path class="cls-7" d="m47.07,17.76h4.17c.58,0,1.05-.47,1.05-1.05s-.47-1.05-1.05-1.05h-4.17c-.58,0-1.05.47-1.05,1.05s.47,1.05,1.05,1.05Z"/>
              </g>
            </g>
          </g>
        </g>
        <g>
          <g>
            <path class="cls-1" d="m245.5,17.19c-.12.01-.25,0-.37-.05-1.28-.54-2.03-.79-2.03-.79-.39-.13-.6-.55-.47-.94.13-.39.55-.6.95-.47.03.01.8.27,2.14.83.38.16.56.6.4.98-.11.26-.35.42-.61.45Z"/>
            <g>
              <path class="cls-1" d="m283.61,57.18c.51,1.35.98,2.75,1.42,4.15.11.35.44.56.79.52.05,0,.09-.01.14-.03.39-.12.62-.54.49-.93-.44-1.43-.93-2.85-1.44-4.23-.14-.39-.57-.58-.96-.44-.39.14-.58.57-.44.96Z"/>
              <path class="cls-1" d="m286.19,65.55c.34,1.4.65,2.84.92,4.29.07.39.43.65.81.61.02,0,.04,0,.06,0,.41-.08.67-.46.6-.87-.27-1.47-.59-2.94-.94-4.37-.1-.4-.5-.65-.9-.55-.4.1-.65.5-.55.9Z"/>
              <path class="cls-1" d="m289.35,88.07c.37-.04.66-.35.67-.73.02-1.5.01-3-.03-4.46-.01-.41-.36-.74-.77-.72-.42.01-.74.36-.72.77.04,1.44.05,2.92.03,4.39,0,.41.32.75.74.76.03,0,.06,0,.09,0Z"/>
              <path class="cls-1" d="m288.44,73.33c-.41.05-.7.43-.64.84.09.67.17,1.35.24,2.02.08.77.15,1.56.22,2.34.03.41.39.72.8.69,0,0,.01,0,.02,0,.4-.04.7-.4.67-.8-.06-.8-.14-1.6-.22-2.38-.07-.68-.15-1.37-.24-2.06-.05-.4-.42-.69-.82-.65,0,0-.01,0-.02,0Z"/>
              <path class="cls-1" d="m281.94,53.13c.14.3.45.47.76.44.08,0,.15-.03.23-.06.38-.17.55-.61.38-.99-.61-1.36-1.27-2.71-1.96-4.02-.19-.36-.64-.5-1.01-.31-.37.19-.51.64-.31,1.01.68,1.28,1.32,2.61,1.92,3.94Z"/>
              <path class="cls-1" d="m249.11,18.99c1.28.65,2.58,1.37,3.85,2.12.14.09.3.12.46.1.23-.02.44-.15.57-.36.21-.35.09-.81-.26-1.02-1.3-.77-2.62-1.49-3.93-2.16-.37-.19-.82-.04-1.01.32-.19.37-.04.82.33,1Z"/>
              <path class="cls-1" d="m260.25,26.01c.16.12.35.17.53.15.2-.02.39-.12.52-.29.25-.33.19-.8-.14-1.05-1.18-.9-2.41-1.78-3.64-2.61-.34-.23-.81-.14-1.04.2-.23.34-.14.8.2,1.04,1.21.81,2.41,1.68,3.57,2.56Z"/>
              <path class="cls-1" d="m272.81,38.21c.17.21.42.3.66.28.14-.01.27-.07.39-.16.32-.26.37-.73.12-1.05-.93-1.16-1.91-2.3-2.91-3.4-.28-.3-.75-.33-1.06-.05-.31.28-.33.75-.05,1.05.98,1.08,1.94,2.2,2.85,3.33Z"/>
              <path class="cls-1" d="m266.91,31.73c.17.16.39.23.6.21.17-.02.33-.09.46-.22.29-.29.28-.77-.01-1.05-1.06-1.03-2.18-2.05-3.31-3.02-.31-.27-.79-.23-1.05.08-.27.31-.23.78.08,1.05,1.11.95,2.2,1.95,3.24,2.96Z"/>
              <path class="cls-1" d="m277.86,45.38c.16.25.44.38.72.35.11-.01.21-.05.31-.11.35-.21.46-.67.25-1.02-.78-1.27-1.6-2.53-2.46-3.74-.24-.34-.7-.42-1.04-.18-.34.24-.42.7-.18,1.04.84,1.19,1.65,2.42,2.41,3.66Z"/>
            </g>
          </g>
          <g>
            <polygon class="cls-10" points="245.49 12.09 248.76 0 208.66 .34 245.49 12.09"/>
            <polygon class="cls-6" points="208.66 .34 243.54 15 243.63 15.04 245.13 17.52 245.49 12.09 208.66 .34"/>
            <polygon class="cls-6" points="245.13 17.52 241.88 17.01 243.63 15.04 245.13 17.52"/>
            <polygon class="cls-10" points="239.24 13.2 243.63 15.04 234.59 25.2 208.66 .34 239.24 13.2"/>
          </g>
        </g>
      </g>
    </g>
  </g>
</svg>