<?xml version="1.0" encoding="UTF-8"?>
<svg xmlns="http://www.w3.org/2000/svg" viewBox="0 0 503.06 500">
  <defs>
    <style>
      .cls-1 {
        fill: #fff;
      }

      .cls-2 {
        fill: #e58563;
      }

      .cls-3 {
        fill: #0061ee;
      }

      .cls-4 {
        fill: #ee5155;
      }

      .cls-5 {
        fill: #39393b;
      }

      .cls-6 {
        fill: #d2d7e8;
      }

      .cls-7 {
        fill: #2d4fc6;
      }

      .cls-8 {
        fill: #ebac28;
      }

      .cls-9 {
        fill: #525ceb;
      }

      .cls-10 {
        fill: #f7a784;
      }

      .cls-11 {
        fill: #2e61e5;
      }

      .cls-12 {
        fill: #ff8860;
      }

      .cls-13 {
        fill: #f4c167;
      }

      .cls-14 {
        fill: #90a1d3;
      }

      .cls-15 {
        fill: #4db971;
      }

      .cls-16 {
        fill: #262628;
      }
    </style>
  </defs>
  <g id="BACKGROUND">
    <rect class="cls-6" x="3.06" width="500" height="500"/>
  </g>
  <g id="OBJECTS">
    <g>
      <g>
        <g>
          <path class="cls-1" d="m77.7,290.7s4.14,4.63,1.49,15.88h106.88c4.14,0,9.27-2.48,9.6-9.43.33-6.95-9.27-6.95-12.9-7.28-3.64-.33-105.06.83-105.06.83Z"/>
          <path class="cls-11" d="m75.83,291.54h107.64c6.07,0,9.92,1.23,9.75,5.89-.14,3.59-1.02,6.27-7.72,6.27s-107.78,1.04-107.78,1.04l-1.26,3.56h110.15c5.24,0,11.52-1.26,11.52-10.68s-9.42-10.26-11.94-10.47-112.25.21-112.25.21l1.88,4.19Z"/>
          <path class="cls-5" d="m182.45,295.21c-6.5-.37-13.05-.28-19.56-.34-6.55-.07-13.1-.02-19.65-.02-13.01,0-26.02.06-39.03.18-7.33.07-14.66.48-21.99.49-.32,0-.28.49.04.49,6.6.01,13.2.36,19.8.47,6.5.11,13.01.12,19.51.14,12.98.05,25.96.07,38.94.05,7.27-.01,14.6.06,21.87-.36.69-.04.79-1.06.07-1.1Z"/>
          <path class="cls-5" d="m165.56,300.12c-9.94-.33-19.9-.28-29.84-.3-9.85-.02-19.7.08-29.55.21-5.62.07-11.24.14-16.86.2-.38,0-.39.67,0,.67,19.81.24,39.62.5,59.43.34,5.62-.04,11.25-.05,16.87-.23.5-.02.47-.87-.03-.88Z"/>
        </g>
        <g>
          <path class="cls-1" d="m62.5,311.6s4.14,4.63,1.49,15.88h106.88c4.14,0,9.26-2.48,9.6-9.43.33-6.95-9.27-6.95-12.9-7.28-3.64-.33-105.06.83-105.06.83Z"/>
          <path class="cls-8" d="m60.64,312.44h107.64c6.07,0,9.92,1.23,9.75,5.89-.14,3.59-1.02,6.27-7.72,6.27s-107.78,1.04-107.78,1.04l-1.26,3.56h110.15c5.24,0,11.52-1.26,11.52-10.68s-9.42-10.26-11.94-10.47-112.25.21-112.25.21l1.88,4.19Z"/>
          <path class="cls-5" d="m167.26,316.11c-6.5-.37-13.05-.28-19.56-.34-6.55-.07-13.1-.02-19.65-.02-13.01,0-26.02.06-39.03.18-7.33.07-14.66.48-21.99.49-.32,0-.28.49.04.49,6.6.01,13.2.36,19.8.47,6.5.11,13.01.12,19.51.14,12.98.05,25.96.07,38.94.05,7.27-.01,14.6.06,21.87-.36.69-.04.79-1.06.07-1.1Z"/>
          <path class="cls-5" d="m150.36,321.02c-9.94-.33-19.9-.28-29.84-.3-9.85-.02-19.7.08-29.55.21-5.62.07-11.24.14-16.86.2-.38,0-.39.67,0,.67,19.81.24,39.62.5,59.43.34,5.62-.04,11.25-.05,16.87-.23.5-.02.47-.87-.03-.88Z"/>
        </g>
        <g>
          <path class="cls-1" d="m82.91,332.54s4.4,4.93,1.59,16.91h113.81c4.4,0,9.87-2.64,10.22-10.04.35-7.4-9.87-7.4-13.74-7.75-3.88-.35-111.88.88-111.88.88Z"/>
          <path class="cls-4" d="m80.92,333.43h114.62c6.47,0,10.57,1.31,10.38,6.27-.15,3.82-1.09,6.68-8.22,6.68s-114.78,1.1-114.78,1.1l-1.34,3.79h117.3c5.58,0,12.27-1.34,12.27-11.37s-10.04-10.93-12.71-11.15c-2.68-.22-119.53.22-119.53.22l2.01,4.46Z"/>
          <path class="cls-5" d="m194.45,337.34c-6.93-.39-13.9-.29-20.83-.36-6.97-.07-13.95-.03-20.92-.02-13.85,0-27.71.06-41.56.19-7.81.07-15.61.51-23.41.52-.34,0-.29.53.04.53,7.02.01,14.06.38,21.09.5,6.92.12,13.85.13,20.78.15,13.82.05,27.64.08,41.47.05,7.74-.01,15.55.06,23.28-.38.74-.04.85-1.13.07-1.18Z"/>
          <path class="cls-5" d="m176.47,342.57c-10.58-.35-21.19-.3-31.78-.32-10.49-.02-20.98.09-31.47.22-5.99.08-11.97.14-17.96.21-.4,0-.42.71,0,.71,21.1.25,42.19.53,63.28.36,5.99-.05,11.98-.05,17.96-.25.53-.02.5-.92-.03-.94Z"/>
        </g>
        <g>
          <path class="cls-1" d="m186.95,375.99s-4.14,4.63-1.49,15.88h-106.88c-4.14,0-9.26-2.48-9.6-9.43-.33-6.95,9.26-6.95,12.9-7.28,3.64-.33,105.06.83,105.06.83Z"/>
          <path class="cls-11" d="m188.81,376.83h-107.64c-6.07,0-9.92,1.23-9.75,5.89.14,3.59,1.02,6.27,7.72,6.27s107.78,1.04,107.78,1.04l1.26,3.56h-110.15c-5.24,0-11.52-1.26-11.52-10.68s9.42-10.26,11.94-10.47c2.51-.21,112.25.21,112.25.21l-1.88,4.19Z"/>
          <path class="cls-5" d="m82.19,380.5c6.5-.37,13.05-.28,19.56-.34,6.55-.07,13.1-.02,19.65-.02,13.01,0,26.02.06,39.03.18,7.33.07,14.66.48,21.99.49.32,0,.28.49-.04.49-6.6.01-13.2.36-19.8.47-6.5.11-13.01.12-19.51.14-12.98.05-25.96.07-38.94.05-7.27-.01-14.6.06-21.87-.36-.69-.04-.79-1.06-.07-1.1Z"/>
          <path class="cls-5" d="m99.08,385.41c9.94-.33,19.9-.28,29.84-.3,9.85-.02,19.7.08,29.55.21,5.62.07,11.24.14,16.86.2.38,0,.39.67,0,.67-19.81.24-39.62.5-59.43.34-5.62-.04-11.25-.05-16.87-.23-.5-.02-.47-.87.03-.88Z"/>
        </g>
        <g>
          <path class="cls-1" d="m202.14,396.89s-4.14,4.63-1.49,15.88h-106.88c-4.14,0-9.27-2.48-9.6-9.43s9.27-6.95,12.9-7.28,105.06.83,105.06.83Z"/>
          <path class="cls-8" d="m204,397.73h-107.64c-6.07,0-9.92,1.23-9.75,5.89.14,3.59,1.02,6.27,7.72,6.27s107.78,1.04,107.78,1.04l1.26,3.56h-110.15c-5.24,0-11.52-1.26-11.52-10.68s9.42-10.26,11.94-10.47c2.51-.21,112.25.21,112.25.21l-1.88,4.19Z"/>
          <path class="cls-5" d="m97.39,401.4c6.5-.37,13.05-.28,19.56-.34,6.55-.07,13.1-.02,19.65-.02,13.01,0,26.02.06,39.02.18,7.33.07,14.66.48,21.99.49.32,0,.28.49-.04.49-6.6.01-13.2.36-19.8.47-6.5.11-13.01.12-19.51.14-12.98.05-25.96.07-38.94.05-7.27-.01-14.6.06-21.87-.36-.69-.04-.79-1.06-.07-1.1Z"/>
          <path class="cls-5" d="m114.28,406.31c9.94-.33,19.9-.28,29.84-.3,9.85-.02,19.7.08,29.55.21,5.62.07,11.24.14,16.86.2.38,0,.39.67,0,.67-19.81.24-39.62.5-59.43.34-5.62-.04-11.25-.05-16.87-.23-.5-.02-.47-.87.03-.88Z"/>
        </g>
        <g>
          <path class="cls-1" d="m181.73,417.83s-4.4,4.93-1.59,16.91h-113.81c-4.4,0-9.87-2.64-10.22-10.04-.35-7.4,9.87-7.4,13.74-7.75,3.88-.35,111.88.88,111.88.88Z"/>
          <path class="cls-4" d="m183.72,418.72h-114.62c-6.47,0-10.57,1.31-10.38,6.27.15,3.82,1.09,6.68,8.22,6.68s114.78,1.1,114.78,1.1l1.34,3.79h-117.3c-5.57,0-12.27-1.34-12.27-11.37s10.04-10.93,12.71-11.15c2.68-.22,119.53.22,119.53.22l-2.01,4.46Z"/>
          <path class="cls-5" d="m70.19,422.63c6.93-.39,13.9-.29,20.83-.36,6.97-.07,13.95-.03,20.92-.02,13.85,0,27.71.06,41.56.19,7.81.07,15.61.51,23.41.52.34,0,.29.53-.04.53-7.02.01-14.06.38-21.09.5-6.92.12-13.85.13-20.78.15-13.82.05-27.64.08-41.46.05-7.74-.01-15.55.06-23.28-.38-.74-.04-.85-1.13-.07-1.18Z"/>
          <path class="cls-5" d="m88.17,427.85c10.58-.35,21.19-.3,31.78-.32,10.49-.02,20.98.09,31.47.22,5.99.08,11.97.15,17.96.21.4,0,.42.71,0,.71-21.1.25-42.19.53-63.28.36-5.99-.05-11.98-.05-17.96-.25-.53-.02-.5-.92.03-.94Z"/>
        </g>
        <g>
          <path class="cls-3" d="m114.51,351.82h77.24c3.9,0,6.86,3.78,6.86,9.76s-4.33,11.51-10.63,11.51-73.05-.12-73.05-.12l-.42-21.15Z"/>
          <path class="cls-5" d="m180.09,366.42h-42.33c-2.23,0-4.03-1.81-4.03-4.03h0c0-2.23,1.81-4.03,4.03-4.03h42.33c2.23,0,4.03,1.81,4.03,4.03h0c0,2.23-1.81,4.03-4.03,4.03Z"/>
          <g>
            <path class="cls-1" d="m45.2,355.38s4.14,4.63,1.49,15.88h67.69c4.14,0,9.27-2.48,9.6-9.43.33-6.95-9.27-6.95-12.9-7.28-3.64-.33-65.87.83-65.87.83Z"/>
            <path class="cls-7" d="m43.34,356.22h68.45c6.07,0,9.92,1.23,9.75,5.89-.14,3.59-1.02,6.27-7.72,6.27s-68.59,1.04-68.59,1.04l-1.26,3.56h70.96c5.24,0,11.52-1.26,11.52-10.68s-9.42-10.26-11.94-10.47c-2.51-.21-73.05.21-73.05.21l1.88,4.19Z"/>
            <path class="cls-5" d="m110.76,359.89c-6.5-.37-13.05-.28-19.56-.34-6.55-.07,26.09-.02,19.55-.02-13.01,0-26.02.06-39.03.18-7.33.07-14.66.48-21.99.49-.32,0-.28.49.04.49,6.6.01,13.2.36,19.8.47,6.5.11,13.01.12,19.51.14,12.98.05-13.23.07-.26.05,7.27-.01,14.6.06,21.87-.36.69-.04.79-1.06.07-1.1Z"/>
            <path class="cls-5" d="m93.87,364.8c-9.94-.33,19.29-.28,9.35-.3-9.85-.02-19.7.08-29.55.21-5.62.07-11.24.14-16.86.2-.38,0-.39.67,0,.67,19.81.24.42.5,20.24.34,5.62-.04,11.25-.05,16.87-.23.5-.02.47-.87-.03-.88Z"/>
          </g>
        </g>
      </g>
      <g>
        <g>
          <path class="cls-1" d="m415.77,432.94s-4.14-4.63-1.49-15.88h-106.88c-4.14,0-9.26,2.48-9.6,9.43-.33,6.95,9.27,6.95,12.9,7.28s105.06-.83,105.06-.83Z"/>
          <path class="cls-11" d="m417.63,432.1h-107.64c-6.07,0-9.92-1.23-9.75-5.89.14-3.59,1.02-6.27,7.72-6.27s107.78-1.04,107.78-1.04l1.26-3.56h-110.15c-5.24,0-11.52,1.26-11.52,10.68s9.42,10.26,11.94,10.47c2.51.21,112.25-.21,112.25-.21l-1.88-4.19Z"/>
          <path class="cls-5" d="m311.02,428.43c6.5.37,13.05.28,19.56.34,6.55.07,13.1.02,19.65.02,13.01,0,26.02-.06,39.02-.18,7.33-.07,14.66-.48,21.99-.49.32,0,.28-.49-.04-.49-6.6-.01-13.2-.36-19.8-.47-6.5-.11-13.01-.12-19.51-.14-12.98-.05-25.96-.07-38.94-.05-7.27.01-14.6-.06-21.87.36-.69.04-.79,1.06-.07,1.1Z"/>
          <path class="cls-5" d="m327.91,423.52c9.94.33,19.9.28,29.84.3,9.85.02,19.7-.08,29.55-.21,5.62-.07,11.24-.14,16.86-.2.38,0,.39-.67,0-.67-19.81-.24-39.62-.5-59.43-.34-5.62.04-11.25.05-16.87.23-.5.02-.47.87.03.88Z"/>
        </g>
        <g>
          <path class="cls-1" d="m430.96,412.04s-4.14-4.63-1.49-15.88h-106.88c-4.14,0-9.27,2.48-9.6,9.43-.33,6.95,9.27,6.95,12.9,7.28,3.64.33,105.06-.83,105.06-.83Z"/>
          <path class="cls-8" d="m432.82,411.2h-107.64c-6.07,0-9.92-1.23-9.75-5.89.14-3.59,1.02-6.27,7.72-6.27s107.78-1.04,107.78-1.04l1.26-3.56h-110.15c-5.24,0-11.52,1.26-11.52,10.68s9.42,10.26,11.94,10.47,112.25-.21,112.25-.21l-1.88-4.19Z"/>
          <path class="cls-5" d="m326.21,407.53c6.5.37,13.05.28,19.56.34,6.55.07,13.1.02,19.65.02,13.01,0,26.02-.06,39.03-.18,7.33-.07,14.66-.48,21.99-.49.32,0,.28-.49-.04-.49-6.6-.01-13.2-.36-19.8-.47-6.5-.11-13.01-.12-19.51-.14-12.98-.05-25.96-.07-38.94-.05-7.27.01-14.6-.06-21.87.36-.69.04-.79,1.06-.07,1.1Z"/>
          <path class="cls-5" d="m343.1,402.62c9.94.33,19.9.28,29.84.3,9.85.02,19.7-.08,29.55-.21,5.62-.07,11.24-.14,16.86-.2.38,0,.39-.67,0-.67-19.81-.24-39.62-.5-59.43-.34-5.62.04-11.25.05-16.87.23-.5.02-.47.87.03.88Z"/>
        </g>
        <g>
          <path class="cls-1" d="m410.56,391.11s-4.4-4.93-1.59-16.91h-113.81c-4.4,0-9.87,2.64-10.22,10.04-.35,7.4,9.87,7.4,13.74,7.75s111.88-.88,111.88-.88Z"/>
          <path class="cls-4" d="m412.54,390.21h-114.62c-6.47,0-10.57-1.31-10.38-6.27.15-3.82,1.09-6.68,8.22-6.68s114.78-1.1,114.78-1.1l1.34-3.79h-117.3c-5.58,0-12.27,1.34-12.27,11.37s10.04,10.93,12.71,11.15c2.68.22,119.53-.22,119.53-.22l-2.01-4.46Z"/>
          <path class="cls-5" d="m299.01,386.3c6.93.39,13.9.29,20.83.36,6.97.07,13.95.03,20.92.02,13.85,0,27.71-.06,41.56-.19,7.81-.07,15.61-.51,23.41-.52.34,0,.29-.53-.04-.53-7.02-.01-14.06-.38-21.09-.5-6.92-.12-13.85-.13-20.78-.15-13.82-.05-27.64-.08-41.46-.05-7.74.01-15.55-.06-23.28.38-.74.04-.85,1.13-.07,1.18Z"/>
          <path class="cls-5" d="m316.99,381.08c10.58.35,21.19.3,31.78.32,10.49.02,20.98-.09,31.47-.22,5.99-.08,11.97-.15,17.96-.21.4,0,.42-.71,0-.71-21.1-.25-42.19-.53-63.28-.36-5.99.05-11.98.05-17.96.25-.53.02-.5.92.03.94Z"/>
        </g>
        <g>
          <path class="cls-1" d="m306.52,347.65s4.14-4.63,1.49-15.88h106.88c4.14,0,9.26,2.48,9.6,9.43.33,6.95-9.26,6.95-12.9,7.28-3.64.33-105.06-.83-105.06-.83Z"/>
          <path class="cls-11" d="m304.65,346.81h107.64c6.07,0,9.92-1.23,9.75-5.89-.14-3.59-1.02-6.27-7.72-6.27s-107.78-1.04-107.78-1.04l-1.26-3.56h110.15c5.24,0,11.52,1.26,11.52,10.68s-9.42,10.26-11.94,10.47-112.25-.21-112.25-.21l1.88-4.19Z"/>
          <path class="cls-5" d="m411.27,343.14c-6.5.37-13.05.28-19.56.34-6.55.07-13.1.02-19.65.02-13.01,0-26.02-.06-39.03-.18-7.33-.07-14.66-.48-21.99-.49-.32,0-.28-.49.04-.49,6.6-.01,13.2-.36,19.8-.47,6.5-.11,13.01-.12,19.51-.14,12.98-.05,25.96-.07,38.94-.05,7.27.01,14.6-.06,21.87.36.69.04.79,1.06.07,1.1Z"/>
          <path class="cls-5" d="m394.38,338.23c-9.94.33-19.9.28-29.84.3-9.85.02-19.7-.08-29.55-.21-5.62-.07-11.24-.14-16.86-.2-.38,0-.39-.67,0-.67,19.81-.24,39.62-.5,59.43-.34,5.62.04,11.25.05,16.87.23.5.02.47.87-.03.88Z"/>
        </g>
        <g>
          <path class="cls-1" d="m291.33,326.75s4.14-4.63,1.49-15.88h106.88c4.14,0,9.27,2.48,9.6,9.43.33,6.95-9.26,6.95-12.9,7.28-3.64.33-105.06-.83-105.06-.83Z"/>
          <path class="cls-8" d="m289.46,325.91h107.64c6.07,0,9.92-1.23,9.75-5.89-.14-3.59-1.02-6.27-7.72-6.27s-107.78-1.04-107.78-1.04l-1.26-3.56h110.15c5.24,0,11.52,1.26,11.52,10.68s-9.42,10.26-11.94,10.47c-2.51.21-112.25-.21-112.25-.21l1.88-4.19Z"/>
          <path class="cls-5" d="m396.08,322.24c-6.5.37-13.05.28-19.56.34-6.55.07-13.1.02-19.65.02-13.01,0-26.02-.06-39.03-.18-7.33-.07-14.66-.48-21.99-.49-.32,0-.28-.49.04-.49,6.6-.01,13.2-.36,19.8-.47,6.5-.11,13.01-.12,19.51-.14,12.98-.05,25.96-.07,38.94-.05,7.27.01,14.6-.06,21.87.36.69.04.79,1.06.07,1.1Z"/>
          <path class="cls-5" d="m379.19,317.33c-9.94.33-19.9.28-29.84.3-9.85.02-19.7-.08-29.55-.21-5.62-.07-11.24-.14-16.86-.2-.38,0-.39-.67,0-.67,19.81-.24,39.62-.5,59.43-.34,5.62.04,11.25.05,16.87.23.5.02.47.87-.03.88Z"/>
        </g>
        <g>
          <path class="cls-1" d="m311.73,305.82s4.4-4.93,1.59-16.91h113.81c4.4,0,9.87,2.64,10.22,10.04.35,7.4-9.87,7.4-13.74,7.75-3.88.35-111.88-.88-111.88-.88Z"/>
          <path class="cls-4" d="m309.74,304.92h114.62c6.47,0,10.57-1.31,10.38-6.27-.15-3.82-1.09-6.68-8.22-6.68s-114.78-1.1-114.78-1.1l-1.34-3.79h117.3c5.58,0,12.27,1.34,12.27,11.37s-10.04,10.93-12.71,11.15c-2.68.22-119.53-.22-119.53-.22l2.01-4.46Z"/>
          <path class="cls-5" d="m423.28,301.01c-6.93.39-13.9.29-20.83.36-6.97.07-13.95.03-20.92.02-13.85,0-27.71-.06-41.56-.19-7.81-.07-15.61-.51-23.41-.52-.34,0-.29-.53.04-.53,7.02-.01,14.06-.38,21.09-.5,6.92-.12,13.85-.13,20.78-.15,13.82-.05,27.64-.08,41.46-.05,7.74.01,15.55-.06,23.28.38.74.04.85,1.13.07,1.18Z"/>
          <path class="cls-5" d="m405.29,295.79c-10.58.35-21.19.3-31.78.32-10.49.02-20.98-.09-31.47-.22-5.99-.08-11.97-.15-17.96-.21-.4,0-.42-.71,0-.71,21.1-.25,42.19-.53,63.28-.36,5.99.05,11.98.05,17.96.25.53.02.5.92-.03.94Z"/>
        </g>
        <g>
          <path class="cls-3" d="m378.95,371.82h-77.24c-3.9,0-6.86-3.78-6.86-9.76s4.33-11.51,10.63-11.51,73.05.12,73.05.12l.42,21.15Z"/>
          <path class="cls-5" d="m313.37,357.23h42.33c2.23,0,4.03,1.81,4.03,4.03h0c0,2.23-1.81,4.03-4.03,4.03h-42.33c-2.23,0-4.03-1.81-4.03-4.03h0c0-2.23,1.81-4.03,4.03-4.03Z"/>
          <g>
            <path class="cls-1" d="m448.26,368.26s-4.14-4.63-1.49-15.88h-67.69c-4.14,0-9.26,2.48-9.6,9.43s9.26,6.95,12.9,7.28c3.64.33,65.87-.83,65.87-.83Z"/>
            <path class="cls-7" d="m450.12,367.42h-68.45c-6.07,0-9.92-1.23-9.75-5.89.14-3.59,1.02-6.27,7.72-6.27s68.59-1.04,68.59-1.04l1.26-3.56h-70.96c-5.24,0-11.52,1.26-11.52,10.68s9.42,10.26,11.94,10.47c2.51.21,73.05-.21,73.05-.21l-1.88-4.19Z"/>
            <path class="cls-5" d="m382.7,363.75c6.5.37,13.05.28,19.56.34,6.55.07-26.09.02-19.55.02,13.01,0,26.02-.06,39.03-.18,7.33-.07,14.66-.48,21.99-.49.32,0,.28-.49-.04-.49-6.6-.01-13.2-.36-19.8-.47-6.5-.11-13.01-.12-19.51-.14-12.98-.05,13.23-.07.26-.05-7.27.01-14.6-.06-21.87.36-.69.04-.79,1.06-.07,1.1Z"/>
            <path class="cls-5" d="m399.59,358.84c9.94.33-19.29.28-9.35.3,9.85.02,19.7-.08,29.55-.21,5.62-.07,11.24-.14,16.86-.2.38,0,.39-.67,0-.67-19.81-.24-.42-.5-20.24-.34-5.62.04-11.25.05-16.87.23-.5.02-.47.87.03.88Z"/>
          </g>
        </g>
      </g>
    </g>
    <g>
      <g>
        <path class="cls-2" d="m188.59,341.25l-5.28,25.33-2.48,11.93s-1.16,2.04-3.25,5.31c-7.85,12.28-28.82,41.86-50.56,45.4-7.76-10.35,12.16-87.2,12.68-87.97h48.9Z"/>
        <path class="cls-5" d="m183.31,366.59l-2.48,11.93s-1.16,2.04-3.25,5.31l-42.55,28.09s11.44-34,45.79-54.54c1.05,3.66,1.86,6.7,2.5,9.22Z"/>
        <path class="cls-2" d="m363.72,336.32s10.38,61.07-1.45,73.63c-34.52-23.17-42.97-58.66-42.97-58.66,0,0,32.11-16.42,44.42-14.97Z"/>
        <path class="cls-9" d="m373.22,339.12c-11.64.64-44.35,16.33-51.48,19.81-.89.43-1.38.67-1.38.67v80.21h-142.37v-84.26s-4.57-.92-13.01-2.89c-10.21-2.37-15.96-1.91-36.16-7.52,4.28-37.37,34.19-97.55,52.52-100.64,13.96-2.36,24.6-.09,28.87,1.12,1.34.38,2.06.66,2.06.66l10.32,1.87,56.57,10.27s2.02-.23,5.29-.51c1.3-.11,2.72-.22,4.21-.32,10.88-.72,26.03-.86,34.22,3.16,12.14,5.95,36.99,41.95,50.33,78.38Z"/>
        <path class="cls-7" d="m288.67,257.58c-.81,17.44-8.27,48.32-39.75,47.12-33.5-1.27-38.12-43.29-38.71-59.08,1.34.38,2.06.66,2.06.66l10.32,1.87,56.57,10.27s2.02-.23,5.29-.51c1.3-.11,2.72-.22,4.21-.32Z"/>
        <path class="cls-5" d="m294.76,348.45c-4.01-.21-8.04.12-12.02.58-3.95.45-7.87,1.07-11.76,1.88-7.77,1.62-15.43,3.88-22.81,6.79-14.72,5.8-28.56,14.05-40.51,24.43-3.43,2.98-6.72,6.11-9.84,9.42-1.52,1.61-3.01,3.25-4.43,4.95-.76.9-1.5,1.82-2.24,2.74-.7.88-1.29,1.83-1.98,2.72-.29.37.29.81.58.45,1.28-1.59,2.73-3.08,4.1-4.59,1.34-1.47,2.69-2.93,4.08-4.36,2.72-2.81,5.56-5.51,8.52-8.07,5.94-5.15,12.3-9.82,19-13.94,13.37-8.22,28.1-14.29,43.42-17.76,4.23-.96,8.51-1.73,12.82-2.3,4.36-.58,8.76-.84,13.13-1.34,1.03-.12.96-1.54-.06-1.59Z"/>
        <path class="cls-5" d="m314.06,298.1c-3.84,7.08-9.48,19.41-9.48,30.91,3.63,3.63,6.77,6.35,9.48,8.36v-39.27Z"/>
        <path class="cls-5" d="m322.51,358.92c-.89.43-1.38.67-1.38.67v54.38c-15.1-19.14-20.04-62.15-23.72-70.68-4.07-9.41-13-10.19-13-10.19,0,0-1.25-18.3,12.23-12.96,9.22,3.66,19.99,25.4,25.87,38.77Z"/>
        <path class="cls-2" d="m284.46,257.9c.13,11.3-4.46,39.88-33.73,41.17-33.89,1.49-34.03-51.09-34.03-51.09,0,0,2.21.04,5.9.16l56.57,10.27s2.02-.23,5.29-.51Z"/>
        <path class="cls-5" d="m298.09,235.09c-.67,8.53-2.69,16.2-6.62,19.93-10.08,9.55-50.01,19.27-50.01,19.27,0,0-28.41-16.16-31.16-31.37-.12-.64-1.89-4.96-2.79-11.64-1.02-7.57-.92-18.17,4.01-29.83,9.27-21.95,39.76-25.85,51.22-22.68,11.46,3.17,13.17,13.91,13.17,13.91,0,0,12.38-1.31,17.75,7.96,3.27,5.66,5.49,21.11,4.42,34.46Z"/>
        <path class="cls-16" d="m298.09,235.09c-.67,8.53-2.69,16.2-6.62,19.93-10.08,9.55-50.01,19.27-50.01,19.27,0,0-28.41-16.16-31.16-31.37-.12-.64-1.89-4.96-2.79-11.64,2.05,2.66,4.75,5.84,6.21,6.36,0-7.92-.13-10.86-.13-10.86l5.75,7.79s0-8.31-.64-11.37c11.11,4.85,30.15,4.6,30.15,4.6l-5.63-4.6s16.1,3.71,32.07,3.58c12.89-.11,16.29-.62,17.12-.82l-12.14,3.63s5.39,6.65,17.79,5.5Z"/>
        <path class="cls-10" d="m220.88,263.08c.24-.02,7.18,20.28,24.76,25.06,3.92,1.06,8.04,1,11.98.02,18.37-4.57,22.97-22.05,24.18-24.48,5.05.3,11.14-2.08,14.86-9.36s2.97-12.93-.74-15.01c-3.71-2.08-10.4,4.01-13.08,9.21-.43-5.87.89-11.14.89-11.14l-3.42,5.65s-3.57-9.51-4.46-12.93c-5.35,1.49-21.25-1.78-21.25-1.78l11.29,4.31s-22.74,4.01-42.8-3.57c2.53,9.66-.3,15.45-.3,15.45l-3.27-2.97.45,6.69s-2.82-2.08-4.16-5.8c-9.66-5.94-12.18-.15-12.33,1.93-.15,2.08,3.86,19.76,17.39,18.72Z"/>
        <g>
          <path class="cls-5" d="m231.29,247.97s3.98-2.23,8.26-.9c4.28,1.33,6.85,5.56,6.85,5.56,0,0-1.31-8.79-7.51-8.46-5.42.3-7.6,3.8-7.6,3.8Z"/>
          <path class="cls-5" d="m242.64,251.99c0,2.29-1.86,4.15-4.15,4.15s-4.15-1.86-4.15-4.15,1.86-4.15,4.15-4.15,4.15,1.86,4.15,4.15Z"/>
        </g>
        <g>
          <path class="cls-5" d="m275.21,247.97s-3.98-2.23-8.26-.9c-4.28,1.33-6.85,5.56-6.85,5.56,0,0,1.31-8.79,7.51-8.46,5.42.3,7.6,3.8,7.6,3.8Z"/>
          <path class="cls-5" d="m263.85,251.99c0,2.29,1.86,4.15,4.15,4.15s4.15-1.86,4.15-4.15-1.86-4.15-4.15-4.15-4.15,1.86-4.15,4.15Z"/>
        </g>
        <path class="cls-5" d="m257.24,238.13s1.31,2.32,2.72,2.92c1.71.71,13.2-.4,16.13.5-3.53-6.25-10.18-2.52-18.85-3.43Z"/>
        <path class="cls-5" d="m229.78,239.2s3.74-2.01,7.6-.98c4.62,1.24,8.37,4.25,12.6,5.32-1.54-3.81-2.21-5.23-2.21-5.23,0,0-4.59-2.48-9.81-3.28-5.19-.98-8.17,4.17-8.17,4.17Z"/>
        <path class="cls-2" d="m250.53,244.72s10.44,10.26-.36,21.3c2.9-10.92.36-21.3.36-21.3Z"/>
        <path class="cls-2" d="m259.23,262.94c-.82-1.87-6.75,2.42-6.7,2.97,2.92.3,7.76-.55,6.7-2.97Z"/>
        <path class="cls-2" d="m248.91,274.94c-.23.27,3.94-1.26,8.87.91-1.26-4.65-6.47-3.68-8.87-.91Z"/>
        <path class="cls-5" d="m218.59,250.91c-.2-.34-.41-.69-.62-1.03-.4-.65-.82-1.28-1.27-1.89-.93-1.26-2.09-2.44-3.43-3.27-1.16-.72-2.48-1.22-3.84-1.38-1.41-.17-2.69.29-3.96.83-.05.02,0,.09.04.07,1.34-.58,2.97-.23,4.3.24,1.34.47,2.44,1.27,3.46,2.24,1,.95,1.82,2.1,2.57,3.25.38.58.74,1.18,1.08,1.78.33.57.61,1.39,1.34,1.49.33.05.9-.12.91-.55,0-.82-.19-1.14-.57-1.78Z"/>
        <path class="cls-5" d="m219.4,257.5c-.35-.63-1.02-.99-1.66-1.26-1.64-.69-3.66-1.62-4.63-3.21-1.22-2,.67-3.7,1.5-5.38.04-.09-.05-.17-.13-.13-1.38.75-2.53,2.15-2.85,3.71-.35,1.72.54,3.1,1.81,4.17.69.58,1.44,1.1,2.23,1.51.68.36,1.45.57,2.09.99.27.17.57.41.37.76-.23.41-.82.36-1.21.29-.79-.15-1.55-.51-2.23-.92-.7-.42-1.33-.94-1.87-1.54-.39-.44-1.44-1.57-1.88-.51-.35.84.85,1.8,1.42,2.27.6.49,1.25.92,1.95,1.26,1.43.69,3.69,1.47,4.9-.03.45-.57.53-1.34.18-1.98Z"/>
        <path class="cls-5" d="m295.19,241.8c-.34.05-.69.03-1.02.12-.35.09-.7.22-1.03.36-.69.29-1.36.65-2,1.03-1.26.75-2.41,1.67-3.45,2.69-1.06,1.04-1.97,2.18-2.74,3.45-.37.61-.68,1.25-.96,1.9-.34.79-.4,1.63-.5,2.48-.05.4.48.53.66.19.29-.57.69-1.07,1-1.63.32-.58.58-1.18.91-1.75.65-1.13,1.39-2.2,2.21-3.2.83-1,1.78-1.89,2.8-2.7.54-.43,1.09-.84,1.68-1.21.28-.17.56-.34.84-.5.38-.22.77-.43,1.12-.68.18-.14.34-.3.54-.42.07-.04.02-.13-.05-.12Z"/>
        <path class="cls-5" d="m290.58,256.07c-1.02.94-2.12,1.79-3.41,2.34-.54.23-1.16.5-1.75.47-.76-.05-.61-.74-.25-1.22.76-1,2.1-1.4,3.07-2.16.99-.78,1.77-2,1.35-3.29-.2-.61-.65-1.09-1.09-1.53-.25-.25-.52-.48-.76-.74-.22-.24-.36-.55-.64-.73-.11-.07-.22.02-.25.12-.17.5.29,1.09.55,1.48.39.59.98,1.12,1.09,1.85.22,1.45-1.62,2.29-2.62,2.89-1.11.67-2.7,1.96-2.11,3.46.54,1.4,2.26,1.05,3.34.63,1.57-.61,3.04-1.67,3.98-3.07.21-.32-.19-.8-.51-.51Z"/>
        <path class="cls-5" d="m294.58,243.8c-.05-.42-.09-.75-.38-1.05-.04-.04-.12-.03-.15.02-.3.55-.15,1.28-.2,1.9-.06.77-.15,1.54-.33,2.29-.17.72-.4,1.42-.67,2.11-.29.74-.7,1.42-.91,2.19-.1.35.29.76.62.46,1.16-1.06,1.63-2.84,1.9-4.34.14-.78.22-1.58.2-2.38,0-.4-.04-.81-.09-1.21Z"/>
        <path class="cls-5" d="m251.26,288.45c-5.31-1.26-10.26-3.22-14.79-6.18-4.55-2.97-8.43-7-11.43-11.41-.8-1.17-1.51-2.39-2.19-3.63-.36-.66-.69-1.33-1.01-2.01-.32-.67-.78-1.33-1.01-2.03,0-.02-.04-.01-.03,0,.16.46.19.96.31,1.43.18.68.44,1.35.7,2.01.5,1.28,1.09,2.52,1.75,3.74,1.33,2.44,2.94,4.7,4.82,6.78,3.68,4.09,8.29,7.54,13.37,9.88,2.89,1.33,5.98,2.39,9.15,2.87.99.15,1.37-1.23.37-1.47Z"/>
        <path class="cls-5" d="m251.12,288.45c5.31-1.26,10.26-3.22,14.79-6.18,4.55-2.97,8.43-7,11.43-11.41.8-1.17,1.51-2.39,2.19-3.63.36-.66.69-1.33,1.01-2.01.32-.67.78-1.33,1.01-2.03,0-.02.04-.01.03,0-.16.46-.19.96-.31,1.43-.18.68-.44,1.35-.7,2.01-.5,1.28-1.09,2.52-1.75,3.74-1.33,2.44-2.94,4.7-4.82,6.78-3.68,4.09-8.29,7.54-13.37,9.88-2.89,1.33-5.98,2.39-9.15,2.87-.99.15-1.37-1.23-.37-1.47Z"/>
        <path class="cls-2" d="m258.83,326.17c-.2.71,1.81,6.24,6.9,7.56,5.09,1.31,9.2,2.3,14.95,5.59,4.76,1.15,4.27-8.54,1.31-11.34-2.96-2.79-20.7-10.35-23.17-1.81Z"/>
        <path class="cls-10" d="m280.01,295.34c-6.3,2.34-21.56,19.44-24.74,24.74-3.18,5.3-8.66,17.14-7.42,18.38s3,1.41,5.65,0,11.84-13.61,11.84-13.61c0,0,.71,5.83,9.9,2.65,2.83,5.83,8.13,3.18,8.13,3.18,0,0-1.18,3.79,3.36,3.71,4.54-.08,5.3-1.41,5.3-1.41,0,0,6.21,3.57,9.32,9.48,3.42,6.2,11.4,36.51,17.42,51.14,5.63,13.67,15.15,27.02,28.75,27.02s19.97-15.55,17.85-25.62c-2.12-10.07-47.89-72.63-57.79-82.88-9.9-10.25-22.66-18.61-27.57-16.79Z"/>
        <path class="cls-5" d="m363.3,390.64c-.47-.99-.78-2.03-1.21-3.03-.48-1.13-1.01-2.22-1.62-3.29-1.22-2.14-2.5-4.24-3.78-6.34-2.55-4.2-5.16-8.34-7.94-12.39-5.61-8.15-11.2-16.28-17.19-24.15-1.69-2.22-3.39-4.43-5.15-6.59-1.71-2.1-3.52-4.04-5.37-6.01-.02-.02-.05,0-.04.03,1.35,1.95,2.62,3.92,4.04,5.81,1.48,1.98,2.96,3.96,4.44,5.94,2.91,3.91,5.76,7.88,8.55,11.88,5.63,8.07,10.83,16.39,15.96,24.79,1.43,2.34,2.84,4.7,4.22,7.06.67,1.14,1.35,2.26,2.12,3.34.79,1.1,1.7,2.09,2.44,3.22.18.27.66.03.51-.28Z"/>
        <path class="cls-5" d="m277.77,307.99c-1.95,1.15-3.8,2.57-5.43,4.14-1.68,1.61-3.05,3.51-4.4,5.4-3.11,4.35-5.69,9-8.45,13.58-.35.59.48,1.13.88.59,3.23-4.31,6.62-8.46,9.49-13.03,2.33-3.7,4.51-7.84,7.91-10.66,0,0,0-.01,0,0Z"/>
        <path class="cls-5" d="m283.01,316.17c-1.97,1.8-3.9,3.62-5.62,5.67-1.68,2-3.47,4.18-4.33,6.68-.28.82.93,1.3,1.44.72,1.68-1.93,2.83-4.34,4.18-6.5,1.39-2.21,2.79-4.45,4.36-6.54.01-.02-.01-.03-.03-.02Z"/>
        <path class="cls-5" d="m290.67,322.36c-.61.61-1.24,1.16-1.94,1.65-.71.51-1.36,1.09-2.05,1.63-1.44,1.13-2.86,2.25-4.19,3.51-.65.61-1.84,1.39-1.62,2.41.13.59.8.88,1.33.6.1-.05.19-.19.28-.22,0,.05-.01.1-.02.15.08-.05.16-.1.25-.16.18-.14.34-.34.49-.51.72-.77,1.46-1.51,2.12-2.33.59-.74,1.2-1.46,1.77-2.21.56-.73,1.16-1.42,1.72-2.15.62-.81,1.19-1.6,1.91-2.32.04-.04-.02-.09-.06-.06Z"/>
        <path class="cls-5" d="m299.68,324.87c-.45.44-1.02.72-1.5,1.11-.36.29-.71.59-1.08.86-.85.64-1.66,1.29-2.47,1.99-1.49,1.28-3.03,2.51-4.54,3.77-1.22,1.03-2.72,2.29-4.43,1.78-.77-.23-1.43-.75-2.02-1.28-.63-.56-1.14-1.3-1.97-1.54-.48-.14-1.04.33-.98.83.11.95.95,1.66,1.62,2.29.68.63,1.46,1.2,2.33,1.54,1.95.76,3.9.14,5.51-1.07,1.77-1.34,3.25-3,4.78-4.59.77-.81,1.55-1.61,2.25-2.48.35-.43.68-.87,1.04-1.29.51-.6.93-1.33,1.48-1.87.02-.02-.01-.05-.03-.03Z"/>
        <path class="cls-5" d="m303.48,332.26c-1.54-.09-3.06-.09-4.59-.39-.68-.13-1.33-.34-1.97-.58-.76-.28-1.55-.55-2.25-.95-.04-.02-.06.02-.04.05.52.64,1.04,1.25,1.72,1.73.72.51,1.56.88,2.39,1.18.78.28,1.6.41,2.43.45.92.04,1.7-.08,2.55-.4.56-.21.28-1.05-.24-1.08Z"/>
        <path class="cls-5" d="m273.67,327.41c-.44.13-.78.43-1.25.61-.37.14-.74.22-1.19.26-.78.07-1.6-.08-2.32-.47-.68-.36-1.21-.93-1.66-1.59-.56-.81-.77-1.79-1.27-2.63-.08-.14-.3-.13-.4-.02-.81.98-.5,2.43,0,3.5.52,1.11,1.43,2.02,2.51,2.6,1.04.56,2.25.75,3.42.65.59-.05,1.18-.19,1.73-.4.53-.2,1.25-.52,1.56-1.01.53-.85-.19-1.77-1.14-1.5Z"/>
        <path class="cls-5" d="m282.83,330.86c-.27-.54-.87-.76-1.43-.54-1.21.49-2.56.45-3.67-.02-.46-.2-.86-.45-1.3-.84-.2-.18-.4-.35-.58-.55-.31-.34-.55-.7-.97-.92-.19-.1-.45.04-.52.22-.31.77.24,1.78.7,2.39.51.69,1.16,1.22,1.91,1.62,1.62.87,3.68.88,5.32.07.5-.25.81-.89.54-1.43Z"/>
        <path class="cls-5" d="m177.99,288.33v67.22s-4.57-.92-13.01-2.89c1.11-20.72,13.01-64.33,13.01-64.33Z"/>
        <path class="cls-5" d="m177.87,353.61c-1.57-.51-3.29-.63-4.93-.83-1.62-.19-3.24-.4-4.85-.61-3.18-.43-6.34-.9-9.5-1.43-6.41-1.06-12.8-2.3-19.16-3.66-1.76-.37-3.51-.77-5.26-1.17-.84-.19-1.69-.37-2.54-.55-.99-.21-2.03-.24-3-.48-.44-.11-.64.65-.2.78.79.23,1.54.66,2.34.91.79.25,1.58.49,2.38.71,1.58.45,3.18.85,4.77,1.26,3.13.8,6.27,1.54,9.42,2.21,6.39,1.36,12.84,2.46,19.32,3.37,1.79.25,3.58.49,5.38.71,1.85.23,3.84.58,5.71.37.93-.11,1.01-1.31.14-1.59Z"/>
        <path class="cls-5" d="m349.82,321.66c-3.98-.23-7.88-.58-11.75-1.59-1.83-.48-3.61-1.1-5.37-1.81-1.89-.76-3.85-1.62-5.63-2.63-.32-.18-.63.34-.33.55,1.72,1.2,3.4,2.28,5.31,3.16,1.82.84,3.73,1.51,5.66,2.04,3.89,1.07,8.1,1.61,12.12,1.08.45-.06.45-.78-.01-.81Z"/>
        <path class="cls-5" d="m160.76,312.6c-6.88,1.61-13.11,6.55-17.19,12.21-.25.35.27.76.53.42,2.13-2.76,4.68-5.17,7.56-7.12,2.92-1.97,6.14-3.32,9.44-4.52.57-.21.23-1.13-.35-.99Z"/>
        <path class="cls-11" d="m292.66,225.89s-.09.04-.22.07l.22-.07Z"/>
        <path class="cls-16" d="m272.01,202.66c-.39-.36-.95-.63-1.4-.92-.41-.26-.84-.51-1.28-.72-.91-.44-1.87-.79-2.85-1.04-.97-.24-1.94-.38-2.93-.36-1.03.02-2.05.25-3.07.36-.06,0-.06.1,0,.09,1-.11,1.96.09,2.93.31.91.21,1.83.47,2.71.8.87.32,1.69.74,2.48,1.23.4.24.78.51,1.15.79.39.3.69.68,1.06.99.97.8,2.1-.69,1.19-1.52Z"/>
        <path class="cls-16" d="m272.03,200.03c-.41-1-.94-1.96-1.58-2.82-1.28-1.74-3.06-2.98-5.04-3.81-.07-.03-.13.06-.06.11,1.61,1.16,2.79,2.76,3.77,4.46.48.84.85,1.74,1.13,2.67.14.46.23.94.32,1.41.09.51.11,1.04.32,1.52.39.89,1.66.73,1.85-.21.21-1.06-.3-2.36-.7-3.33Z"/>
        <path class="cls-16" d="m282.49,199.18c-2.04-.7-4.32-.52-6.37.05-1.04.29-2.07.69-3.02,1.21-.85.47-2.35,1.21-2.55,2.25-.09.46.25.97.76.94.6-.04.99-.4,1.44-.75.37-.3.76-.57,1.17-.83.89-.57,1.8-1.07,2.79-1.45,1.86-.72,3.8-1.02,5.76-1.3.07,0,.09-.1.02-.12Z"/>
        <path class="cls-16" d="m280.92,202.88c-1.52-.35-3.05-.69-4.61-.76-.76-.03-1.53-.03-2.29,0-.8.04-1.77.04-2.52.35-1.08.44-.6,2.03.52,1.93.42-.03.83-.22,1.23-.33.37-.1.74-.2,1.11-.29.69-.17,1.38-.31,2.09-.42,1.48-.23,2.96-.42,4.46-.36.07,0,.08-.11.02-.12Z"/>
      </g>
      <path class="cls-8" d="m178.3,425.14l-8.2,4.35h5.45s19.06-11.49,36.81-12.19c17.75-.7,27.15,9.14,32.82,8.92,5.67-.22,16.5-10.71,30.2-9.66,13.71,1.05,36.72,11.17,36.72,11.17,0,0,7.91,1.05,7.38.88-.53-.18-23.66-21.18-48.47-19.99-24.81,1.19-26.88,10-26.88,10,0,0-13.57-12.5-31.85-12.33-18.28.18-33.98,18.85-33.98,18.85Z"/>
      <g>
        <path class="cls-1" d="m246.06,407.44c-.14,6.65-1.93,11.19-1.93,11.19l-17.83-15.45s.27-1.96-1.51-5.36c-1.82-3.49-5.79-8.49-14.41-14.44-11.03-16.64-1.9-19.75-1.9-19.75,0,0,19.86,5.94,31.06,22.07,5.37,7.74,6.65,15.63,6.52,21.74Z"/>
        <path class="cls-5" d="m246.06,407.44c-.14,6.65-1.93,11.19-1.93,11.19l-17.83-15.45s.27-1.96-1.51-5.36c5.58.89,15.02,3.28,21.27,9.62Z"/>
        <g>
          <path class="cls-1" d="m245.44,411.86s-16.14-16.29-36.21-13.1c-20.06,3.19-42.57,24.93-53.49,26.56,7.46,3.09,17.47,1.64,22.56-.18,5.09-1.82,25.84-12.55,37.66-13.46,11.83-.91,29.29,12.74,29.29,12.74l.18-12.55Z"/>
          <path class="cls-5" d="m242.8,411.94c-3.68-3.03-8.46-4.93-13-6.25-4.68-1.36-9.56-2.04-14.44-1.98-4.92.06-9.83.86-14.49,2.45-4.94,1.69-9.49,4.26-13.95,6.94-5.09,3.06-10.07,6.45-15.56,8.77,0,0,0,.01,0,.01,4.96-1.7,9.58-4.14,14.1-6.77,4.42-2.58,8.84-5.22,13.62-7.09,8.92-3.48,18.99-3.99,28.26-1.7,2.66.66,5.27,1.55,7.77,2.68,2.46,1.1,4.76,2.5,7.12,3.78.57.31,1.07-.42.56-.83Z"/>
          <path class="cls-5" d="m243,417.32c-1.91-2.18-4.33-3.74-6.87-5.09-2.57-1.36-5.28-2.43-8.09-3.19-2.83-.77-5.76-1.2-8.69-1.29-2.94-.09-5.69.38-8.58.84-.02,0-.01.04,0,.03,2.78-.45,5.82-.26,8.62,0,2.76.25,5.48.79,8.15,1.56,2.73.79,5.39,1.87,7.91,3.2,2.46,1.3,4.72,2.93,7.08,4.38.28.17.72-.14.46-.44Z"/>
          <path class="cls-5" d="m166.7,422.96c-.73.22-1.38.59-2.05.95-.68.37-1.36.73-2.03,1.12-1.3.74-2.59,1.47-3.89,2.21-.02.01,0,.04.02.03,1.39-.61,2.79-1.22,4.19-1.82.69-.3,1.38-.61,2.06-.93.68-.31,1.37-.62,1.98-1.07.27-.2.03-.58-.27-.49Z"/>
          <path class="cls-5" d="m171.13,423.91c-1.72.63-3.38,1.45-5.07,2.14-1.7.7-3.38,1.41-5.12,1.99-.03.01-.02.06.01.05,3.57-.86,7.29-1.78,10.5-3.62.33-.19.01-.69-.32-.56Z"/>
          <path class="cls-5" d="m203.04,409.3c-3.06,1.61-6.14,3.16-9.24,4.7-3,1.49-5.92,3.14-8.93,4.64-3,1.49-5.93,3.11-8.83,4.78-2.91,1.67-5.69,3.58-8.64,5.18-.03.02,0,.07.03.05,3.04-1.64,6.27-2.96,9.35-4.52,3.04-1.54,6.04-3.15,8.98-4.87,2.81-1.64,5.71-3.12,8.51-4.76,2.93-1.72,5.87-3.41,8.84-5.05.08-.05,0-.17-.08-.13Z"/>
        </g>
        <g>
          <path class="cls-1" d="m244.98,411.86s16.14-16.29,36.21-13.1c20.06,3.19,42.57,24.93,53.49,26.56-7.46,3.09-17.47,1.64-22.56-.18-5.09-1.82-25.84-12.55-37.66-13.46-11.83-.91-29.29,12.74-29.29,12.74l-.18-12.55Z"/>
          <path class="cls-5" d="m247.62,411.94c3.68-3.03,8.46-4.93,13-6.25,4.68-1.36,9.56-2.04,14.44-1.98,4.92.06,9.83.86,14.49,2.45,4.94,1.69,9.49,4.26,13.95,6.94,5.09,3.06,10.07,6.45,15.56,8.77,0,0,0,.01,0,.01-4.96-1.7-9.58-4.14-14.1-6.77-4.42-2.58-8.84-5.22-13.62-7.09-8.92-3.48-18.99-3.99-28.26-1.7-2.66.66-5.27,1.55-7.77,2.68-2.46,1.1-4.76,2.5-7.12,3.78-.57.31-1.07-.42-.56-.83Z"/>
          <path class="cls-5" d="m247.42,417.32c1.91-2.18,4.33-3.74,6.87-5.09,2.57-1.36,5.28-2.43,8.09-3.19,2.83-.77,5.76-1.2,8.69-1.29,2.94-.09,5.69.38,8.58.84.02,0,.01.04,0,.03-2.78-.45-5.82-.26-8.62,0-2.76.25-5.48.79-8.15,1.56-2.73.79-5.39,1.87-7.91,3.2-2.46,1.3-4.72,2.93-7.08,4.38-.28.17-.72-.14-.46-.44Z"/>
          <path class="cls-5" d="m323.72,422.96c.73.22,1.38.59,2.05.95.68.37,1.36.73,2.03,1.12,1.3.74,2.59,1.47,3.89,2.21.02.01,0,.04-.02.03-1.39-.61-2.79-1.22-4.19-1.82-.69-.3-1.38-.61-2.06-.93-.68-.31-1.37-.62-1.98-1.07-.27-.2-.03-.58.27-.49Z"/>
          <path class="cls-5" d="m319.29,423.91c1.72.63,3.38,1.45,5.07,2.14,1.7.7,3.38,1.41,5.12,1.99.03.01.02.06-.01.05-3.57-.86-7.29-1.78-10.5-3.62-.33-.19-.01-.69.32-.56Z"/>
          <path class="cls-5" d="m287.38,409.3c3.06,1.61,6.14,3.16,9.24,4.7,3,1.49,5.92,3.14,8.93,4.64,3,1.49,5.93,3.11,8.83,4.78,2.91,1.67,5.69,3.58,8.64,5.18.03.02,0,.07-.03.05-3.04-1.64-6.27-2.96-9.35-4.52-3.04-1.54-6.04-3.15-8.98-4.87-2.81-1.64-5.71-3.12-8.51-4.76-2.93-1.72-5.87-3.41-8.84-5.05-.08-.05,0-.17.08-.13Z"/>
        </g>
      </g>
      <g>
        <path class="cls-10" d="m241.49,377.06c1.91-1,1.91-3.77.11-4.96-6.57-4.32-26.4-16.71-36.64-15.92-12.38.95-27.85,10-39.52,22.14-11.67,12.14-31.43,25.24-35.95,32.38s-6.88,17.74,1.47,25.75c5.52,5.3,23.78,4.89,33.16-6.15,8.3-9.76,14.53-20.58,24.65-39.36,17.61,2.61,22.62,1.43,25.95-1.9,8.57-.24,8.09-3.81,8.09-3.81,0,0,5.85-2.36,5.24-3.57-.61-1.21-16.47-5.65-21.19-15,12.38,1.43,30.95,10.95,33.57,10.71.39-.04.74-.15,1.05-.31Z"/>
        <path class="cls-5" d="m223.41,384.24c-2.37-.18-4.71-.19-7.06-.61-2.27-.41-4.48-1.06-6.61-1.96-2.1-.89-4.09-2.01-6.01-3.23-1.89-1.21-3.83-2.61-5.45-4.17-.09-.09-.25.04-.17.14,1.43,2.04,2.92,3.81,4.84,5.41,1.84,1.53,3.97,2.76,6.16,3.73,2.16.96,4.42,1.68,6.73,2.15,2.41.49,5.08.82,7.52.4.98-.17,1.18-1.77.06-1.86Z"/>
        <path class="cls-5" d="m215.44,387.95c-2.08-.44-4.32-.16-6.44-.27-2.17-.11-4.32-.33-6.46-.7-2.06-.36-4.11-.86-6.11-1.49-2.18-.68-4.48-1.48-6.54-2.47-.46-.22-.86.52-.42.79,1.01.62,1.98,1.32,3.04,1.85,1.01.5,2.04.95,3.08,1.36,2.12.84,4.31,1.5,6.54,1.98,2.18.48,4.42.78,6.66.87,2.23.08,4.71.18,6.8-.71.52-.22.38-1.1-.15-1.21Z"/>
        <path class="cls-5" d="m190.7,391.15c-1.06-.12-2.15-.11-3.22-.14-1.18-.03-2.34-.11-3.51-.23-.19-.02-.25.26-.07.29,1.13.13,2.23.31,3.35.53,1.11.22,2.25.49,3.38.62.68.08.75-.98.07-1.06Z"/>
      </g>
    </g>
    <g>
      <g>
        <path class="cls-4" d="m355.19,321.22s-11.85-10.66-8.37-14.03c3.48-3.37,8.7,7.83,8.7,7.83,0,0-4.13-13.92,1.74-15.55s3.15,15.77,3.15,15.77c0,0,1.52-8.92,7.29-7.72,5.76,1.2-7.39,15.01-7.39,15.01l-5.11-1.3Z"/>
        <path class="cls-15" d="m376.56,342.94s7.86-11.01,20.88-8.44c13.01,2.57,8.72,26.74-19.45,28.31-14.87-1.57-1.43-19.88-1.43-19.88Z"/>
        <path class="cls-15" d="m379.53,364.43c-.78,9.14-2.02,16.64-2.02,16.64h-36.72s-.65-4.34-1.38-10.41c-1.11-9.28-2.4-22.6-1.81-30.76.97-13.49,12.25-22.11,21.69-22.53,12.66-.56,16.97,8.34,19.89,22.11,1.4,6.62,1.07,16.49.35,24.95Z"/>
        <path class="cls-5" d="m379.53,364.43c-.78,9.14-2.02,16.64-2.02,16.64h-36.72s-.65-4.34-1.38-10.41c8.63.64,28.21,1.11,40.12-6.23Z"/>
        <path class="cls-5" d="m379.96,346.68c-.13-2.31-.42-4.58-.76-6.86-.02-.15-.24-.15-.24,0,.02,4.45.01,8.93-.04,13.39-.03,2.18-.1,4.37-.22,6.55-.06,1.09-.13,2.18-.21,3.27-.09,1.17-.27,2.37-.25,3.54,0,.56.89.77,1.02.17.47-2.15.47-4.49.59-6.68.13-2.23.2-4.46.23-6.7.03-2.23,0-4.46-.12-6.68Z"/>
        <path class="cls-5" d="m351.27,334.69c-.22-.49-.53-.92-.81-1.37-.29-.47-.58-.95-.86-1.43-.29-.49-.57-.99-.86-1.48-.28-.48-.69-.87-.92-1.37,0-.01-.02,0-.02,0,.25.52.32,1.1.56,1.63.23.51.48,1.01.75,1.5.25.47.51.93.79,1.39.28.48.55.98.92,1.39.19.21.6.04.47-.26Z"/>
        <path class="cls-5" d="m347.22,343.23c-.46-.93-1.08-1.78-1.71-2.61-.65-.85-1.42-1.64-2-2.53-.02-.03-.06,0-.04.02.56.86.97,1.83,1.45,2.74.5.95,1.05,1.9,1.74,2.72.24.28.74,0,.57-.35Z"/>
        <path class="cls-5" d="m360.16,331.76c-.03-.25-.05-.5-.08-.75-.05-.48-.09-.97-.16-1.45-.15-1.07-.38-2.13-.44-3.21,0-.04-.06-.04-.06,0,.06,1.02-.05,2.06-.08,3.09-.02.51,0,1.03,0,1.54,0,.26,0,.51,0,.77,0,.29.05.48.16.75.09.23.5.26.57,0,.08-.27.12-.45.1-.73Z"/>
        <path class="cls-5" d="m369.8,331.2c-.48.95-.99,1.89-1.47,2.85-.48.95-1.01,1.89-1.3,2.93-.11.4.45.78.69.36.54-.96.84-2.01,1.18-3.05.33-1.01.64-2.04.97-3.05.01-.05-.06-.08-.08-.03Z"/>
        <path class="cls-5" d="m360.14,341.58s-.08-.06-.08-.01c-.18,1.08-.36,2.16-.56,3.23-.1.55-.21,1.09-.31,1.64-.1.54-.27,1.09-.21,1.64.06.49.78.46.92.04.17-.5.1-1.09.11-1.62,0-.57.02-1.13.03-1.7.02-1.08.07-2.15.11-3.23Z"/>
        <path class="cls-5" d="m349.24,351.88c-.31-.52-.63-1.04-.97-1.54-.31-.47-.64-.94-.99-1.39-.16-.21-.32-.43-.5-.63-.24-.26-.53-.44-.74-.73-.02-.03-.08,0-.06.03.2.27.26.56.4.85.12.26.28.51.41.76.27.49.53,1,.78,1.5.26.51.5,1.02.73,1.54.23.51.4,1.14.82,1.53.25.23.8.15.79-.27-.02-.61-.37-1.13-.67-1.64Z"/>
        <path class="cls-5" d="m344.13,362.73c-.11-.48-.57-.89-.87-1.27-.3-.37-.6-.74-.9-1.12-.3-.37-.6-.75-.9-1.12-.34-.43-.72-.84-1.03-1.28-.02-.03-.07,0-.05.03.29.42.53.89.79,1.33.25.42.5.84.75,1.26.25.42.5.85.76,1.27.13.22.26.45.39.67.13.23.25.46.48.61.26.17.67-.04.59-.37Z"/>
        <path class="cls-5" d="m356.84,361.45c-.05-.2-.11-.41-.17-.61-.14-.52-.3-1.04-.48-1.55-.3-.87-.63-1.74-.93-2.61-.01-.04-.07-.02-.06.02.14.93.23,1.85.35,2.78.06.46.14.92.23,1.38.05.23.09.45.14.68.02.1.05.21.07.31.06.2.12.28.25.43.15.17.51.18.58-.09.03-.12.08-.23.08-.36,0-.12-.04-.25-.07-.37Z"/>
        <path class="cls-5" d="m370.43,356.02c-.5.92-1.15,1.75-1.73,2.63-.29.43-.57.86-.85,1.29-.25.38-.73.9-.49,1.37.07.14.21.22.37.2.41-.05.55-.41.69-.73.1-.21.19-.42.29-.64.2-.44.39-.89.58-1.33.4-.92.73-1.87,1.21-2.75.03-.05-.05-.09-.07-.04Z"/>
        <path class="cls-5" d="m370.57,343.22c-.75.87-1.46,1.79-2.07,2.77-.31.49-.6,1-.88,1.5-.14.25-.28.51-.41.77-.16.33-.2.56-.19.92.02.29.4.39.6.22.3-.24.42-.48.56-.83.11-.26.21-.53.32-.79.21-.51.44-1.01.67-1.5.48-1.01.95-2.03,1.45-3.03.02-.04-.03-.08-.06-.05Z"/>
        <path class="cls-5" d="m376.29,342.07c-.07.21-.22.42-.31.62-.1.21-.19.43-.28.65-.17.41-.34.82-.5,1.23-.16.41-.32.83-.48,1.24-.17.43-.36.88-.38,1.35-.01.3.4.54.59.24.24-.37.36-.8.47-1.22.13-.5.26-1,.38-1.5.1-.42.2-.84.3-1.26.05-.21.1-.42.14-.64.04-.22.04-.49.11-.7,0-.02-.03-.03-.04-.01Z"/>
        <path class="cls-5" d="m367.49,321.73c-.04.08-.08.18-.13.26-.05.08-.15.14-.22.2-.13.11-.23.21-.33.35-.19.27-.36.54-.53.83-.18.3-.36.61-.54.91-.09.15-.18.29-.26.44-.04.06-.07.13-.1.19-.07.14-.09.28-.12.43-.07.37.48.63.73.36.08-.08.16-.17.23-.26.09-.13.14-.29.2-.44.07-.15.13-.3.19-.45.12-.28.24-.57.36-.85.12-.28.24-.56.33-.86.05-.16.08-.3.1-.47.02-.22.07-.39.17-.59.03-.05-.05-.1-.08-.05Z"/>
        <path class="cls-5" d="m347.09,324.04c-.05-.14-.07-.29-.13-.43-.05-.11-.12-.21-.2-.31-.11-.16-.23-.31-.35-.47-.25-.34-.5-.67-.75-1.01-.51-.68-1.02-1.36-1.58-2-.02-.03-.06,0-.04.03.35.77.73,1.51,1.13,2.26.22.4.43.81.65,1.21.09.18.18.36.28.53.12.21.3.33.46.5.24.25.66.03.53-.32Z"/>
        <path class="cls-5" d="m342.24,330.34c-.11-.24-.22-.45-.38-.66-.12-.16-.26-.31-.38-.46-.25-.3-.5-.6-.75-.9-.25-.3-.48-.62-.77-.88-.29-.27-.58-.54-.85-.84-.03-.04-.09.01-.07.05.19.35.35.71.51,1.08.16.36.4.7.6,1.04.2.33.4.67.6,1,.11.19.22.38.34.57.12.19.27.33.43.49.35.34.94-.02.72-.49Z"/>
        <path class="cls-5" d="m340.36,343.45c-.33-.47-.66-.94-1.08-1.33-.43-.4-.87-.8-1.32-1.18-.41-.34-.83-.66-1.27-.96-.25-.18-.54-.32-.78-.51-.21-.16-.42-.33-.63-.49-.04-.03-.08.04-.04.07.24.18.49.36.71.56.19.18.36.39.54.58.39.41.78.82,1.16,1.23.37.39.72.8,1.08,1.21.37.44.8.82,1.22,1.22.24.24.58-.15.41-.4Z"/>
        <path class="cls-5" d="m340.09,353.45c-.31-.4-.63-.82-.99-1.18-.36-.36-.73-.71-1.12-1.04-.38-.32-.76-.64-1.16-.93-.4-.29-.84-.61-1.3-.79-.02,0-.05.02-.03.04.28.39.68.72,1.02,1.06.37.36.76.7,1.12,1.07.34.33.68.66,1.01,1,.36.37.76.7,1.14,1.06.17.17.46-.1.31-.29Z"/>
        <path class="cls-5" d="m376.45,324.93c-.11.16-.22.34-.36.48-.13.13-.27.25-.4.38-.24.24-.48.51-.69.77-.22.27-.43.54-.65.81-.24.29-.48.57-.65.92-.16.34.33.69.6.42.27-.27.45-.59.64-.91.19-.31.38-.61.57-.92.18-.3.36-.62.5-.94.07-.16.13-.34.21-.49.08-.16.2-.3.31-.45.03-.05-.05-.1-.08-.05Z"/>
        <path class="cls-5" d="m379.39,330.81c-.17.27-.42.51-.61.77-.17.24-.34.48-.51.72-.32.45-.64.89-.95,1.35-.64.95-1.28,1.89-1.85,2.88-.22.38.3.79.56.41.67-.98,1.24-2.01,1.83-3.04.27-.47.52-.95.78-1.43.13-.24.26-.48.39-.72.15-.29.26-.62.43-.9.03-.05-.04-.09-.07-.04Z"/>
        <path class="cls-5" d="m389.09,339.62c-.13.18-.26.35-.43.49-.15.13-.3.27-.44.41-.28.26-.54.53-.8.81-.25.27-.49.54-.74.81l-.4.44c-.2.22-.27.43-.34.73-.06.27.28.48.51.37.21-.11.39-.23.53-.42.11-.16.21-.33.31-.49.22-.34.43-.67.64-1.01.21-.35.42-.7.61-1.06.09-.17.18-.34.26-.51.09-.19.22-.35.35-.52.03-.04-.04-.09-.07-.04Z"/>
        <path class="cls-5" d="m391.7,346.66c-.66.24-1.31.47-1.97.69-.67.22-1.34.43-1.99.7-.39.16-.12.77.26.6.66-.29,1.29-.66,1.93-1,.6-.32,1.2-.63,1.8-.93.03-.02.01-.07-.03-.06Z"/>
        <path class="cls-5" d="m394.13,350.88c-1.15.27-2.32.48-3.47.73-.56.12-1.12.24-1.68.38-.3.07-.6.14-.9.22-.26.06-.53.1-.74.28-.15.13-.11.38.1.42.28.06.53-.05.8-.12l.89-.26c.55-.16,1.09-.33,1.63-.5,1.13-.35,2.26-.75,3.39-1.08.04-.01.02-.07-.02-.06Z"/>
        <path class="cls-5" d="m386.86,358.98c-.28-.29-.54-.61-.84-.87-.34-.29-.68-.58-1.04-.83-.35-.25-.7-.49-1.08-.7-.18-.1-.36-.2-.54-.3-.12-.07-.24-.14-.37-.17-.11-.02-.21-.03-.32-.04-.3-.02-.52.33-.31.58.15.18.29.3.5.41.19.1.39.2.58.3.37.2.75.39,1.12.59.36.19.72.38,1.09.56.38.2.78.34,1.16.54.04.02.09-.03.05-.07Z"/>
        <path class="cls-5" d="m382.45,341.16c-.22.23-.44.46-.66.69-.11.11-.22.23-.32.35-.1.13-.19.26-.28.4-.05.07-.06.17.01.23.07.06.18.05.23-.01.11-.12.21-.25.31-.38.09-.14.18-.27.27-.42.16-.28.33-.55.49-.83.02-.03-.02-.06-.04-.03Z"/>
        <path class="cls-5" d="m391.81,331.07c-.36.52-.73,1.02-1.14,1.51-.38.46-.76.92-1.13,1.39-.37.47-.74.95-1.11,1.42-.37.47-.77.93-1.09,1.44-.3.49.4.94.74.49.36-.47.63-1,.94-1.51.33-.54.66-1.09.99-1.63.3-.5.59-1.01.88-1.52.3-.54.63-1.05.98-1.56.03-.04-.04-.08-.07-.04Z"/>
        <path class="cls-5" d="m399.15,339.99c-.18-.31-.94.04-1.18.11-.58.17-1.15.34-1.73.52-1.15.34-2.32.64-3.42,1.12-.4.18-.2.85.24.74,1.18-.29,2.3-.77,3.43-1.2.57-.22,1.13-.43,1.7-.65.17-.06,1.13-.34.96-.63Z"/>
        <path class="cls-5" d="m399.88,345.87c-.98.2-1.95.39-2.93.56-.94.16-1.89.29-2.78.66-.25.1-.16.49.11.46.97-.1,1.89-.44,2.81-.74.93-.3,1.87-.6,2.81-.88.04-.01.02-.07-.02-.06Z"/>
        <path class="cls-5" d="m400.92,355.9c-1.02-.09-2.03-.33-3.03-.51-1.04-.19-2.1-.33-3.16-.31-.39,0-.33.58,0,.65,1.01.19,2.06.22,3.09.21,1.03,0,2.07-.09,3.1,0,.02,0,.02-.03,0-.03Z"/>
        <path class="cls-5" d="m405.53,342.58c-.73-.02-1.46.01-2.19.08-.36.04-.71.09-1.07.15-.37.07-.69.21-1.03.37-.22.11-.11.41.13.36.34-.08.68-.14,1.02-.26.32-.12.65-.22.97-.31.71-.19,1.44-.3,2.17-.36.02,0,.02-.04,0-.04Z"/>
        <path class="cls-5" d="m403.99,335.41c-.93.24-1.86.48-2.8.7-.94.23-1.84.51-2.76.82-.23.08-.1.41.12.35.93-.25,1.84-.51,2.75-.84.9-.33,1.8-.65,2.7-.96.04-.01.02-.07-.02-.06Z"/>
      </g>
      <g>
        <path class="cls-14" d="m392,380.04c-.27,1.64-.59,3.51-.94,5.51-.1.58-.21,1.17-.31,1.78-1.35,7.67-3.06,16.72-4.44,22.01-2.76,10.53-9.9,11.91-9.9,11.91l.91,3.79.59,2.48h-39.36l1.09-4.56.41-1.71s-7.15-1.38-9.9-11.91c-1.35-5.15-3-13.84-4.33-21.37-.07-.41-.15-.82-.22-1.22-.43-2.45-.82-4.75-1.15-6.71-.57-3.43,2.07-6.55,5.55-6.55h56.45c3.48,0,6.12,3.12,5.55,6.55Z"/>
        <path class="cls-5" d="m377.31,425.04l-37.68-2.08.41-1.71c.98.45,36.35,0,36.35,0l.91,3.79Z"/>
        <path class="cls-5" d="m391.06,385.55c-.1.58-.21,1.17-.31,1.78-.11-.09-.22-.18-.34-.27-1.38-1.07-2.95-1.9-4.7-2.15-1.7-.25-3.33.16-4.7,1.18-1.11.83-2.05,1.88-3.11,2.78-.95.8-2.01,1.48-3.23,1.78-1.48.37-3.05.1-4.45-.47-2.88-1.18-4.95-3.62-7.73-4.93-4.78-2.25-9.1,1.81-13.28,3.6-2.18.94-4.55,1.38-6.86.59-2.64-.91-4.51-3.12-7.06-4.18-2.78-1.16-5.98-.15-8.25,1.64-.44.34-.85.71-1.23,1.09-.07-.41-.15-.82-.22-1.22.56-.58,1.15-1.11,1.8-1.58,2.61-1.9,5.93-2.64,8.95-1.3,2.52,1.12,4.57,3.48,7.34,4.01,2.32.44,4.58-.59,6.58-1.65,2.2-1.17,4.33-2.53,6.75-3.2,2.72-.77,5.32-.16,7.67,1.34,2.61,1.66,5.01,4.42,8.28,4.63,2.84.18,4.66-2.42,6.68-3.98,3.64-2.82,7.93-1.84,11.4.54Z"/>
      </g>
    </g>
    <g>
      <path class="cls-5" d="m38.61,341.55c-4.51,0-10.48,2.62-9.29,10.72s13.11,64.72,13.59,69.24c.48,4.53,1.91,11.2,6.91,11.44,5,.24,111.02,0,115.31,0s6.19-3.34,5.96-6.91c-.24-3.57-14.3-73.06-15.26-79.01s-5.72-6.43-13.82-5.96c-6.68.39-103.4.48-103.4.48Z"/>
      <path d="m171.08,426.04c-.24-3.57-14.3-73.05-15.26-79.01-.94-5.92-5.66-6.43-13.67-5.96,3.99.41,6.39,1.93,7.03,5.96.95,5.95,15.02,75.44,15.26,79.01.22,3.39-1.48,6.57-5.33,6.88v.04c3.34,0,5.48,0,6.01,0,4.29,0,6.19-3.34,5.95-6.91Z"/>
      <path class="cls-1" d="m35.42,352.15l1.52,10.51c.25,1.72,1.71,2.94,3.43,2.87l14.93.04c2.1-.09,3.73-2.05,3.46-4.17l-1.33-10.89c-.22-1.72-1.65-2.96-3.36-2.92l-15.12.33c-2.16.05-3.84,2.06-3.53,4.22Z"/>
      <g>
        <path class="cls-5" d="m45.6,354.2c0,2.31-1.87,4.18-4.18,4.18s-4.18-1.87-4.18-4.18,1.87-4.17,4.18-4.17,4.18,1.87,4.18,4.17Z"/>
        <path class="cls-16" d="m43.8,354.2c0,1.31-1.06,2.38-2.38,2.38s-2.38-1.06-2.38-2.38,1.06-2.38,2.38-2.38,2.38,1.06,2.38,2.38Z"/>
      </g>
      <g>
        <circle class="cls-5" cx="51.89" cy="360.09" r="4.18"/>
        <circle class="cls-16" cx="51.89" cy="360.09" r="2.38"/>
      </g>
      <path d="m167.84,431.62c-2.31-.18-4.59-.39-6.9-.52-2.31-.13-4.63-.19-6.95-.24-4.43-.09-8.86-.09-13.29-.11-9.02-.04-18.05-.1-27.07-.1-18.09,0-36.18,0-54.27-.01h-15.23c-5.03,0-10.09-.15-15.11.1-1.27.06-1.22,2.17.05,2.24,4.57.24,9.17.1,13.74.1,4.44,0,8.88,0,13.33,0,9.01,0,18.02,0,27.03,0,18.01,0,36.03,0,54.04-.1,5.28-.03,10.57,0,15.85-.1,2.44-.05,4.89-.08,7.33-.23,2.49-.15,4.95-.36,7.43-.55.25-.02.3-.44.03-.46Z"/>
      <path d="m29.01,430.73l11.52-25.09,121.79-.3s-6.86,27.42-7.55,26.96c-.68-.46-125.76-1.57-125.76-1.57Z"/>
    </g>
    <g>
      <path class="cls-16" d="m457.37,330.83h0c1.27,1.54,1.42,3.72.36,5.41l-18.1,28.94c-5.02,8.03-7.69,17.31-7.69,26.78v17.8h-10.48v-19.46c0-9.69,2.79-19.18,8.03-27.33l20.4-31.7c1.7-2.64,5.47-2.86,7.47-.45Z"/>
      <path class="cls-5" d="m406.7,287.66c.27.81,33.99,48.76,45.29,64.82,1.93,2.74,5.83,3.16,8.3.88h0c2.13-1.97,2.39-5.24.59-7.51l-49.97-63.38-4.21,5.19Z"/>
      <g>
        <path class="cls-8" d="m352.12,251.65s-1.32,38.41,38.43,62.21c1.18-42.93-25.14-59.74-38.43-62.21Z"/>
        <path class="cls-1" d="m370.43,264.27s-7.65,26.21,18.02,30.31c-3.17-21.6-18.02-30.31-18.02-30.31Z"/>
        <path class="cls-5" d="m390.55,313.87c-.67-5.65-1.87-10.91-3.45-15.8-9.98-30.94-34.98-46.42-34.98-46.42,44.45-7.92,70.43-1.95,73.83,5.63,3.4,7.59-18.53,38.91-35.4,56.59Z"/>
        <path class="cls-16" d="m392.23,293.01c-.4-2.77-.99-5.41-2-8.02-.97-2.51-2.09-4.97-3.39-7.33-2.6-4.74-5.82-9.15-9.59-13.02-1.06-1.09-2.17-2.11-3.32-3.1-.59-.51-1.2-1-1.81-1.48-.63-.49-1.32-.86-1.94-1.37-.03-.03-.08.02-.05.05.89.73,1.64,1.68,2.44,2.52.97,1,1.88,2.06,2.8,3.1,1.78,2.03,3.46,4.15,5.01,6.37,3.05,4.36,5.64,9.09,7.64,14.02,1.15,2.82,2.29,5.68,3.31,8.55.18.52.96.22.88-.28Z"/>
        <path class="cls-16" d="m394.97,281.27c-.32-1.18-.54-2.3-1.06-3.43-.48-1.04-1.02-2.06-1.56-3.07-1.1-2.02-2.32-4.04-3.71-5.88-1.37-1.82-2.8-3.62-4.37-5.28-.8-.85-1.64-1.67-2.5-2.46-.91-.83-1.91-1.55-2.8-2.4-.04-.04-.11.02-.06.06,1.71,1.62,3.12,3.67,4.55,5.54,1.36,1.78,2.65,3.59,3.82,5.49,1.2,1.95,2.37,3.9,3.43,5.92.53,1.02,1.02,2.07,1.52,3.1.48.99,1.12,1.85,1.64,2.8.32.58,1.27.24,1.09-.42Z"/>
        <path class="cls-16" d="m394.3,266.51c-2-2.58-4.52-4.64-7.01-6.72-.04-.03-.09.01-.06.05,2.14,2.42,4.27,4.89,5.92,7.68.7,1.18,1.3,2.41,1.78,3.69.49,1.3.72,2.67,1.06,4.01.19.75,1.47.67,1.55-.11.3-3.05-1.43-6.27-3.24-8.61Z"/>
        <path class="cls-16" d="m390.55,313.87c-.67-5.65-1.87-10.91-3.45-15.8,22.94-11.64,38.86-40.79,38.86-40.79,3.4,7.59-18.53,38.91-35.4,56.59Z"/>
      </g>
      <circle class="cls-16" cx="449.52" cy="339.73" r="2.63"/>
      <polygon class="cls-14" points="399.24 414.83 399.24 404.04 455.74 404.04 455.74 425.63 399.24 414.83"/>
      <path class="cls-1" d="m380.55,428.31h91.06s.35-10.9-9.5-13.49h-68.07c-2.57,0-14.1.92-13.49,13.49Z"/>
      <path class="cls-16" d="m455.54,413.48c-1.89-.54-4.03-.44-5.99-.49-1.91-.05-3.83-.07-5.74-.09-3.89-.05-7.78-.07-11.67-.06-7.95,0-15.88.19-23.81.69-2.18.14-4.36.28-6.54.42-2.25.15-4.47.59-6.73.69-.05,0-.05.08,0,.08,1.97-.08,3.91.18,5.87.18,1.98,0,3.97,0,5.95.01,3.93.02,7.87.08,11.8.08,7.88,0,15.76-.06,23.64.03,2.15.03,4.31.06,6.46.1,2.21.04,4.61.26,6.78-.23.74-.17.63-1.23-.03-1.42Z"/>
    </g>
    <g>
      <g>
        <g>
          <path class="cls-1" d="m250.27,177.27c-1.16,1.7-3.52,2.14-5.96,1.81-.69-.09-1.37-.19-2.06-.31-8.64-1.39-16.89-3.98-25.28-6.05-1.44-.35-2.89-.69-4.34-1.01-5.11-1.11-10.21-2.43-15.46-3.16-2.65-.38-5.32-.7-7.93-1.21-1.34-.27-2.66-.55-3.99-.83-.89-.19-1.78-.38-2.66-.56-2.41-.35-4.51-1.17-6.31-2.46-2.26-.85-2.94-3.56-2.49-5.13.54-1.91,2.46-3.34,5-4.03,4.1-1.11,7.53.02,11.26,1.16,6.71,2.04,12.99,4.63,19.74,6.59,2.51.73,5.08,1.41,7.66,2.07,9.35,2.39,18.98,4.5,27.84,7.56,1.11.38,2.19.77,3.27,1.18,2.17.82,2.7,2.96,1.71,4.41Z"/>
          <path class="cls-14" d="m245.3,171.67c-.74,3.19-2.38,6.04-3.04,7.09-8.64-1.39-16.89-3.98-25.28-6.05-.3-3.44.07-6.48.48-8.59,9.35,2.39,18.98,4.5,27.84,7.56Z"/>
          <path class="cls-1" d="m239.63,155.83c-3.92-4.54-7.23-10.55-10.2-17-2.17-4.69-4.14-9.61-6.04-14.37-2.41-6.07-4.59-12.31-6.65-18.73,0-.02-.01-.04-.02-.06-1.86-5.82-4.33-12.36-4.74-19.03-.13-2.2,1.5-3.74,2.52-2.27,2.91,4.16,4.78,10.68,6.84,16.03.39,1.04.8,2.07,1.2,3.11,1.89,4.81,3.82,9.57,5.72,14.36,2.24,5.6,4.68,11.11,6.99,16.75,2.47,5.98,4.78,12.12,6.54,18.66.6,2.29-1.14,3.73-2.16,2.55Z"/>
          <path class="cls-14" d="m241.79,153.28c.6,2.29-1.14,3.73-2.16,2.55-3.92-4.54-7.23-10.55-10.2-17,1.28-1.3,3.13-2.76,5.82-4.21,2.47,5.98,4.78,12.12,6.54,18.66Z"/>
          <path class="cls-14" d="m221.34,100.4c.4,1.04.8,2.07,1.21,3.11-2.26,1.16-4.25,1.81-5.82,2.17-1.86-5.82-4.33-12.37-4.74-19.03-.13-2.2,1.5-3.73,2.52-2.27,2.91,4.16,4.77,10.68,6.83,16.03Z"/>
          <path class="cls-1" d="m203.77,90.04c-3.38,4.67-7.38,8.17-11.65,11.78-.93.79-1.88,1.58-2.83,2.39-.74.63-1.49,1.31-2.26,2.02-3.95,3.65-8.34,8.06-13.15,9.59-1.5.48-3.3-.76-2.9-2.45,1.05-4.37,4.48-8.42,8.02-11.93,1.64-1.63,3.3-3.14,4.77-4.51.48-.45.95-.89,1.43-1.32,4.7-4.27,9.29-7.68,15.49-9.77,2.59-.88,4.66,2,3.08,4.2Z"/>
          <path class="cls-14" d="m203.77,90.04c-3.38,4.67-7.38,8.17-11.65,11.78-3.37-2.11-5.56-4.36-6.92-6.21,4.7-4.27,9.29-7.68,15.49-9.77,2.59-.88,4.66,2,3.08,4.2Z"/>
          <path class="cls-14" d="m187.03,106.23c-3.95,3.65-8.34,8.06-13.15,9.59-1.5.48-3.3-.76-2.9-2.45,1.05-4.37,4.48-8.42,8.02-11.93,2.24,1.08,5.16,2.68,8.03,4.79Z"/>
          <path class="cls-1" d="m275.76,80.28c-1.59,1.5-3.84,1.91-6.2,1.93-2.31.04-4.71-.31-6.67-.38-3.32-.11-6.64-.23-9.96-.34-1.11-.04-2.23-.08-3.34-.12-3.66-.13-7.33-.24-10.99-.41-1.01-.04-2.01-.09-3.03-.15-4.49-.26-9.62-.26-13.79-2.09-2.78-1.22-3.73-6.17-.23-7.29,4.82-1.54,10.24-1.1,15.27-.8.62.04,1.24.07,1.85.12,4.08.25,8.16.53,12.23.82,1.65.12,3.31.23,4.97.35,3.27.23,6.54.46,9.81.69,2.02.15,4.1.14,6.01.54,1.75.36,3.36,1.08,4.65,2.56,1.23,1.43.64,3.42-.58,4.57Z"/>
          <path class="cls-14" d="m271.69,73.15l-1.75,8.5s-.13.21-.38.56c-2.31.04-4.71-.31-6.67-.38-3.32-.11-6.64-.23-9.96-.34.32-3.54,1.63-6.94,2.94-9.57,3.27.23,6.54.46,9.81.69,2.02.15,4.1.14,6.01.54Z"/>
          <path class="cls-14" d="m238.6,80.96c-1.01-.04-2.02-.09-3.03-.15-4.49-.26-9.63-.26-13.79-2.09-2.79-1.22-3.73-6.18-.24-7.29,4.83-1.54,10.24-1.11,15.27-.8.62.04,1.24.07,1.86.12.45,2.95.48,6.52-.07,10.21Z"/>
          <path class="cls-1" d="m291.86,116.02c-1.18,6.32-4.11,12.24-6.88,18.03-.31.62-.6,1.24-.89,1.85-.81,1.72-1.62,3.43-2.46,5.13-1.23,2.5-2.52,4.97-3.95,7.39-2.12,3.59-4.45,5.64-7.82,8.03-2.03,1.44-4.29-.34-4.17-2.57.22-4.24.89-7.31,2.93-11.13,1.42-2.65,2.91-5.24,4.5-7.78.45-.71.89-1.41,1.35-2.11.52-.79,1.03-1.6,1.54-2.42,3.61-5.7,7.25-11.66,12.2-16.19,1.45-1.32,4.07-.47,3.65,1.77Z"/>
          <path class="cls-14" d="m269.86,156.45c-2.03,1.44-4.29-.34-4.17-2.57.22-4.24.89-7.31,2.93-11.13,1.42-2.65,2.91-5.24,4.5-7.78,3.02,1.59,5.9,3.59,8.51,6.06-1.23,2.5-2.52,4.97-3.95,7.39-2.12,3.59-4.45,5.64-7.82,8.03Z"/>
          <path class="cls-14" d="m291.86,116.02c-1,5.37-3.27,10.46-5.64,15.42-4.39-1.24-6.94-2.75-8.4-3.86,3.05-4.78,6.26-9.55,10.39-13.33,1.45-1.32,4.07-.47,3.65,1.77Z"/>
          <path class="cls-1" d="m335.6,159.83c-1.68,4.42-9.52,5.15-13.5,6.21-2.35.62-4.69,1.24-7.04,1.85-3.41.89-6.82,1.76-10.24,2.57-4.39,1.05-8.77,2.1-13.17,3.05-1.4.31-2.8.61-4.21.89-5.97,1.2-11.96,1.98-17.93,3.1-.65.11-.89-.75-.28-.99,6.2-2.33,12.24-4.96,18.48-7.2,1.47-.53,2.95-1.03,4.43-1.53,3.86-1.3,7.76-2.52,11.65-3.76,3.08-.98,6.17-1.92,9.27-2.84,2.34-.69,4.68-1.38,7.02-2.06,4.14-1.21,11.06-4.65,15.07-1.55.7.55.74,1.51.45,2.26Z"/>
          <path class="cls-14" d="m292.14,167.78c-.05,2.1-.25,4.04-.49,5.73-1.4.31-2.8.61-4.21.89-5.97,1.2-11.96,1.98-17.93,3.1-.65.11-.89-.75-.28-.99,6.2-2.33,12.24-4.96,18.48-7.2,1.47-.53,2.95-1.03,4.43-1.53Z"/>
          <path class="cls-14" d="m335.6,159.83c-1.68,4.42-9.52,5.15-13.5,6.21-2.35.62-4.69,1.24-7.04,1.85-1.07-2.41-1.67-4.75-2-6.71,2.34-.69,4.68-1.38,7.02-2.06,4.14-1.21,11.06-4.65,15.07-1.55.7.54.74,1.5.45,2.25Z"/>
          <path class="cls-1" d="m342.5,148.34c-.01.45-.13.89-.27,1.32-.08.37-.21.69-.36.99-.02.06-.04.12-.06.18-.12.27-.29.5-.52.69-.35.38-.5.48-.46.35-.87.61-2.02.78-3.24.43-3.71-1.1-6.05-5.28-8.16-8.26-2.44-3.42-4.49-7.01-6.6-10.64-.3-.51-.59-1.03-.88-1.54-1.91-3.38-3.65-6.84-5.5-10.25-1.81-3.34-3.99-7.25-4.21-11.1-.09-1.6,1.53-2.68,2.98-2.03,4.13,1.85,7.27,6.22,10,9.7,2.22,2.84,4.42,5.68,6.49,8.61.56.78,1.11,1.56,1.64,2.35,2.77,4.09,5.39,8.2,7.31,12.76.84,1.98,1.96,4.22,1.86,6.42Z"/>
          <path class="cls-14" d="m331.7,126.8c-2.66,1.94-5.87,3.66-9.75,5.06-1.91-3.38-3.65-6.84-5.5-10.25-1.81-3.34-3.99-7.25-4.21-11.1-.09-1.6,1.53-2.68,2.98-2.03,4.13,1.85,7.27,6.22,10,9.7,2.22,2.84,4.42,5.68,6.49,8.61Z"/>
        </g>
        <g>
          <circle class="cls-1" cx="158.1" cy="143.32" r="43.84"/>
          <circle class="cls-1" cx="254.13" cy="167.39" r="34.24"/>
          <circle class="cls-1" cx="208.17" cy="75.87" r="27.66" transform="translate(86.51 261.04) rotate(-76.72)"/>
          <circle class="cls-1" cx="339.75" cy="158.82" r="22.2" transform="translate(-4.72 307.11) rotate(-48.35)"/>
          <circle class="cls-1" cx="301.21" cy="87.12" r="44.13"/>
        </g>
      </g>
      <g>
        <g>
          <path class="cls-4" d="m165.73,121.17v6.57s4.69-1.78,4.93,1.5c.23,3.29-5.35,1.17-5.35,1.17l-.26,6.07,7.67,7.54,7.64-7.38v-12.53c0-1.13.25-2.86-1.77-2.86s-12.86-.09-12.86-.09Z"/>
          <path class="cls-11" d="m165.05,136.49h5.87s-1.37,4.72,1.32,4.72,2.41-3.07,1.87-4.55h6.26l.29,14.29-8.2,4.15-9.55-4.66-5.6-6.04,7.74-7.9Z"/>
          <path class="cls-8" d="m151.27,136.61l4.94-.07s-1.1,4.77,1.98,4.61,1.43-4.66,1.43-4.66h5.43l.22,6.26s-4.32-1.89-4.12,1.37c.05,2.36,3.77,1.1,3.77,1.1l.12,5.88-5.65,8.44-11.08-6.42s-14.38-5.43-6.86-10.59l7.52-5.16,2.3-.75Z"/>
          <path class="cls-8" d="m165.05,164.16h13.27c1.27,0,2.14-.92,2.24-2.95s.1-10.27.1-10.27h-6.15s.86-4.73-2.19-4.17-1.47,4.32-1.47,4.32h-5.8l-6.41,6.25,6.41,6.81Z"/>
          <path class="cls-11" d="m151.23,150.93h5.27s-1.58,3.67.66,4.43,3.92-1.98,2.59-4.27h5.29v5.24s-1.83-1.02-3.61.05c-1.78,1.07-.31,3.66,3.61,2.54v5.24l-14,.24-7.81-6.14,8-7.33Z"/>
          <path class="cls-8" d="m137.44,150.87v9.69c0,1.72.28,3.85,2.18,3.85h11.43v-5.51s-3.2.71-4.32-.47c-1.13-1.18.32-3.04,1.72-2.9,1.4.14,2.61.71,2.61.71l.18-5.3s-3.44-6.01-7.17-5.54c-3.73.47-6.62,5.47-6.62,5.47Z"/>
          <path class="cls-11" d="m137.44,136.49v14.38h4.8s-2.35-3.42,1.14-4.23,3.09,3.35,2.28,4.29h5.57v-5.5s-4.36,1.41-4.43-1.34,4.36-1.41,4.36-1.41l.1-6.07-6.55-6.75-7.28,6.62Z"/>
          <path class="cls-4" d="m140.28,121.33l10.88-.12v5.91s3.38-1.33,4.41.61c.97,1.81-.86,4.08-4.31,2.81,0,3.25.01,6.08.01,6.08l-5.63-.2s1.21-4.34-1.63-4.01c-2.84.33-1.58,4.09-1.58,4.09h-4.98v-12.84c0-.7.22-2.34,2.84-2.32Z"/>
          <path class="cls-11" d="m160.25,129.45s-3.78,2.09-1.85,4.61c1.94,2.52,4.15-2.4,4.15-2.4l3.51,3.6,4.4-4.03s1.6,3.85,4.03,3.05c2.43-.8,1.29-2.77.74-3.14s-2.49-1.78-2.49-1.78l4.61-4.92-10.43-9.6-4.31,4.21s3.6,2.58,2.43,3.97c-1.17,1.38-3.29-.25-3.91-1.91-2.46,2.31-4.49,4.71-4.49,4.71l3.6,3.63Z"/>
          <path class="cls-5" d="m142.05,150.89c-.16-.11-.34-.11-.53-.11-.21,0-.42,0-.63,0-.39,0-.78.02-1.17.03-.43.02-.87.04-1.3.09-.21.02-.41.04-.62.06-.16.01-.31.02-.44.11,0,0,0,0,0,.01.14.09.28.09.43.1.21.01.42.02.63.04.42.03.84.05,1.27.06.42,0,.84.02,1.26,0,.33-.01.81.05,1.1-.14.08-.05.08-.18,0-.24Z"/>
          <path class="cls-5" d="m146.59,148.08c-.1-.93-.73-1.56-1.64-1.76-1.6-.34-3.55.51-3.87,2.24-.17.91.12,1.82.88,2.37.01.01.03-.01.02-.02-.76-1.11-.51-2.86.6-3.64,1.04-.74,3.35-.83,3.41.88.02.45-.09.87-.2,1.3-.06.24-.13.47-.17.72-.05.27-.1.52.07.76.07.1.26.11.33.02.18-.2.17-.45.23-.7.06-.25.12-.5.18-.76.11-.46.21-.93.16-1.41Z"/>
          <path class="cls-5" d="m156.28,150.69c-1.72-.26-3.52-.2-5.26-.2-.86,0-1.72.06-2.57.11-.44.03-.88.05-1.32.08-.44.03-.9.13-1.33.13-.02,0-.02.03,0,.03.26,0,.51.07.77.09.21.02.42.03.63.04.45.03.9.06,1.35.09.88.06,1.76.1,2.64.1,1.68,0,3.42.05,5.08-.2.14-.02.16-.24,0-.26Z"/>
          <path class="cls-5" d="m170.53,151.02c-1.81-.03-3.6-.15-5.41-.16-.87,0-1.73.04-2.6.07-.46.01-.93,0-1.38.07-.48.07-.93.11-1.41.11-.02,0-.02.03,0,.03.51,0,.98.08,1.48.15.42.06.85.06,1.27.08.9.05,1.81.11,2.71.12,1.77.02,3.53-.05,5.29-.05.27,0,.31-.42.04-.42Z"/>
          <path class="cls-5" d="m173.95,146.9c-.68-.41-1.57-.37-2.29-.1-.73.28-1.27.86-1.44,1.64-.09.41-.09.85-.05,1.26.03.26.06.52.11.78.03.13.05.26.08.38.04.14.11.28.09.43,0,0,.01,0,.02,0,.03-.2.18-.38.22-.59.04-.19.06-.39.07-.58.01-.34,0-.68.04-1.02.07-.63.27-1.24.85-1.58.52-.3,1.27-.43,1.83-.15.48.24.77.77.88,1.28.17.8-.03,1.6-.12,2.39-.05.43.53.59.67.16.44-1.44.55-3.43-.94-4.32Z"/>
          <path class="cls-5" d="m180.39,150.99c-1.01-.21-2.03-.24-3.06-.25-.5,0-.99,0-1.48.03-.42.02-1.11-.02-1.41.32-.08.09-.03.24.06.3.32.23.89.1,1.26.07.47-.04.93-.08,1.4-.12,1.08-.09,2.16-.13,3.23-.29.02,0,.02-.04,0-.05Z"/>
          <path class="cls-5" d="m166.45,135.24c-.12-.21-.33-.38-.5-.55-.15-.15-.31-.3-.47-.45-.32-.29-.63-.58-.95-.87-.66-.6-1.36-1.17-2.02-1.78,0,0-.03,0-.02.02.54.72,1.06,1.46,1.64,2.14.29.34.58.66.88.98.16.17.32.33.49.49.16.15.32.35.52.44.28.13.57-.15.42-.43Z"/>
          <path class="cls-5" d="m170.18,131.05c-.78.64-1.49,1.34-2.21,2.05-.34.34-.66.69-.98,1.05-.32.37-.6.78-.91,1.16-.06.08.04.21.13.14.38-.31.79-.58,1.16-.91.37-.32.73-.65,1.08-1,.71-.72,1.41-1.43,2.05-2.21.16-.2-.14-.44-.32-.29Z"/>
          <path class="cls-5" d="m175.24,131.08c-.71-.58-1.81-.81-2.23-1.7-.17-.35-.77-.07-.63.29.27.69.87,1.1,1.5,1.44.53.29,1.27.61,1.44,1.25.2.76-.56,1.32-1.23,1.36-.69.04-1.42-.23-2-.59-.65-.4-1.3-1.09-1.5-1.84-.04-.14-.23-.06-.2.07.09.4.17.8.36,1.17.18.36.44.7.72.98.61.61,1.42.99,2.29.99.86,0,1.77-.43,2.13-1.24.37-.82.02-1.65-.65-2.19Z"/>
          <path class="cls-5" d="m177.16,124.28c-.24.12-.45.37-.64.56-.19.19-.37.4-.56.59-.39.42-.79.83-1.17,1.26-.76.85-1.5,1.73-2.25,2.59-.1.12.08.26.19.15.82-.78,1.65-1.54,2.46-2.34.4-.39.79-.8,1.18-1.2.19-.2.38-.39.57-.59.21-.22.45-.46.58-.73.1-.21-.18-.4-.36-.3Z"/>
          <path class="cls-5" d="m137.91,132.91c-.03-1.3-.05-2.6-.11-3.9-.06-1.37-.16-2.74-.17-4.11,0-.11-.18-.1-.18.01,0,2.4-.21,4.81-.26,7.22-.05,2.41-.06,4.83-.07,7.24,0,4.74-.05,9.49.08,14.23.07,2.68.04,5.36.15,8.03,0,.2.35.2.36,0,.11-2.41.1-4.82.13-7.23.04-2.39.12-4.78.11-7.18,0-4.77.04-9.55-.06-14.32Z"/>
          <path class="cls-5" d="m139.71,164.24c-.14-.01-.28-.04-.41-.08-.15-.05-.26-.09-.37-.15-.26-.12-.46-.28-.66-.45-.21-.19-.39-.41-.51-.66-.12-.26-.17-.56-.18-.84,0,0-.01-.01-.01,0-.27.62-.06,1.39.33,1.91.41.55,1.15.88,1.83.7.22-.06.23-.39-.02-.41Z"/>
          <path class="cls-5" d="m177.55,164.1c-9.84-.09-19.68-.26-29.53-.16-1.38.01-2.75.03-4.13.1-1.5.07-2.99.19-4.5.19-.14,0-.12.21.02.22,2.52,0,5.03.25,7.55.28,2.46.03,4.92.02,7.38.02,4.96,0,9.92,0,14.88-.06,2.77-.03,5.54-.09,8.3-.11.3,0,.34-.47.03-.47Z"/>
        </g>
        <g>
          <path class="cls-14" d="m328.49,91.54s-10.34,10.34-26.97,10.74c-16.63.39-26.19-12.18-26.19-12.18,0,0,5.59-7.12,15.72-10.65,3.12-1.08,6.66-1.82,10.6-1.92,4.47-.1,8.47.85,11.92,2.29,9.5,3.98,14.92,11.72,14.92,11.72Z"/>
          <path class="cls-9" d="m314.88,85.44c0,7-5.67,12.67-12.68,12.67s-12.67-5.67-12.67-12.67c0-2.17.54-4.21,1.5-5.99,3.12-1.08,6.66-1.82,10.6-1.92,4.47-.1,8.47.85,11.92,2.29.85,1.7,1.32,3.61,1.32,5.63Z"/>
          <path class="cls-5" d="m308.27,85.44c0,3.35-2.71,6.06-6.06,6.06s-6.06-2.71-6.06-6.06,2.71-6.06,6.06-6.06,6.06,2.71,6.06,6.06Z"/>
          <path class="cls-5" d="m329.72,90.22c-4.66-6.56-12.31-11.01-20.06-12.81-8.1-1.88-16.7-.68-24.03,3.22-2,1.06-3.86,2.32-5.61,3.75-1.8,1.47-3.31,3.28-4.71,5.13-.31.42.27.85.62.49,2.71-2.76,6.05-5.12,9.45-6.95,3.33-1.79,7.04-3.07,10.77-3.7,7.51-1.28,15.18.17,21.83,3.84,3.82,2.11,7.07,5.01,9.95,8.26.9,1.02,2.63-.07,1.79-1.25Z"/>
          <path class="cls-5" d="m285.9,80.3c-.28-.3-.63-.51-.95-.75-.31-.24-.61-.52-.88-.8-.56-.58-1.05-1.2-1.46-1.9-.81-1.37-1.41-3.07-1.19-4.66.04-.29-.4-.39-.44-.1-.14.88-.24,1.8-.23,2.69.02.93.28,1.86.61,2.73.33.86.83,1.68,1.42,2.38.59.69,1.42,1.52,2.32,1.75.77.2,1.35-.74.8-1.33Z"/>
          <path class="cls-5" d="m303.96,72.52c-.08-.88-.16-1.77-.24-2.65-.08-.82-.24-1.65-.25-2.47,0-.38-.57-.32-.58.04-.01.85-.18,1.71-.26,2.55-.08.82-.15,1.65-.23,2.47-.15,1.62-.25,3.29-.13,4.91.09,1.18,1.75,1.15,1.83-.02.11-1.6.02-3.24-.13-4.84Z"/>
          <path class="cls-5" d="m327.91,76.26c-.35.59-.79,1.14-1.31,1.59-.51.43-1,.89-1.52,1.3-1.01.8-2.12,1.48-3.26,2.09-.51.28-1.74.59-1.58,1.35.2.99,1.62.31,2.19.08,1.29-.5,2.46-1.3,3.44-2.27.53-.53,1.05-1.1,1.43-1.76.4-.71.81-1.41,1.2-2.12.2-.36-.37-.62-.58-.27Z"/>
          <path class="cls-5" d="m293.51,78.2c-.19-.43-.53-.69-.83-1.04-.28-.33-.52-.67-.73-1.05-.39-.74-.66-1.54-.6-2.39.02-.35-.51-.46-.54-.11-.09.96-.05,1.93.23,2.86.14.45.34.89.59,1.29.3.47.64,1,1.2,1.15.43.12.88-.26.68-.71Z"/>
          <path class="cls-5" d="m280.96,84.29c-.11-.12-.24-.23-.38-.3-.1-.05-.21-.09-.31-.13-.16-.07-.32-.14-.47-.21,0,0,0,0,0,0-.01,0-.02-.01-.03-.02-.08-.04-.16-.08-.24-.12-.07-.03-.13-.06-.2-.1-.16-.08-.31-.18-.45-.28-.27-.19-.53-.41-.78-.63-.13-.12-.26-.24-.38-.38-.12-.14-.19-.29-.27-.45-.12-.27-.55-.13-.44.15.07.19.16.36.22.55.06.19.13.37.21.55.19.41.44.76.74,1.08.3.32.63.62,1.01.84.41.23.96.51,1.44.37.2-.06.36-.16.44-.36.07-.18.04-.42-.1-.57Z"/>
          <path class="cls-5" d="m314.17,74.89c-.24.31-.46.65-.73.94-.26.28-.52.54-.78.82-.26.27-.52.56-.77.84-.14.15-.27.3-.41.45-.16.18-.36.37-.42.61-.07.25-.01.52.21.67.22.16.49.11.7-.03.33-.22.52-.7.71-1.03.2-.35.41-.69.61-1.04.18-.31.35-.63.53-.94.19-.35.45-.66.68-.99.16-.23-.15-.52-.33-.29Z"/>
          <path class="cls-5" d="m328.75,84.09c-.51.46-1.08.85-1.71,1.12-.16.07-.32.14-.49.2-.08.03-.17.06-.25.09-.01,0-.03,0-.04.01-.04.01-.08.02-.12.04-.28.08-.5.18-.66.43-.03.07-.04.08-.02.04.01-.03.01-.03,0,0-.03,0-.05.06-.07.08-.05.06-.1.12-.15.19-.07.11,0,.27.11.32.08.04.18.07.27.09.1.02.15.04.21.05.25.07.5,0,.72-.13.37-.2.72-.43,1.05-.68.57-.44,1.1-.93,1.55-1.5.21-.27-.15-.57-.39-.34Z"/>
          <path class="cls-5" d="m326.06,92.59c-1.41,1.17-2.75,2.4-4.31,3.38-1.46.92-3,1.75-4.59,2.43-3.22,1.38-6.56,2.49-10.03,3.01-6.97,1.03-14.04-.1-20.35-3.27-1.71-.86-3.36-1.85-4.94-2.94-.94-.65-1.84-1.34-2.76-2.01-.8-.58-1.64-1.05-2.33-1.76-.19-.2-.55.11-.37.32.58.69,1.03,1.48,1.58,2.19.6.79,1.31,1.48,2.05,2.12,1.48,1.29,3.06,2.44,4.76,3.42,3.17,1.84,6.62,3.19,10.2,3.95,7.36,1.57,15.45.71,22.14-2.85,1.75-.93,3.41-2.04,4.97-3.25,1.61-1.25,3.25-2.58,4.56-4.14.31-.37-.22-.92-.6-.61Z"/>
          <path class="cls-5" d="m284.71,97.92c-.34.16-.58.49-.82.76-.19.21-.37.43-.55.64-.37.46-.71.95-1.04,1.44-.68,1-1.3,2.04-1.87,3.11-.18.34.36.69.58.37.66-.97,1.37-1.9,2.13-2.8.36-.42.73-.83,1.11-1.24.2-.22.4-.45.6-.67.25-.27.54-.52.67-.87.19-.49-.35-.95-.82-.74Z"/>
          <path class="cls-5" d="m301.47,106.31c.02-.99.12-1.97.16-2.96.02-.44-.36-.82-.8-.83-.46,0-.8.36-.83.8-.08,1.08.03,2.17.17,3.25.13,1,.38,1.99.66,2.96.11.38.68.22.66-.15-.05-1.02-.04-2.04-.02-3.07Z"/>
          <path class="cls-5" d="m322.64,101.82c-.28-.49-.58-.97-.82-1.48-.26-.56-.48-1.16-.81-1.69-.24-.39-.72-.83-1.19-.51-.16.1-.26.27-.28.46,0,.08,0,.17.04.25.02.06.06.11.09.17-.05-.08-.13-.21-.07-.03.02.05.04.1.06.15.04.09.09.17.15.25.33.47.75.86,1.13,1.29.43.47.81.99,1.21,1.5.24.31.69-.01.5-.35Z"/>
          <path class="cls-5" d="m290.81,101.7c-.22-.08-.53,0-.61.25-.16.47-.29.94-.43,1.41-.13.45-.25.9-.41,1.34-.05.13-.02.28.12.35.12.06.3.01.35-.12.09-.23.18-.46.29-.69.11-.21.21-.42.32-.62.22-.43.43-.87.62-1.31.1-.22-.02-.53-.25-.61Z"/>
          <path class="cls-5" d="m313.8,103.79c-.07-.2-.15-.41-.18-.62-.03-.22-.08-.44-.09-.66,0-.22-.07-.43-.11-.64-.05-.24-.14-.48-.21-.72-.07-.23-.39-.34-.59-.24-.23.11-.32.35-.24.59.15.42.29.87.55,1.24.12.17.2.36.3.54.11.2.17.42.24.63.08.22.42.11.35-.11Z"/>
          <path class="cls-1" d="m314.34,87.77c0,1.03-2.13,1.86-4.76,1.86s-4.76-.83-4.76-1.86,2.13-1.86,4.76-1.86,4.76.83,4.76,1.86Z"/>
        </g>
        <g>
          <g>
            <rect class="cls-5" x="195" y="54.93" width="27.53" height="41.01" rx="2.83" ry="2.83"/>
            <rect class="cls-9" x="195.31" y="55.95" width="26" height="38.72" rx="2.67" ry="2.67"/>
            <rect class="cls-1" x="198.93" y="59.16" width="18.88" height="7.39"/>
            <rect class="cls-1" x="198.73" y="69.91" width="5.01" height="5.73" rx=".78" ry=".78"/>
            <rect class="cls-1" x="198.73" y="77.71" width="5.01" height="5.73" rx=".78" ry=".78"/>
            <rect class="cls-1" x="198.73" y="85.52" width="5.01" height="5.73" rx=".78" ry=".78"/>
            <rect class="cls-1" x="205.8" y="69.91" width="5.01" height="5.73" rx=".78" ry=".78"/>
            <rect class="cls-1" x="205.8" y="77.71" width="5.01" height="5.73" rx=".78" ry=".78"/>
            <rect class="cls-1" x="205.8" y="85.52" width="5.01" height="5.73" rx=".78" ry=".78"/>
            <rect class="cls-1" x="212.87" y="69.91" width="5.01" height="5.73" rx=".78" ry=".78"/>
            <path class="cls-1" d="m213.66,77.71c-.43,0-.78.35-.78.78v11.97c0,.43.35.78.78.78h3.44c.43,0,.78-.35.78-.78v-11.97c0-.43-.35-.78-.78-.78h-3.44Z"/>
            <g>
              <rect class="cls-5" x="199.56" y="87.87" width="3.45" height="1.03"/>
              <rect class="cls-5" x="199.56" y="87.87" width="3.45" height="1.03" transform="translate(289.66 -112.9) rotate(90)"/>
            </g>
            <rect class="cls-5" x="206.7" y="88.02" width="3.45" height="1.03"/>
            <rect class="cls-5" x="214.19" y="85.25" width="2.43" height="1.03"/>
            <rect class="cls-5" x="214.19" y="83.7" width="2.43" height="1.03"/>
          </g>
          <path class="cls-5" d="m217.5,66.35c-3.13-.05-6.27-.09-9.4-.08-1.56,0-3.12,0-4.68.03-1.51.03-3.04.01-4.51.34,0,0,0,.01,0,.02,1.53.34,3.13.32,4.69.34,1.54.03,3.07.02,4.61.02,3.09.01,6.18-.04,9.27-.08.38,0,.41-.58.03-.59Z"/>
          <path class="cls-5" d="m218.35,62.9c-.03-.57-.07-1.15-.13-1.72-.06-.66-.21-1.34-.21-2,0-.01-.02-.01-.02,0,0,.6-.13,1.2-.19,1.8-.06.59-.1,1.18-.14,1.77-.07,1.19-.07,2.4-.05,3.59,0,.5.77.47.78-.03.02-1.14.02-2.29-.04-3.42Z"/>
          <path class="cls-5" d="m206.22,81.85c0-.37,0-.74-.01-1.11,0-.36-.05-.71-.09-1.07-.05-.44-.2-.86-.2-1.3,0-.02-.03-.02-.03,0,0,.42-.13.81-.19,1.22-.05.39-.09.77-.1,1.17,0,.39-.01.77-.01,1.16,0,.36-.06.75.1,1.08.09.19.34.16.43-.02.16-.34.1-.77.09-1.14Z"/>
          <path class="cls-5" d="m199.01,82.02c0-.38,0-.76,0-1.14,0-.37-.02-.74-.05-1.11-.04-.4-.15-.79-.23-1.19,0-.01-.02-.01-.03,0-.07.37-.18.75-.22,1.12-.04.38-.05.77-.06,1.15,0,.38,0,.76,0,1.14,0,.37-.05.76.05,1.12.06.23.43.3.5.03.1-.37.06-.75.06-1.13Z"/>
          <path class="cls-5" d="m199,89.51c0-.37,0-.75,0-1.12,0-.38-.02-.75-.07-1.13-.02-.17-.05-.35-.08-.52-.04-.23-.14-.48-.14-.7,0,0,0,0,0,0,0,.21-.09.44-.13.65-.03.18-.06.36-.08.54-.05.37-.07.76-.08,1.13,0,.36,0,.72,0,1.08,0,.41-.02.83.05,1.23.05.31.47.24.51-.03.06-.37.04-.75.04-1.13Z"/>
          <path class="cls-5" d="m205.98,88.4c-.04-.71-.19-1.4-.27-2.1,0-.01-.02-.01-.02,0-.08.69-.23,1.37-.27,2.07-.04.66-.02,1.32.07,1.98.03.24.39.22.42,0,.02-.16.06-.32.07-.49,0-.16.01-.32.02-.48,0-.32,0-.64-.02-.96Z"/>
          <path class="cls-5" d="m213.13,87.33c0-.99,0-1.98,0-2.97,0-.96,0-1.92,0-2.88,0-.47-.02-.95-.07-1.42-.06-.55-.23-1.08-.3-1.63,0-.01-.02-.01-.02,0-.07.54-.23,1.07-.3,1.61-.06.48-.07.98-.08,1.46,0,.99-.01,1.98,0,2.97,0,.96,0,1.92,0,2.88,0,.98-.04,1.98.02,2.97.03.47.7.46.73,0,.06-.99.02-1.99.02-2.98Z"/>
          <path class="cls-5" d="m214.26,91.31s-.04,0-.06,0c0,0-.01,0-.02,0,.01,0,.01,0,0,0-.03,0-.06-.02-.09-.02-.02,0-.03,0-.01,0,.03,0,.01,0-.05-.01-.06-.01-.13-.04-.2-.05-.07-.02-.14-.04-.21-.07-.01,0-.07-.04-.01,0-.02,0-.03-.02-.05-.02-.03-.02-.06-.03-.09-.04,0,0-.03-.01-.03-.02-.14-.07-.28-.14-.4-.24-.12-.11-.29-.17-.33-.34,0-.03-.06-.02-.05.01.04.18,0,.38.08.56.1.2.23.37.41.5.17.12.37.18.57.21.09.02.2,0,.29,0,.05,0,.11-.02.15-.04.02-.01.05-.03.07-.04-.02.01-.02.01,0,0,.02,0,.04-.02.06-.03.14-.06.14-.32-.04-.33Z"/>
        </g>
        <g>
          <rect class="cls-15" x="329.83" y="150.46" width="4.25" height="16.39"/>
          <rect class="cls-4" x="345.61" y="154.33" width="4.25" height="12.51"/>
          <rect class="cls-8" x="337.52" y="145.33" width="4.25" height="21.51"/>
          <path class="cls-5" d="m325.97,158.17c0-1.47-.02-2.95-.03-4.42,0-.71-.01-1.42-.02-2.14-.01-.75.05-1.57-.11-2.3-.09-.41-.71-.33-.79.04-.15.67-.07,1.43-.08,2.11,0,.72,0,1.44,0,2.15,0,1.45,0,2.89.01,4.34,0,2.96-.05,5.93.05,8.89.02.56.98.57,1,0,.08-2.89,0-5.79-.02-8.67Z"/>
          <path class="cls-5" d="m354.72,166.72c-7.61-.16-15.22-.2-22.83-.29-1.08-.01-2.15-.02-3.23-.03-1.04,0-2.13-.09-3.16.03-.56.07-.57.91,0,.99.95.13,1.94.07,2.89.08.93.01,1.86.03,2.79.03,1.88.02,3.77.03,5.65.05,3.74.03,7.48.06,11.22.09,2.22.02,4.45.03,6.67.02.55,0,.57-.96.01-.97Z"/>
        </g>
        <g>
          <path class="cls-5" d="m262.38,174.58c-2.58,5.06-2.37,8.48-2.37,8.48h-11.65s.16-2.55-1.45-6.49c4.18.76,9.73,1.01,15.66-2.35-.07.12-.13.24-.2.37Z"/>
          <path class="cls-8" d="m270.17,160.53c-1.34,9.15-5.03,9-7.59,13.68-.07.12-.13.24-.2.37-2.58,5.06-2.37,8.48-2.37,8.48h-11.65s.16-2.55-1.45-6.49c-.25-.63-.56-1.29-.91-1.99-2.58-5.05-6.85-8.29-7.61-14.71-.54-4.5.4-7.61,2.64-10.59,3.27-4.34,8.21-6.4,13.16-6.27,4.95-.13,9.88,1.93,13.15,6.27,2.25,2.98,3.48,6.77,2.83,11.26Z"/>
          <path class="cls-5" d="m244.08,147.52c2.56-2.14,5.75-3.7,8.99-4.47.02,0,.01-.03,0-.03-3.02.36-5.93,1.31-8.44,3.06-2.54,1.78-4.62,4.24-5.77,7.14-1.15,2.9-1.42,6.15-.57,9.16.44,1.55,1.2,2.97,2.16,4.27,1.05,1.42,2.28,2.7,3.31,4.14,2.34,3.24,3.61,7,3.94,10.96.02.24.43.23.43-.01-.05-3.23-.97-6.47-2.47-9.33-.78-1.48-1.77-2.83-2.83-4.12-1.08-1.31-2.2-2.62-2.95-4.15-1.35-2.74-1.52-5.96-.77-8.9.77-3.05,2.58-5.71,4.98-7.72Z"/>
          <path class="cls-13" d="m265.25,161.3c-.93,6.33-3.48,6.23-5.26,9.46-.05.08-.09.17-.14.25-1.79,3.5-1.64,5.87-1.64,5.87h-8.06s.11-1.76-1-4.49c-.17-.44-.38-.89-.63-1.38-1.79-3.5-4.44-3.23-5.4-9.72-.45-3.1.4-5.73,1.96-7.79,2.27-3,5.68-4.43,9.11-4.34,3.42-.09,6.84,1.34,9.1,4.34,1.55,2.06,2.41,4.69,1.96,7.79Z"/>
          <g>
            <path class="cls-1" d="m253.36,172.15c-.04-.93-.12-1.86-.2-2.79-.08-.93-.1-1.92-.27-2.83-.15-.77-1.02-.49-1.06.21-.05.89.07,1.82.12,2.71.05.93.14,1.86.18,2.8.13,3.07.53,6.24.98,5.89.04-.03.03-.02.07-.01.34.11.26-3.97.17-5.98Z"/>
            <g>
              <path class="cls-1" d="m263.19,160.96c-.28-1.9-2.03-2.11-3.3-2.12-1.32,0-10.01,0-11.38,0-1.27,0-3.02.21-3.3,2.12-.28,1.92,1.39,2.92,2.52,3.64,1.46.94,2.92,1.85,4.41,2.71.66.38,1.15-.78.52-1.23-1.22-.86-2.45-1.69-3.7-2.49-.57-.36-1.15-.7-1.7-1.09-.38-.27-.9-.74-.84-1.36.06-.69.78-.88,1.22-.94.65-.09,12.45-.09,13.1,0,.45.06,1.16.26,1.22.94.06.62-.46,1.09-.84,1.36-.55.39-1.13.73-1.7,1.09-1.25.8-2.48,1.63-3.7,2.49-.63.44-.14,1.61.52,1.23,1.49-.86,2.95-1.78,4.41-2.71,1.13-.72,2.8-1.72,2.52-3.64Z"/>
              <path class="cls-1" d="m255.05,172.15c.04-.93.12-1.86.2-2.79.08-.93.1-1.92.27-2.83.15-.77,1.02-.49,1.06.21.05.89-.07,1.82-.12,2.71-.05.93-.09,1.87-.18,2.8-.19,2.01-.46,6.53-.98,6.8-.04.02-.03-.95-.07-.93-.49.25-.26-3.97-.17-5.98Z"/>
            </g>
          </g>
          <path class="cls-5" d="m249.58,190.5s1.34,2.71,4.52,2.56c2.29-.11,3.6-1.11,4.03-2.58-3.86-.44-8.55.02-8.55.02Z"/>
          <path class="cls-14" d="m248.67,180.29h10.97c.91,0,1.66.74,1.66,1.66v3.78c0,3.12-2.54,5.66-5.66,5.66h-2.97c-3.12,0-5.66-2.54-5.66-5.66v-3.78c0-.91.74-1.66,1.66-1.66Z"/>
          <path class="cls-5" d="m261.74,182.81c-1.17-.26-2.44-.15-3.64-.16-1.2-.01-2.4-.03-3.61-.06-1.2-.03-2.4-.07-3.6-.11-1.23-.04-2.49-.19-3.72-.14-.86.03-.95,1.38-.09,1.51,1.19.18,2.44.14,3.65.18,1.19.04,2.39.06,3.58.07,1.19,0,2.38,0,3.57-.02,1.25-.02,2.61.08,3.82-.24.48-.13.57-.91.03-1.03Z"/>
          <path class="cls-5" d="m261.74,185.47c-1.17-.26-2.44-.15-3.64-.16-1.2-.01-2.4-.03-3.61-.06-1.2-.03-2.4-.07-3.6-.11-1.23-.04-2.49-.19-3.72-.14-.86.03-.95,1.38-.09,1.51,1.19.18,2.44.14,3.65.18,1.19.04,2.39.06,3.58.07,1.19,0,2.38,0,3.57-.02,1.25-.02,2.61.08,3.82-.24.48-.13.57-.91.03-1.03Z"/>
          <path class="cls-5" d="m261.74,188.12c-1.17-.26-2.44-.15-3.64-.16-1.2-.01-2.4-.03-3.61-.06-1.2-.03-2.4-.07-3.6-.11-1.23-.04-2.49-.19-3.72-.14-.86.03-.95,1.38-.09,1.51,1.19.18,2.44.14,3.65.18,1.19.04,2.39.06,3.58.07,1.19,0,2.38,0,3.57-.02,1.25-.02,2.61.08,3.82-.24.48-.13.57-.91.03-1.03Z"/>
        </g>
      </g>
    </g>
    <g>
      <rect class="cls-12" x="3.06" y="431.53" width="500" height="68.47"/>
      <path class="cls-5" d="m502.58,454.57c-65.34-.74-130.72-.2-196.06-.25-65.34-.05-130.67-.07-196.01-.03-36.83.02-73.67-.07-110.5.62-.03,0-.03.04,0,.04,65.33,1.22,130.72.63,196.06.63s130.63-.07,195.94-.11c36.83-.02,73.68.23,110.51-.19.45,0,.51-.7.05-.71Z"/>
      <path class="cls-5" d="m502.58,477.42c-65.34-.74-130.72-.2-196.06-.25-65.34-.05-130.67-.07-196.01-.03-36.83.02-73.67-.07-110.5.62-.03,0-.03.04,0,.04,65.33,1.22,130.72.63,196.06.63s130.63-.07,195.94-.11c36.83-.02,73.68.23,110.51-.19.45,0,.51-.7.05-.71Z"/>
      <path class="cls-5" d="m491.8,431.13c-63.47-.27-126.94-.97-190.41-1.2-62.92-.22-125.83-.19-188.75-.26-17.33-.02-34.67-.04-52-.06-18.74-.02-37.34-.14-55.94,2.29-.23.03-.23.34,0,.38,31.07,4.04,62.94,2.28,94.25,2.24,30.8-.04,61.61-.07,92.41-.11,62.23-.07,124.5.37,186.73-.38,37.95-.46,75.9-.82,113.86-.98,1.2,0,1.04-1.91-.14-1.92Z"/>
    </g>
    <g>
      <path class="cls-1" d="m145.59,210.29c-.84-1.9-5.35-14.28-5.35-14.28l9.94,10.97,3.55-5.81.25,8.31,14.11-5.57-11.82,9.29,8.44,1.27-9.08,1.27,4.62,13.18-9.69-10.86-2.82,9.84-.54-10.26-14.8,5.9,11.9-9.45-6.39-3.65,7.68-.16Z"/>
      <path class="cls-1" d="m247.62,32.09c.59-1.49,5-10.67,5-10.67l-.7,11.41,5.12-1.18-4.46,4.62,10.7,4.79-11.52-1.52,3.86,5.35-5.6-4.33-4.79,9.67.77-11.22-6.96,3.76,5.38-5.83-11.25-4.99,11.65,1.48-1.43-5.5,4.24,4.16Z"/>
      <path class="cls-1" d="m129.3,59.28c0,6.42-5.2,11.62-11.62,11.62,6.42,0,11.62,5.2,11.62,11.62,0-6.42,5.2-11.62,11.62-11.62-6.42,0-11.62-5.2-11.62-11.62Z"/>
      <path class="cls-1" d="m327.19,200.43c0,4.09-3.31,7.4-7.4,7.4,4.09,0,7.4,3.31,7.4,7.4,0-4.09,3.31-7.4,7.4-7.4-4.09,0-7.4-3.31-7.4-7.4Z"/>
      <path class="cls-1" d="m363.13,89.76c0,6.42-5.2,11.62-11.62,11.62,6.42,0,11.62,5.2,11.62,11.62,0-6.42,5.2-11.62,11.62-11.62-6.42,0-11.62-5.2-11.62-11.62Z"/>
    </g>
  </g>
</svg>